<svg width="30" height="30" viewBox="0 0 30 30" fill="none" xmlns="http://www.w3.org/2000/svg">
<path d="M15 4.99992L14.1162 4.11617L15 3.23242L15.8837 4.11617L15 4.99992ZM16.25 23.7499C16.25 24.0814 16.1183 24.3994 15.8838 24.6338C15.6494 24.8682 15.3315 24.9999 15 24.9999C14.6684 24.9999 14.3505 24.8682 14.1161 24.6338C13.8817 24.3994 13.75 24.0814 13.75 23.7499H16.25ZM6.61621 11.6162L14.1162 4.11617L15.8837 5.88367L8.38371 13.3837L6.61621 11.6162ZM15.8837 4.11617L23.3837 11.6162L21.6162 13.3837L14.1162 5.88367L15.8837 4.11617ZM16.25 4.99992V23.7499H13.75V4.99992H16.25Z" fill="#9A5DFF"/>
</svg>
