<svg width="163" height="34" viewBox="0 0 163 34" fill="none" xmlns="http://www.w3.org/2000/svg">
<path d="M11.136 33.556C9.83467 33.5347 8.704 33.3427 7.744 32.98C6.80533 32.6173 6.08 32.052 5.568 31.284C5.056 30.5373 4.8 29.5987 4.8 28.468V23.764C4.8 23.0387 4.65067 22.4627 4.352 22.036C4.05333 21.588 3.616 21.268 3.04 21.076C2.464 20.8627 1.74933 20.756 0.896 20.756V18.42C1.74933 18.3987 2.464 18.292 3.04 18.1C3.616 17.908 4.05333 17.5987 4.352 17.172C4.65067 16.724 4.8 16.148 4.8 15.444V10.708C4.8 9.85467 4.94933 9.11867 5.248 8.5C5.568 7.86 6.00533 7.33733 6.56 6.932C7.136 6.50533 7.808 6.18533 8.576 5.972C9.344 5.75867 10.1973 5.652 11.136 5.652V7.956C10.4107 7.97733 9.78133 8.09467 9.248 8.308C8.71467 8.52133 8.29867 8.84133 8 9.268C7.72267 9.69467 7.584 10.26 7.584 10.964V15.572C7.584 16.66 7.296 17.5347 6.72 18.196C6.144 18.836 5.26933 19.2627 4.096 19.476V19.668C5.29067 19.8813 6.16533 20.3187 6.72 20.98C7.296 21.62 7.584 22.484 7.584 23.572V28.276C7.584 28.9587 7.72267 29.5133 8 29.94C8.27733 30.388 8.68267 30.708 9.216 30.9C9.74933 31.1133 10.3893 31.2307 11.136 31.252V33.556ZM35.9219 3.53125C38.1094 4.03125 39.2031 5.125 39.2031 6.8125V7.35938C38.599 11.3802 38.2969 14.599 38.2969 17.0156V18.2812C38.2969 19.8542 38.3906 21.4635 38.5781 23.1094C38.6406 23.7135 38.6719 24.2708 38.6719 24.7812C38.6719 25.6875 38.5729 26.4688 38.375 27.125C38.0521 28.1562 36.9323 28.6719 35.0156 28.6719C32.8802 28.6719 31.651 27.9062 31.3281 26.375C31.0156 24.8438 30.8594 22.9375 30.8594 20.6562C29.3177 20.4896 27.8125 20.4062 26.3438 20.4062C24.8854 20.4062 23.4583 20.4896 22.0625 20.6562C22.0625 21.7083 22.2448 23.4115 22.6094 25.7656V26.125C22.6094 28.0208 21.3958 29.1146 18.9688 29.4062C16.4167 28.9688 15.1406 27.3281 15.1406 24.4844V21.1562H15.0312C13.8229 21.1562 13.1354 20.0833 12.9688 17.9375C12.9479 17.7292 12.9375 17.5208 12.9375 17.3125C12.9375 15.4688 13.6302 14.2656 15.0156 13.7031C15.2448 9.35938 15.7188 6.75521 16.4375 5.89062C16.9792 5.22396 17.7812 4.89062 18.8438 4.89062C19.1667 4.89062 19.5104 4.92188 19.875 4.98438C21.5 4.98438 22.5365 6.07812 22.9844 8.26562V8.8125C22.4948 10.8646 22.2135 12.4167 22.1406 13.4688C23.7135 13.3333 25.1875 13.2656 26.5625 13.2656C28.1771 13.2656 29.6458 13.3594 30.9688 13.5469L31.7344 8.26562C32.1719 5.10938 33.5677 3.53125 35.9219 3.53125ZM57.3906 0.5625C59.1719 0.958333 60.9896 3.34375 62.8438 7.71875C63.1042 7.70833 63.3542 7.70312 63.5938 7.70312C68.0938 7.70312 70.3438 8.71354 70.3438 10.7344C70.3438 11.099 70.2708 11.4896 70.125 11.9062C70.125 13.3229 68.849 14.901 66.2969 16.6406L66.125 17.0156C67.4583 21.1823 68.125 23.6719 68.125 24.4844V25.7656C67.6875 27.9531 66.5938 29.0469 64.8438 29.0469H64.1094C62.776 29.0469 59.9219 27.3438 55.5469 23.9375L48.25 28.5C48.0417 28.6146 47.8021 28.6719 47.5312 28.6719H46.0781C44.5469 28.3698 43.6354 27.4583 43.3438 25.9375V24.4844L45.1562 17.7344C45.1458 17.3594 43.8125 15.8438 41.1562 13.1875L40.7812 11.9062V10.8125C40.7812 9.10417 41.875 7.95312 44.0625 7.35938C47.3125 7.47396 49.3177 7.53125 50.0781 7.53125C50.8906 6.47917 51.8646 4.83854 53 2.60938C53.9271 1.18229 55.0729 0.46875 56.4375 0.46875C56.7396 0.46875 57.0573 0.5 57.3906 0.5625ZM87.9219 4.3125C90.776 4.63542 92.6771 5.70833 93.625 7.53125C94 8.27083 94.1875 8.94271 94.1875 9.54688C94.1875 10.4531 93.7656 11.2135 92.9219 11.8281C92.0573 12.4531 91.2083 12.7656 90.375 12.7656C89.8542 12.7656 89.3385 12.6406 88.8281 12.3906C88.0469 12.0052 87.1771 11.8125 86.2188 11.8125C85.5625 11.8125 84.8646 11.901 84.125 12.0781C82.3021 12.526 81.3906 13.0781 81.3906 13.7344C81.3906 13.9531 81.7135 14.0625 82.3594 14.0625C82.7135 14.0625 83.1615 14.026 83.7031 13.9531C84.026 13.9219 84.3281 13.9062 84.6094 13.9062C85.7031 13.9062 86.5573 14.1823 87.1719 14.7344C87.7969 15.3073 88.1094 16.151 88.1094 17.2656C88.1094 17.5052 88.0938 17.7604 88.0625 18.0312C87.8958 19.5312 86.8385 20.6302 84.8906 21.3281C81.7031 22.0573 80.1094 22.7448 80.1094 23.3906C80.151 23.6302 80.2708 23.75 80.4688 23.75H80.8438C84.125 23.75 87.7708 22.4167 91.7812 19.75C92.1042 19.6875 92.4115 19.6562 92.7031 19.6562C94.4531 19.6562 95.5104 20.849 95.875 23.2344C95.9167 23.5156 95.9375 23.7865 95.9375 24.0469C95.9375 26.4323 94.1667 28.224 90.625 29.4219C87.3021 30.5469 84.099 31.1094 81.0156 31.1094C80.4531 31.1094 79.8958 31.0885 79.3438 31.0469C75.7396 30.8073 73.3229 28.9844 72.0938 25.5781C71.9688 24.9219 71.9062 24.1927 71.9062 23.3906C71.9062 21.5781 72.6979 19.8177 74.2812 18.1094C73.4271 16.7135 73 15.1927 73 13.5469C73 10.1927 74.7708 7.73438 78.3125 6.17188C81.25 4.88021 83.9583 4.23438 86.4375 4.23438C86.9375 4.23438 87.4323 4.26042 87.9219 4.3125ZM102.844 3.53125H103.922C105.547 3.53125 106.583 4.625 107.031 6.8125V7.35938C105.938 10.8385 105.391 13.2656 105.391 14.6406C105.266 15.0573 105.203 15.849 105.203 17.0156C105.203 19.9323 105.87 21.3906 107.203 21.3906C109.089 21.3906 110.854 20.1719 112.5 17.7344C114.073 15.5573 115.349 11.4896 116.328 5.53125C117.109 4.3125 118.26 3.70312 119.781 3.70312C122.094 3.70312 123.25 5.65104 123.25 9.54688C123.25 10.7031 123.615 16.2292 124.344 26.125C123.635 27.9479 122.542 28.8594 121.062 28.8594H120.516C119.005 28.8594 117.911 27.8854 117.234 25.9375C117.234 24.8438 117.052 24.2969 116.688 24.2969C113.333 27.2135 110.297 28.6719 107.578 28.6719H107.031C103.073 28.6719 100.276 26.4271 98.6406 21.9375C98.276 20.75 98.0938 19.1667 98.0938 17.1875V16.0938C98.6146 7.71875 100.198 3.53125 102.844 3.53125ZM146.094 3.01562C148.031 3.59896 149.266 6.01042 149.797 10.25C150.234 13.8438 150.453 17.2656 150.453 20.5156C150.453 21.0885 150.448 21.6562 150.438 22.2188C150.344 25.9688 148.974 28.1198 146.328 28.6719C144.005 28.6719 141.391 26.7292 138.484 22.8438C135.255 19.0729 133.552 17.1875 133.375 17.1875H133.203L133.016 17.5625V25.7656C133.016 27.2865 132.167 28.3802 130.469 29.0469H128.641C126.818 28.474 125.906 27.3802 125.906 25.7656V16.6406C125.906 11.5885 126.635 8.55208 128.094 7.53125C128.938 6.92708 129.729 6.625 130.469 6.625H131.203C133.536 6.625 137.073 9.74479 141.812 15.9844C142.042 16.099 142.224 16.1562 142.359 16.1562L142.531 15.7969C141.948 12.5885 141.656 10.0365 141.656 8.14062C141.656 5.80729 142.099 4.46354 142.984 4.10938C143.484 3.38021 144.521 3.01562 146.094 3.01562ZM152.274 31.252C153.021 31.2307 153.65 31.1133 154.162 30.9C154.695 30.6867 155.101 30.356 155.378 29.908C155.677 29.4813 155.826 28.9267 155.826 28.244V23.604C155.826 22.516 156.114 21.652 156.69 21.012C157.266 20.3507 158.141 19.9133 159.314 19.7V19.508C158.141 19.2947 157.266 18.868 156.69 18.228C156.114 17.5667 155.826 16.692 155.826 15.604V10.932C155.826 10.228 155.687 9.66267 155.41 9.236C155.133 8.80933 154.727 8.48933 154.194 8.276C153.682 8.06267 153.042 7.956 152.274 7.956V5.652C153.255 5.652 154.13 5.75867 154.898 5.972C155.687 6.18533 156.359 6.50533 156.914 6.932C157.469 7.33733 157.885 7.86 158.162 8.5C158.461 9.14 158.61 9.88667 158.61 10.74V15.412C158.61 16.1373 158.759 16.724 159.058 17.172C159.357 17.5987 159.794 17.9187 160.37 18.132C160.967 18.324 161.682 18.42 162.514 18.42V20.756C161.682 20.756 160.967 20.8627 160.37 21.076C159.794 21.268 159.357 21.5773 159.058 22.004C158.759 22.4307 158.61 23.0067 158.61 23.732V28.5C158.61 29.6307 158.343 30.5693 157.81 31.316C157.277 32.0627 156.53 32.6173 155.57 32.98C154.631 33.364 153.533 33.556 152.274 33.556V31.252Z" fill="white"/>
</svg>
