<?xml version="1.0" encoding="utf-8"?>
<!-- Generator: Adobe Illustrator 27.9.0, SVG Export Plug-In . SVG Version: 6.00 Build 0)  -->
<svg version="1.1" id="레이어_1" xmlns="http://www.w3.org/2000/svg" xmlns:xlink="http://www.w3.org/1999/xlink" x="0px"
	 y="0px" width="100px" height="78.09px" viewBox="0 0 100 78.09" style="enable-background:new 0 0 100 78.09;"
	 xml:space="preserve">
<g>
	<path d="M47.97,37.52c0.14-0.01,0.29-0.02,0.43-0.03c0.21-0.01,0.43-0.02,0.66-0.03c0.36-0.21,0.59-0.6,0.59-1.04
		c0-0.64-0.55-1.19-1.18-1.19c-0.67,0-1.24,0.57-1.22,1.24C47.25,36.92,47.55,37.33,47.97,37.52z"/>
	<path d="M50.39,37.44c0.36,0.01,0.73,0.03,1.09,0.08c0.41-0.19,0.72-0.61,0.72-1.08c0.01-0.65-0.54-1.21-1.2-1.22
		c-0.64-0.01-1.19,0.54-1.2,1.18C49.8,36.83,50.04,37.22,50.39,37.44z"/>
	<path d="M54.76,38.8c-0.1-0.54-0.56-0.96-1.12-0.98c-0.16,0-0.31,0.02-0.45,0.08C53.76,38.11,54.3,38.4,54.76,38.8z"/>
	<path d="M47.02,36.41c0.01,0.65-0.53,1.19-1.18,1.19c-0.61,0-1.17-0.55-1.18-1.16c-0.01-0.64,0.52-1.19,1.17-1.2
		C46.5,35.24,47.01,35.74,47.02,36.41z"/>
	<path d="M54.77,36.41c0,0.65-0.54,1.19-1.19,1.18c-0.6-0.01-1.14-0.54-1.15-1.14c-0.01-0.65,0.52-1.19,1.17-1.19
		C54.23,35.25,54.77,35.79,54.77,36.41z"/>
	<path d="M47.29,33.76c0,0.01,0,0.02,0,0.04c-0.01,0.63,0.52,1.17,1.15,1.18c0.63,0.01,1.14-0.5,1.15-1.13c0-0.03,0-0.05,0-0.08
		C48.82,33.77,48.05,33.77,47.29,33.76z"/>
	<path d="M49.85,33.77c0,0.01,0,0.02,0,0.03c-0.02,0.62,0.53,1.18,1.16,1.17c0.63-0.01,1.14-0.51,1.14-1.14c0-0.02,0-0.03,0-0.05
		C51.38,33.78,50.62,33.78,49.85,33.77z"/>
	<path d="M56.19,37.88c-0.6,0.01-1.12,0.52-1.13,1.11c0,0.03,0,0.06,0,0.09c0.03,0.03,0.05,0.05,0.08,0.08
		c0.26,0.28,0.44,0.58,0.58,0.88c0.15,0.08,0.32,0.12,0.5,0.12c0.61,0,1.12-0.54,1.12-1.16C57.33,38.36,56.82,37.87,56.19,37.88z"/>
	<path d="M43.24,37.55c-0.62-0.01-1.14-0.54-1.13-1.16c0.01-0.59,0.55-1.12,1.14-1.12c0.62,0,1.14,0.53,1.14,1.15
		C44.38,37.05,43.87,37.56,43.24,37.55z"/>
	<path d="M44.72,33.76c0,0.03-0.01,0.06-0.01,0.08c0.01,0.62,0.55,1.14,1.16,1.12c0.59-0.02,1.12-0.55,1.11-1.14
		c0-0.02,0-0.04,0-0.06C46.23,33.76,45.48,33.76,44.72,33.76z"/>
	<path d="M56.3,41.7c0.06-0.4,0.22-0.78,0.46-1.11c-0.16-0.09-0.34-0.14-0.54-0.15c-0.12,0-0.23,0.02-0.34,0.05
		c0.12,0.45,0.14,0.92,0.1,1.39C56.07,41.82,56.18,41.75,56.3,41.7z"/>
	<path d="M54.59,33.28c-0.38,0.32-0.89,0.52-1.53,0.51c-0.19,0-0.38,0-0.57,0c0,0.03-0.01,0.05,0,0.08c0.02,0.6,0.57,1.11,1.16,1.08
		c0.62-0.03,1.13-0.58,1.1-1.19C54.73,33.59,54.67,33.43,54.59,33.28z"/>
	<path d="M57.33,36.44c-0.01,0.6-0.54,1.12-1.13,1.11c-0.62-0.01-1.14-0.54-1.12-1.16c0.02-0.59,0.53-1.09,1.12-1.09
		C56.82,35.29,57.34,35.81,57.33,36.44z"/>
	<path d="M44,33.76c-0.17,0-0.33-0.02-0.48-0.04c-0.15,0.03-0.31,0.04-0.48,0.04c-0.33,0-0.62-0.05-0.87-0.15
		c-0.01,0.07-0.02,0.14-0.02,0.21c0,0.62,0.49,1.1,1.12,1.1c0.6,0,1.1-0.49,1.1-1.09c0-0.03,0-0.05-0.01-0.08
		C44.24,33.76,44.12,33.76,44,33.76z"/>
	<path d="M41.55,38.33c-0.21-0.26-0.52-0.43-0.85-0.43c-0.6,0-1.1,0.49-1.11,1.08c0,0.28,0.1,0.54,0.26,0.73
		C40.33,39.16,40.89,38.66,41.55,38.33z"/>
	<path d="M56.21,34.92c-0.6,0.01-1.1-0.49-1.1-1.08c0-0.6,0.48-1.11,1.07-1.12c0.59-0.01,1.13,0.51,1.13,1.11
		C57.31,34.41,56.81,34.91,56.21,34.92z"/>
	<path d="M58.02,39.46c0.2-0.29,0.46-0.55,0.79-0.72c0.17-0.23,0.39-0.43,0.66-0.58c-0.18-0.15-0.41-0.24-0.65-0.24
		C58.24,37.9,57.7,38.43,57.7,39c0,0.21,0.07,0.41,0.18,0.58C57.92,39.54,57.97,39.5,58.02,39.46z"/>
	<path d="M39.6,36.42c0-0.6,0.49-1.09,1.09-1.09c0.59,0,1.1,0.5,1.1,1.09c0.01,0.57-0.52,1.1-1.09,1.1
		C40.11,37.51,39.6,37.01,39.6,36.42z"/>
	<path d="M58.8,37.49c-0.61,0-1.06-0.44-1.07-1.05c0-0.61,0.47-1.1,1.07-1.1c0.57,0,1.07,0.5,1.08,1.07
		C59.89,37,59.4,37.48,58.8,37.49z"/>
	<path d="M40.89,32.96c-0.11-0.06-0.21-0.12-0.31-0.19c-0.54,0.06-0.97,0.52-0.96,1.06c0.01,0.57,0.51,1.07,1.08,1.07
		c0.58,0,1.06-0.5,1.05-1.08c0-0.14-0.03-0.26-0.08-0.38C41.37,33.33,41.1,33.16,40.89,32.96z"/>
	<path d="M57.04,30.63c-0.04-0.06-0.09-0.11-0.14-0.15c-0.07,0.17-0.16,0.33-0.26,0.47c-0.18,0.5-0.5,0.94-0.97,1.22
		c0.17,0.1,0.36,0.16,0.55,0.16c0.53-0.02,0.95-0.41,1.03-0.91C57.14,31.17,57.07,30.9,57.04,30.63z"/>
	<path d="M58.13,33.02c-0.24,0.2-0.39,0.49-0.39,0.81c0.01,0.57,0.48,1.05,1.05,1.05c0.49,0,0.92-0.36,1.04-0.82
		C59.03,33.98,58.47,33.57,58.13,33.02z"/>
	<path d="M38.07,37.96c-0.38,0-0.71,0.23-0.89,0.54c0.57,0.28,0.95,0.77,1.14,1.33c0.05,0.05,0.09,0.11,0.14,0.16
		c0.4-0.16,0.69-0.54,0.7-0.98C39.16,38.44,38.66,37.95,38.07,37.96z"/>
	<path d="M38.07,35.39c0.6-0.01,1.05,0.43,1.05,1.03c0,0.59-0.46,1.06-1.03,1.05c-0.57-0.01-1.05-0.49-1.05-1.06
		C37.05,35.85,37.5,35.39,38.07,35.39z"/>
	<path d="M39.67,31.18c0,0.03-0.01,0.05-0.01,0.08c0,0.25,0.08,0.47,0.22,0.64C39.78,31.67,39.71,31.43,39.67,31.18z"/>
	<path d="M61.38,35.39c0.57,0.01,1.01,0.46,1.01,1.03c-0.01,0.56-0.47,1.02-1.02,1.03c-0.54,0.01-1.04-0.49-1.04-1.03
		C60.32,35.86,60.8,35.39,61.38,35.39z"/>
	<path d="M38.1,34.84c-0.56,0-1.04-0.47-1.04-1.01c0-0.56,0.49-1.05,1.05-1.05c0.54,0,1.01,0.48,1.01,1.04
		C39.11,34.4,38.67,34.84,38.1,34.84z"/>
	<path d="M61.19,33.97c-0.1,0-0.2,0-0.29-0.01c-0.16,0.05-0.34,0.09-0.52,0.1c0.11,0.43,0.51,0.77,0.97,0.78
		c0.55,0.01,1.03-0.46,1.03-1.02c0-0.04,0-0.09-0.01-0.13C62.04,33.87,61.65,33.97,61.19,33.97z"/>
	<path d="M35.63,38.11c0.11,0,0.22,0.01,0.33,0.02c-0.14-0.07-0.29-0.11-0.46-0.11c-0.08,0-0.16,0.01-0.23,0.03
		c0.09,0.02,0.18,0.04,0.27,0.06C35.57,38.11,35.6,38.11,35.63,38.11z"/>
	<path d="M38.74,31.66c-0.14,0.23-0.31,0.43-0.53,0.59c0.47-0.07,0.85-0.48,0.87-0.96C38.99,31.42,38.87,31.55,38.74,31.66z"/>
	<path d="M40.27,27.94c0.05-0.08,0.11-0.16,0.16-0.24c-0.42,0.12-0.75,0.52-0.75,0.97c0,0.17,0.05,0.33,0.13,0.47
		C39.88,28.74,40.03,28.33,40.27,27.94z"/>
	<path d="M36.48,36.42c0,0.56-0.44,0.99-1,0.99c-0.54,0-0.99-0.44-0.99-0.97c-0.01-0.55,0.48-1.03,1.03-1.02
		C36.05,35.43,36.49,35.88,36.48,36.42z"/>
	<path d="M64.58,39.76c0.21-0.18,0.36-0.45,0.36-0.73c0-0.55-0.44-1-0.99-1c-0.34,0-0.66,0.2-0.83,0.48
		c0.11,0.06,0.21,0.14,0.31,0.22C63.95,38.93,64.34,39.3,64.58,39.76z"/>
	<path d="M48.41,54.95c-0.13,0-0.26-0.01-0.38-0.03c-0.14,0.04-0.29,0.07-0.43,0.1c0.18,0.29,0.5,0.5,0.84,0.5
		c0.45,0,0.85-0.34,0.96-0.76C49.11,54.88,48.78,54.95,48.41,54.95z"/>
	<path d="M51.24,53.57c-0.32,0.19-0.65,0.36-0.99,0.52c-0.07,0.09-0.14,0.17-0.22,0.25c-0.01,0.06-0.02,0.12-0.02,0.18
		c-0.01,0.52,0.45,0.99,0.97,0.99c0.53,0.01,1.01-0.46,1.01-0.99C51.99,54.06,51.67,53.68,51.24,53.57z"/>
	<path d="M35.3,33.72c-0.09,0-0.17-0.01-0.25-0.01c-0.16,0.07-0.33,0.13-0.52,0.16c0.02,0.5,0.46,0.94,0.97,0.94
		c0.53,0,0.98-0.44,0.99-0.98c0-0.13-0.02-0.25-0.07-0.36C36.09,33.62,35.72,33.72,35.3,33.72z"/>
	<path d="M64.94,36.42c0,0.53-0.45,0.98-0.98,0.98c-0.53,0-0.98-0.45-0.98-0.98c0-0.52,0.46-0.98,0.98-0.98
		C64.49,35.44,64.94,35.89,64.94,36.42z"/>
	<path d="M44.15,25.68c-0.15-0.35-0.51-0.61-0.92-0.6c-0.53,0.01-0.97,0.47-0.96,1c0,0.07,0.01,0.13,0.03,0.2
		C42.88,26.03,43.52,25.85,44.15,25.68z"/>
	<path d="M45.29,55.33c0.16,0.12,0.36,0.18,0.57,0.18c0.26,0,0.5-0.12,0.67-0.3C46.12,55.27,45.71,55.3,45.29,55.33z"/>
	<path d="M53.33,53.6c-0.39,0.12-0.69,0.49-0.7,0.91c-0.01,0.52,0.44,0.99,0.97,0.99c0.42,0,0.76-0.24,0.91-0.6
		C53.92,54.63,53.53,54.16,53.33,53.6z"/>
	<path d="M56.27,26.95c0.03,0.02,0.05,0.04,0.08,0.06c0.46-0.07,0.82-0.46,0.82-0.93c0-0.53-0.45-0.98-0.97-0.98
		c-0.39,0-0.74,0.25-0.89,0.6C55.71,26.04,56.04,26.47,56.27,26.95z"/>
	<path d="M63.95,34.77c-0.53,0-0.95-0.42-0.95-0.95c0-0.55,0.44-0.98,0.98-0.97c0.48,0.01,0.93,0.46,0.94,0.94
		C64.94,34.33,64.5,34.77,63.95,34.77z"/>
	<path d="M42.68,55.29c0.16,0.12,0.36,0.2,0.58,0.19c0.18,0,0.35-0.05,0.49-0.14C43.39,55.33,43.03,55.31,42.68,55.29z"/>
	<path d="M55.58,55.1c-0.02,0-0.03,0-0.05,0c-0.03,0-0.06,0-0.09,0c0.17,0.23,0.44,0.38,0.75,0.38c0.11,0,0.21-0.02,0.31-0.05
		c-0.23-0.06-0.45-0.13-0.68-0.22C55.74,55.18,55.66,55.14,55.58,55.1z"/>
	<path d="M40.68,27.01c-0.53-0.01-0.94-0.43-0.94-0.96c0-0.52,0.45-0.96,0.95-0.95c0.51,0.01,0.95,0.46,0.95,0.97
		C41.65,26.58,41.2,27.02,40.68,27.01z"/>
	<path d="M33.84,36.43c0,0.5-0.43,0.93-0.93,0.93c-0.52,0-0.96-0.43-0.95-0.95c0-0.5,0.43-0.93,0.93-0.94
		C33.4,35.47,33.84,35.91,33.84,36.43z"/>
	<path d="M59,25.15c-0.06-0.01-0.11-0.02-0.17-0.02c-0.52-0.01-0.96,0.41-0.97,0.94c-0.01,0.34,0.19,0.65,0.47,0.82
		c0.01-0.03,0.02-0.06,0.03-0.09c0.03-0.59,0.24-1.16,0.63-1.59C58.99,25.18,58.99,25.17,59,25.15C59,25.15,59,25.15,59,25.15z"/>
	<path d="M66.06,39.8c0.24-0.4,0.6-0.72,1.07-0.91c0.09-0.09,0.18-0.17,0.28-0.25c-0.15-0.31-0.46-0.54-0.83-0.55
		c-0.53-0.01-0.93,0.38-0.94,0.9C65.63,39.33,65.8,39.63,66.06,39.8z"/>
	<path d="M49.37,57.14c-0.01,0.52-0.41,0.91-0.94,0.9c-0.51-0.01-0.93-0.44-0.92-0.94c0.01-0.5,0.46-0.93,0.96-0.91
		C48.97,56.2,49.37,56.63,49.37,57.14z"/>
	<path d="M51.93,57.11c0.01,0.53-0.38,0.93-0.91,0.94c-0.51,0-0.94-0.4-0.95-0.91c-0.01-0.49,0.43-0.94,0.92-0.95
		C51.49,56.18,51.92,56.6,51.93,57.11z"/>
	<path d="M53.62,58.04c-0.53,0.01-0.93-0.38-0.93-0.91c-0.01-0.5,0.42-0.94,0.92-0.94c0.5,0.01,0.93,0.44,0.93,0.94
		C54.53,57.61,54.11,58.03,53.62,58.04z"/>
	<path d="M42.9,22.61c-0.07,0.03-0.13,0.07-0.2,0.12c-0.09,0.14-0.19,0.28-0.31,0.4c-0.04,0.11-0.07,0.22-0.07,0.33
		c-0.01,0.49,0.43,0.92,0.94,0.92c0.21,0,0.4-0.07,0.55-0.19C43.36,23.78,43.04,23.26,42.9,22.61z"/>
	<path d="M66.55,37.33c-0.53,0-0.92-0.4-0.91-0.93c0-0.49,0.42-0.91,0.9-0.92c0.51-0.01,0.96,0.45,0.94,0.96
		C67.47,36.93,67.04,37.34,66.55,37.33z"/>
	<path d="M45.87,58.04c-0.53,0.01-0.93-0.38-0.94-0.91c-0.01-0.5,0.42-0.94,0.92-0.94c0.5,0,0.93,0.44,0.93,0.94
		C46.78,57.61,46.36,58.03,45.87,58.04z"/>
	<path d="M32.26,33.15c-0.18,0.17-0.28,0.41-0.28,0.68c0,0.49,0.42,0.91,0.9,0.91c0.47,0,0.89-0.39,0.93-0.85
		C33.14,33.85,32.62,33.56,32.26,33.15z"/>
	<path d="M38.96,26.36c0.04-0.1,0.06-0.2,0.06-0.31c-0.01-0.31-0.18-0.59-0.42-0.75c-0.09,0.02-0.62,0.14-0.7,0.15
		C38.15,25.77,38.8,26.01,38.96,26.36z"/>
	<path d="M65.64,33.83c-0.01-0.49,0.41-0.92,0.9-0.92c0.5,0,0.92,0.41,0.92,0.9c0,0.48-0.42,0.91-0.91,0.93
		C66.08,34.75,65.65,34.33,65.64,33.83z"/>
	<path d="M35.13,51.91c-0.04-0.08-0.07-0.16-0.1-0.25c-0.12,0.21-0.25,0.42-0.38,0.61c0.11,0.26,0.35,0.47,0.64,0.54
		C35.19,52.52,35.14,52.22,35.13,51.91z"/>
	<path d="M44.16,57.13c0,0.49-0.43,0.91-0.91,0.91c-0.5-0.01-0.92-0.43-0.91-0.91c0.01-0.48,0.44-0.91,0.92-0.91
		C43.74,56.21,44.16,56.63,44.16,57.13z"/>
	<path d="M55.29,57.12c0-0.48,0.44-0.91,0.92-0.9c0.5,0.01,0.9,0.42,0.9,0.91c-0.01,0.49-0.43,0.9-0.91,0.9
		C55.7,58.03,55.29,57.61,55.29,57.12z"/>
	<path d="M38.33,55.1c-0.41,0-0.76-0.08-1.06-0.22c0.14,0.31,0.45,0.54,0.81,0.55c0.24,0.01,0.48-0.1,0.65-0.26
		c-0.07-0.02-0.15-0.05-0.22-0.07C38.44,55.1,38.39,55.1,38.33,55.1z"/>
	<path d="M58.29,24.19c0.15,0.11,0.33,0.18,0.51,0.18c0.06,0,0.12-0.01,0.18-0.02c0.02-0.17,0.06-0.34,0.11-0.5
		C58.86,24,58.6,24.12,58.29,24.19z"/>
	<path d="M39.81,57.11c0-0.5,0.39-0.87,0.89-0.86c0.49,0.01,0.88,0.39,0.89,0.88c0.01,0.46-0.42,0.89-0.88,0.9
		C40.2,58.02,39.8,57.62,39.81,57.11z"/>
	<path d="M65.84,30.75c-0.11,0.15-0.18,0.32-0.18,0.5c0,0.4,0.26,0.73,0.62,0.85C66.01,31.7,65.87,31.23,65.84,30.75z"/>
	<path d="M31.22,36.42c-0.01,0.48-0.42,0.89-0.89,0.88c-0.48-0.01-0.88-0.42-0.88-0.9c0-0.47,0.42-0.87,0.9-0.87
		C30.84,35.54,31.22,35.93,31.22,36.42z"/>
	<path d="M59.67,57.14c-0.01,0.46-0.42,0.87-0.87,0.87c-0.47,0-0.89-0.41-0.89-0.88c-0.01-0.47,0.42-0.89,0.89-0.88
		C59.29,56.25,59.68,56.65,59.67,57.14z"/>
	<path d="M48.45,58.81c0.47,0,0.88,0.43,0.87,0.9c-0.01,0.46-0.43,0.86-0.89,0.85c-0.47-0.01-0.87-0.41-0.87-0.87
		C47.57,59.21,47.97,58.81,48.45,58.81z"/>
	<path d="M50.13,59.7c-0.01-0.49,0.39-0.89,0.88-0.89c0.46,0,0.86,0.39,0.88,0.86c0.02,0.47-0.41,0.9-0.88,0.89
		C50.54,60.56,50.14,60.16,50.13,59.7z"/>
	<path d="M43.25,20.04c-0.15,0-0.29,0.04-0.41,0.11c0.1,0.2,0.17,0.42,0.21,0.64c0.08-0.21,0.19-0.42,0.32-0.6
		c0.01-0.04,0.03-0.09,0.04-0.13C43.36,20.04,43.3,20.04,43.25,20.04z"/>
	<path d="M69.13,35.55c0.46,0.01,0.85,0.41,0.85,0.87c0,0.48-0.42,0.88-0.89,0.87c-0.48-0.01-0.87-0.43-0.85-0.91
		C68.26,35.92,68.67,35.54,69.13,35.55z"/>
	<path d="M30.36,32.95c0.46,0.01,0.85,0.41,0.85,0.87c0,0.48-0.41,0.88-0.89,0.87c-0.47-0.01-0.86-0.41-0.85-0.87
		C29.47,33.34,29.88,32.94,30.36,32.95z"/>
	<path d="M36.1,53.91c-0.05-0.04-0.1-0.07-0.14-0.11c-0.13-0.08-0.28-0.14-0.44-0.14c-0.47-0.02-0.89,0.39-0.89,0.87
		c0,0.46,0.39,0.86,0.85,0.87c0.46,0.01,0.87-0.37,0.89-0.83C36.38,54.31,36.27,54.08,36.1,53.91z"/>
	<path d="M46.72,59.69c-0.01,0.46-0.4,0.86-0.86,0.87c-0.48,0.01-0.88-0.39-0.88-0.88c0-0.47,0.42-0.88,0.89-0.87
		C46.34,58.83,46.72,59.23,46.72,59.69z"/>
	<path d="M53.61,60.54c-0.47,0.01-0.86-0.37-0.87-0.84c0-0.49,0.39-0.89,0.87-0.88c0.44,0,0.84,0.4,0.85,0.83
		C54.49,60.13,54.09,60.54,53.61,60.54z"/>
	<path d="M69.44,34.02c-0.45,0-0.84-0.1-1.16-0.27c0,0.03-0.01,0.06-0.01,0.08c0,0.46,0.37,0.84,0.83,0.85
		c0.41,0.01,0.78-0.31,0.86-0.71C69.79,34,69.62,34.02,69.44,34.02z"/>
	<path d="M38.09,57.97c-0.49,0-0.85-0.37-0.85-0.86c0-0.46,0.38-0.84,0.83-0.85c0.46-0.01,0.87,0.4,0.88,0.86
		C38.96,57.58,38.57,57.97,38.09,57.97z"/>
	<path d="M44.1,59.67c0.01,0.48-0.36,0.86-0.84,0.86c-0.46,0-0.84-0.36-0.86-0.81c-0.02-0.47,0.4-0.9,0.87-0.89
		C43.72,58.83,44.09,59.21,44.1,59.67z"/>
	<path d="M61.34,57.97c-0.46-0.01-0.83-0.38-0.82-0.85c0.01-0.48,0.39-0.86,0.87-0.85c0.44,0.01,0.84,0.42,0.83,0.85
		C62.2,57.6,61.82,57.97,61.34,57.97z"/>
	<path d="M30.75,30.53c-0.21,0.51-0.58,0.95-1.11,1.2c0.15,0.23,0.42,0.38,0.71,0.38c0.44-0.01,0.84-0.41,0.84-0.85
		C31.19,30.95,31.01,30.68,30.75,30.53z"/>
	<path d="M57.04,59.7c-0.01,0.46-0.38,0.83-0.85,0.82c-0.48-0.01-0.86-0.39-0.85-0.86c0.01-0.44,0.42-0.84,0.85-0.83
		C56.68,58.84,57.05,59.23,57.04,59.7z"/>
	<path d="M40.7,60.52c-0.44,0.01-0.84-0.38-0.85-0.83c0-0.44,0.36-0.82,0.8-0.84c0.45-0.02,0.86,0.37,0.86,0.81
		C41.53,60.13,41.17,60.51,40.7,60.52z"/>
	<path d="M59.62,59.7c-0.01,0.44-0.4,0.82-0.83,0.81c-0.45-0.01-0.84-0.4-0.83-0.85c0.01-0.43,0.4-0.81,0.83-0.8
		C59.27,58.86,59.63,59.23,59.62,59.7z"/>
	<path d="M26.92,36.39c0.02-0.47,0.4-0.82,0.87-0.79c0.44,0.02,0.8,0.43,0.78,0.85c-0.02,0.45-0.43,0.82-0.88,0.8
		C27.26,37.22,26.9,36.82,26.92,36.39z"/>
	<path d="M34.68,57.13c-0.01-0.47,0.33-0.81,0.79-0.82c0.47,0,0.85,0.37,0.84,0.82c-0.01,0.43-0.4,0.82-0.83,0.81
		C35.05,57.95,34.69,57.58,34.68,57.13z"/>
	<path d="M33.35,53.85C33.35,53.85,33.35,53.85,33.35,53.85c-0.38,0.37-0.8,0.66-1.25,0.88c0.09,0.35,0.41,0.6,0.79,0.61
		c0.47,0,0.81-0.33,0.82-0.8C33.71,54.25,33.57,54,33.35,53.85z"/>
	<path d="M72.52,38.93c-0.05-0.4-0.41-0.74-0.81-0.73c-0.05,0-0.09,0.01-0.14,0.02C71.92,38.39,72.24,38.63,72.52,38.93z"/>
	<path d="M48.44,63.09c-0.46,0-0.8-0.35-0.8-0.81c0-0.45,0.36-0.81,0.8-0.82c0.44-0.01,0.84,0.4,0.83,0.84
		C49.25,62.74,48.89,63.09,48.44,63.09z"/>
	<path d="M43.25,19.11c-0.46,0-0.81-0.35-0.81-0.81c0-0.43,0.36-0.8,0.79-0.81c0.44-0.01,0.85,0.4,0.84,0.84
		C44.05,18.76,43.68,19.12,43.25,19.11z"/>
	<path d="M51.02,63.09c-0.46,0-0.81-0.34-0.82-0.8c0-0.44,0.38-0.83,0.81-0.82c0.43,0.01,0.82,0.4,0.81,0.83
		C51.82,62.72,51.45,63.08,51.02,63.09z"/>
	<path d="M63.15,57.15c-0.01-0.46,0.33-0.82,0.79-0.83c0.44-0.01,0.83,0.36,0.83,0.8c0,0.43-0.39,0.82-0.82,0.82
		C63.53,57.94,63.16,57.57,63.15,57.15z"/>
	<path d="M66.32,55.29c0.08,0.02,0.16,0.04,0.24,0.04c0.36,0,0.65-0.23,0.76-0.55C66.99,54.98,66.66,55.16,66.32,55.29z"/>
	<path d="M28.15,33.13c-0.31,0.27-0.71,0.46-1.2,0.52c-0.01,0.05-0.02,0.11-0.02,0.17c0,0.46,0.35,0.81,0.81,0.81
		c0.43,0,0.8-0.36,0.81-0.79C28.56,33.55,28.39,33.28,28.15,33.13z"/>
	<path d="M70.91,36.43c-0.01-0.44,0.36-0.81,0.8-0.82c0.44,0,0.82,0.37,0.81,0.81c-0.01,0.43-0.4,0.81-0.83,0.81
		C71.28,37.23,70.91,36.86,70.91,36.43z"/>
	<path d="M38.89,59.7c-0.01,0.42-0.37,0.79-0.79,0.8c-0.42,0-0.82-0.38-0.83-0.81c-0.01-0.43,0.38-0.81,0.82-0.81
		C38.54,58.89,38.9,59.26,38.89,59.7z"/>
	<path d="M45.83,63.08c-0.43,0-0.79-0.36-0.8-0.79c-0.01-0.44,0.41-0.85,0.84-0.83c0.42,0.02,0.78,0.39,0.77,0.81
		C46.65,62.73,46.28,63.09,45.83,63.08z"/>
	<path d="M54.41,62.27c0,0.45-0.36,0.81-0.81,0.81c-0.43,0-0.8-0.35-0.81-0.78c-0.01-0.44,0.39-0.85,0.83-0.84
		C54.04,61.48,54.4,61.85,54.41,62.27z"/>
	<path d="M62.16,59.68c0,0.43-0.36,0.8-0.78,0.8c-0.44,0-0.82-0.38-0.81-0.82c0.01-0.42,0.38-0.78,0.81-0.78
		C61.79,58.89,62.16,59.26,62.16,59.68z"/>
	<path d="M44.05,62.28c0.01,0.42-0.35,0.79-0.78,0.8c-0.42,0.01-0.8-0.35-0.81-0.77c-0.01-0.43,0.34-0.8,0.76-0.82
		C43.65,61.47,44.04,61.84,44.05,62.28z"/>
	<path d="M72.11,33.14c-0.23,0.12-0.49,0.2-0.79,0.24c-0.11,0.06-0.22,0.11-0.34,0.15c-0.04,0.09-0.06,0.18-0.06,0.27
		c-0.01,0.42,0.35,0.8,0.77,0.81c0.43,0.01,0.8-0.34,0.82-0.76C72.52,33.56,72.35,33.29,72.11,33.14z"/>
	<path d="M56.99,62.28c0,0.44-0.35,0.8-0.78,0.8c-0.43,0-0.79-0.36-0.8-0.79c-0.01-0.43,0.35-0.79,0.78-0.79
		C56.62,61.49,56.98,61.85,56.99,62.28z"/>
	<path d="M40.73,61.52c0.43,0.02,0.75,0.36,0.73,0.79c-0.02,0.42-0.38,0.76-0.79,0.75c-0.4-0.01-0.77-0.39-0.76-0.78
		C39.92,61.85,40.29,61.5,40.73,61.52z"/>
	<path d="M29.91,55.16c0.13,0.09,0.28,0.15,0.45,0.14c0.16,0,0.31-0.07,0.43-0.16C30.5,55.18,30.21,55.19,29.91,55.16z"/>
	<path d="M36.26,59.72c-0.01,0.43-0.36,0.75-0.79,0.74c-0.42-0.01-0.76-0.37-0.76-0.78c0.01-0.4,0.38-0.77,0.78-0.76
		C35.92,58.91,36.27,59.28,36.26,59.72z"/>
	<path d="M32.9,57.89c-0.43,0.01-0.77-0.32-0.77-0.75c0-0.44,0.36-0.8,0.78-0.8c0.4,0.01,0.77,0.38,0.77,0.78
		C33.67,57.54,33.32,57.89,32.9,57.89z"/>
	<path d="M51.02,14.94c0.41,0.01,0.76,0.38,0.75,0.79c-0.01,0.42-0.37,0.76-0.78,0.75c-0.4-0.01-0.75-0.35-0.75-0.75
		C50.23,15.3,50.6,14.94,51.02,14.94z"/>
	<path d="M49.21,15.72c-0.01,0.42-0.36,0.76-0.78,0.75c-0.41,0-0.77-0.37-0.76-0.78c0.01-0.42,0.37-0.76,0.78-0.76
		C48.86,14.94,49.22,15.31,49.21,15.72z"/>
	<path d="M59.57,62.28c0,0.43-0.37,0.79-0.8,0.77c-0.39-0.01-0.73-0.37-0.73-0.76c0-0.42,0.34-0.77,0.76-0.77
		C59.21,61.51,59.57,61.87,59.57,62.28z"/>
	<path d="M66.55,56.35c0.43,0.01,0.79,0.38,0.77,0.8c-0.02,0.39-0.37,0.73-0.77,0.73c-0.42,0-0.76-0.34-0.77-0.76
		C65.79,56.71,66.15,56.35,66.55,56.35z"/>
	<path d="M53.62,14.95c0.39,0.01,0.74,0.36,0.75,0.75c0,0.42-0.35,0.77-0.76,0.77c-0.42,0-0.76-0.35-0.76-0.77
		C52.84,15.3,53.21,14.94,53.62,14.95z"/>
	<path d="M46.61,15.7c0,0.42-0.35,0.78-0.76,0.78c-0.42,0-0.76-0.35-0.77-0.76c0-0.41,0.36-0.76,0.77-0.76
		C46.25,14.95,46.61,15.31,46.61,15.7z"/>
	<path d="M69.11,53.77c0.41-0.01,0.76,0.35,0.76,0.77c0,0.39-0.35,0.75-0.74,0.76c-0.41,0.01-0.78-0.34-0.78-0.75
		C68.35,54.12,68.69,53.77,69.11,53.77z"/>
	<path d="M64.72,59.67c0,0.42-0.34,0.77-0.76,0.77c-0.41,0.01-0.76-0.35-0.76-0.77c0-0.39,0.35-0.75,0.74-0.76
		C64.35,58.91,64.71,59.26,64.72,59.67z"/>
	<path d="M25.16,37.18c-0.42,0.01-0.77-0.33-0.78-0.75c-0.01-0.41,0.34-0.77,0.76-0.77c0.39,0,0.75,0.34,0.76,0.73
		C25.92,36.8,25.57,37.17,25.16,37.18z"/>
	<path d="M61.36,19.06c-0.41,0-0.75-0.33-0.76-0.73c-0.01-0.41,0.35-0.77,0.76-0.78c0.4-0.01,0.74,0.33,0.75,0.73
		C62.12,18.71,61.78,19.06,61.36,19.06z"/>
	<path d="M42.51,15.72c0-0.42,0.31-0.74,0.73-0.74c0.43,0,0.77,0.34,0.76,0.76c-0.01,0.39-0.38,0.74-0.76,0.73
		C42.84,16.46,42.52,16.13,42.51,15.72z"/>
	<path d="M38.83,62.27c0.01,0.42-0.3,0.74-0.72,0.75c-0.43,0.01-0.77-0.32-0.77-0.75c0-0.39,0.37-0.75,0.75-0.74
		C38.5,61.53,38.82,61.86,38.83,62.27z"/>
	<path d="M47.71,64.89c-0.01-0.42,0.3-0.74,0.72-0.75c0.43-0.01,0.77,0.33,0.77,0.75c0,0.39-0.37,0.75-0.75,0.74
		C48.04,65.63,47.71,65.3,47.71,64.89z"/>
	<path d="M50.27,64.86c0.01-0.42,0.33-0.73,0.75-0.72c0.41,0.01,0.74,0.33,0.74,0.74c0,0.38-0.36,0.75-0.74,0.75
		C50.6,65.64,50.26,65.29,50.27,64.86z"/>
	<path d="M25.37,33.83c-0.36,0-0.68-0.07-0.95-0.18c-0.02,0.06-0.03,0.11-0.02,0.17c0.01,0.41,0.34,0.73,0.75,0.73
		c0.42,0,0.74-0.31,0.74-0.73c0-0.02,0-0.03,0-0.05C25.71,33.81,25.55,33.83,25.37,33.83z"/>
	<path d="M74.33,39.75c-0.43,0.01-0.77-0.32-0.77-0.75c0-0.39,0.37-0.75,0.75-0.74c0.41,0,0.73,0.33,0.74,0.74
		C75.05,39.43,74.75,39.75,74.33,39.75z"/>
	<path d="M54.34,64.91c-0.01,0.41-0.36,0.74-0.76,0.71c-0.4-0.02-0.73-0.38-0.72-0.77c0.01-0.41,0.36-0.72,0.77-0.71
		C54.04,64.16,54.35,64.49,54.34,64.91z"/>
	<path d="M56.22,14.98c0.41,0.01,0.74,0.35,0.72,0.75c-0.02,0.4-0.37,0.74-0.76,0.73c-0.41-0.01-0.73-0.35-0.71-0.76
		C55.48,15.28,55.81,14.97,56.22,14.98z"/>
	<path d="M45.84,64.15c0.42,0,0.74,0.32,0.74,0.74c0,0.41-0.33,0.75-0.73,0.74c-0.4,0-0.74-0.35-0.75-0.75
		C45.1,64.48,45.43,64.14,45.84,64.15z"/>
	<path d="M75.04,36.42c0,0.41-0.33,0.75-0.74,0.74c-0.4,0-0.74-0.35-0.74-0.75c0-0.4,0.33-0.73,0.74-0.73
		C74.72,35.69,75.04,36.01,75.04,36.42z"/>
	<path d="M61.37,61.54c0.4,0,0.73,0.35,0.72,0.76c-0.01,0.4-0.33,0.71-0.73,0.71c-0.41,0-0.75-0.33-0.75-0.73
		C60.62,61.88,60.97,61.54,61.37,61.54z"/>
	<path d="M33.63,59.7c-0.01,0.4-0.36,0.74-0.76,0.72c-0.37-0.02-0.71-0.38-0.71-0.74c0.01-0.4,0.36-0.73,0.76-0.72
		C33.32,58.97,33.63,59.3,33.63,59.7z"/>
	<path d="M30.33,57.86c-0.37,0-0.73-0.36-0.73-0.73c0-0.4,0.35-0.74,0.76-0.73c0.38,0.01,0.69,0.32,0.7,0.7
		C31.07,57.51,30.74,57.86,30.33,57.86z"/>
	<path d="M43.99,64.9c-0.01,0.37-0.36,0.72-0.73,0.72c-0.4,0-0.74-0.35-0.73-0.75c0.01-0.39,0.33-0.71,0.72-0.71
		C43.65,64.15,43.99,64.5,43.99,64.9z"/>
	<path d="M74.3,34.55c-0.39-0.01-0.72-0.34-0.72-0.73c0-0.37,0.35-0.73,0.73-0.73c0.4,0,0.74,0.35,0.73,0.76
		C75.03,34.24,74.69,34.56,74.3,34.55z"/>
	<path d="M41.42,15.72c0,0.37-0.35,0.73-0.73,0.73c-0.4,0-0.74-0.35-0.73-0.76c0.01-0.38,0.32-0.7,0.7-0.71
		C41.07,14.97,41.42,15.31,41.42,15.72z"/>
	<path d="M35.21,18.98c0.2-0.41,0.51-0.76,0.93-0.98c-0.12-0.23-0.36-0.41-0.62-0.42c-0.4-0.02-0.75,0.32-0.76,0.72
		C34.76,18.6,34.95,18.87,35.21,18.98z"/>
	<path d="M56.93,64.88c-0.01,0.4-0.36,0.74-0.76,0.72c-0.38-0.01-0.7-0.36-0.69-0.75c0.01-0.39,0.35-0.71,0.74-0.7
		C56.6,64.16,56.93,64.5,56.93,64.88z"/>
	<path d="M58.81,14.99c0.39,0,0.72,0.33,0.71,0.72c0,0.39-0.34,0.73-0.71,0.73c-0.4,0-0.74-0.34-0.74-0.74
		C58.08,15.32,58.42,14.98,58.81,14.99z"/>
	<path d="M66.57,60.4c-0.4,0.01-0.73-0.31-0.73-0.71c0-0.38,0.31-0.71,0.68-0.72c0.38-0.02,0.73,0.31,0.75,0.7
		C67.29,60.04,66.96,60.39,66.57,60.4z"/>
	<path d="M69.83,57.13c0,0.38-0.35,0.71-0.74,0.7c-0.39-0.01-0.69-0.32-0.69-0.71c0-0.39,0.33-0.73,0.71-0.73
		C69.5,56.41,69.84,56.75,69.83,57.13z"/>
	<path d="M27.39,53.91c-0.21,0.12-0.37,0.34-0.37,0.6c-0.01,0.38,0.32,0.73,0.71,0.74c0.32,0.01,0.62-0.23,0.7-0.55
		C28.04,54.49,27.69,54.22,27.39,53.91z"/>
	<path d="M74.3,30.56c-0.07,0-0.13,0.01-0.19,0.03c-0.11,0.3-0.27,0.58-0.48,0.82c0.07,0.33,0.36,0.58,0.69,0.57
		c0.39-0.01,0.72-0.36,0.71-0.74C75.01,30.86,74.69,30.56,74.3,30.56z"/>
	<path d="M36.2,62.29C36.19,62.68,35.87,63,35.5,63c-0.39,0-0.72-0.34-0.72-0.73c0-0.39,0.34-0.7,0.75-0.69
		C35.92,61.59,36.2,61.89,36.2,62.29z"/>
	<path d="M41.39,64.88c0,0.4-0.28,0.69-0.68,0.7c-0.4,0.01-0.74-0.32-0.73-0.7c0.01-0.39,0.35-0.72,0.73-0.71
		C41.08,64.17,41.39,64.49,41.39,64.88z"/>
	<path d="M38.1,15c0.37,0,0.7,0.34,0.7,0.7c0,0.4-0.33,0.71-0.73,0.7c-0.39-0.01-0.68-0.32-0.67-0.71C37.41,15.31,37.72,15,38.1,15z
		"/>
	<path d="M71.11,54.17c-0.06,0.1-0.1,0.22-0.11,0.35c-0.01,0.38,0.34,0.73,0.72,0.72c0.19-0.01,0.36-0.09,0.48-0.22
		C71.73,54.85,71.36,54.55,71.11,54.17z"/>
	<path d="M59.51,64.89c-0.01,0.4-0.34,0.7-0.75,0.69c-0.39-0.02-0.67-0.34-0.66-0.73c0.02-0.39,0.34-0.69,0.72-0.68
		C59.19,64.18,59.52,64.52,59.51,64.89z"/>
	<path d="M63.96,62.99c-0.37,0.01-0.71-0.32-0.71-0.69c-0.01-0.39,0.32-0.72,0.72-0.72c0.38,0,0.67,0.29,0.69,0.66
		C64.67,62.65,64.36,62.98,63.96,62.99z"/>
	<path d="M49.14,13.16c0,0.38-0.32,0.69-0.71,0.68c-0.38-0.01-0.7-0.33-0.69-0.71c0-0.36,0.36-0.7,0.72-0.69
		C48.84,12.46,49.14,12.78,49.14,13.16z"/>
	<path d="M22.6,39.72c-0.38,0.01-0.7-0.31-0.71-0.69c-0.01-0.38,0.3-0.7,0.68-0.71c0.38-0.01,0.7,0.3,0.72,0.68
		C23.3,39.36,22.96,39.72,22.6,39.72z"/>
	<path d="M51.7,13.15c0,0.38-0.31,0.7-0.69,0.7c-0.38,0-0.7-0.31-0.71-0.69c-0.01-0.36,0.34-0.71,0.7-0.71
		C51.38,12.45,51.7,12.76,51.7,13.15z"/>
	<path d="M45.86,12.45c0.37,0.01,0.7,0.35,0.68,0.72c-0.01,0.38-0.35,0.69-0.73,0.67c-0.38-0.02-0.68-0.35-0.66-0.73
		C45.18,12.75,45.5,12.44,45.86,12.45z"/>
	<path d="M53.6,13.84c-0.38-0.01-0.69-0.33-0.68-0.71c0.01-0.36,0.32-0.67,0.68-0.68c0.37,0,0.7,0.33,0.71,0.7
		C54.3,13.53,53.98,13.85,53.6,13.84z"/>
	<path d="M61.35,15.02c0.37,0,0.7,0.33,0.71,0.7c0,0.36-0.3,0.68-0.67,0.69c-0.38,0.01-0.71-0.29-0.72-0.67
		C60.66,15.35,60.97,15.02,61.35,15.02z"/>
	<path d="M22.59,35.72c0.37,0.01,0.7,0.35,0.69,0.71c-0.01,0.38-0.34,0.69-0.72,0.67c-0.38-0.02-0.68-0.35-0.67-0.73
		C21.91,36.02,22.23,35.71,22.59,35.72z"/>
	<path d="M74.87,28.28c0,0.31-0.05,0.63-0.15,0.92c0.17-0.13,0.28-0.34,0.27-0.56C74.99,28.51,74.95,28.38,74.87,28.28z"/>
	<path d="M38.11,65.57c-0.38,0.01-0.7-0.32-0.7-0.69c0-0.36,0.31-0.67,0.67-0.68c0.36-0.01,0.69,0.29,0.7,0.65
		C38.8,65.22,38.48,65.56,38.11,65.57z"/>
	<path d="M30.33,60.37c-0.38-0.01-0.69-0.34-0.68-0.72c0.01-0.36,0.33-0.66,0.7-0.66c0.36,0,0.68,0.32,0.68,0.68
		C31.03,60.05,30.7,60.38,30.33,60.37z"/>
	<path d="M49.13,67.48c-0.01,0.36-0.32,0.67-0.68,0.67c-0.38,0-0.69-0.32-0.68-0.7c0.01-0.36,0.33-0.66,0.7-0.65
		C48.82,66.8,49.14,67.13,49.13,67.48z"/>
	<path d="M51.02,66.79c0.36,0.01,0.67,0.33,0.66,0.69c-0.01,0.36-0.32,0.67-0.68,0.67c-0.39,0-0.69-0.32-0.68-0.7
		C50.34,67.09,50.66,66.79,51.02,66.79z"/>
	<path d="M56.88,13.15c0.01,0.35-0.31,0.68-0.66,0.69c-0.36,0.01-0.68-0.3-0.69-0.66c-0.01-0.38,0.3-0.7,0.68-0.7
		C56.56,12.47,56.88,12.78,56.88,13.15z"/>
	<path d="M43.26,12.48c0.36,0,0.67,0.31,0.68,0.67c0.01,0.35-0.31,0.68-0.67,0.69c-0.36,0.01-0.68-0.3-0.69-0.66
		C42.56,12.79,42.87,12.48,43.26,12.48z"/>
	<path d="M76.98,38.34c-0.02,0-0.05-0.01-0.07-0.01c-0.24,0-0.45,0.14-0.57,0.33C76.54,38.54,76.76,38.43,76.98,38.34z"/>
	<path d="M28.42,57.14c-0.01,0.36-0.33,0.67-0.69,0.67c-0.36-0.01-0.67-0.32-0.67-0.68c0-0.38,0.32-0.69,0.7-0.68
		C28.12,56.46,28.43,56.78,28.42,57.14z"/>
	<path d="M22.58,34.5c-0.36,0-0.67-0.31-0.68-0.67c-0.01-0.35,0.31-0.68,0.66-0.69c0.36-0.01,0.68,0.3,0.69,0.66
		C23.27,34.18,22.96,34.5,22.58,34.5z"/>
	<path d="M62.02,64.87c0.01,0.36-0.29,0.68-0.66,0.69c-0.35,0.01-0.68-0.31-0.69-0.66c0-0.36,0.3-0.67,0.66-0.68
		C61.73,64.21,62.02,64.49,62.02,64.87z"/>
	<path d="M54.27,67.48c0,0.38-0.29,0.66-0.67,0.66c-0.36,0-0.67-0.31-0.67-0.67c0-0.36,0.32-0.67,0.68-0.67
		C53.96,66.8,54.27,67.12,54.27,67.48z"/>
	<path d="M33.56,62.28c0,0.38-0.28,0.66-0.67,0.66c-0.36,0-0.67-0.31-0.67-0.67c0-0.36,0.32-0.68,0.68-0.67
		C33.25,61.61,33.56,61.92,33.56,62.28z"/>
	<path d="M76.93,37.1c-0.36,0.01-0.68-0.3-0.69-0.66c-0.01-0.38,0.26-0.67,0.65-0.68c0.36-0.01,0.68,0.29,0.7,0.65
		C77.6,36.76,77.29,37.09,76.93,37.1z"/>
	<path d="M45.82,66.8c0.36-0.01,0.68,0.3,0.69,0.66c0.01,0.38-0.27,0.67-0.65,0.68c-0.36,0.01-0.68-0.29-0.69-0.65
		C45.16,67.14,45.47,66.81,45.82,66.8z"/>
	<path d="M36.17,15.71c0,0.35-0.32,0.67-0.67,0.68c-0.35,0-0.66-0.32-0.66-0.68c0.01-0.38,0.3-0.66,0.68-0.65
		C35.86,15.06,36.17,15.37,36.17,15.71z"/>
	<path d="M69.11,60.36c-0.35,0-0.67-0.33-0.67-0.68c0-0.35,0.33-0.66,0.69-0.65c0.38,0.01,0.65,0.3,0.64,0.69
		C69.76,60.06,69.45,60.36,69.11,60.36z"/>
	<path d="M22.47,30.63c0-0.01,0-0.01-0.01-0.02c-0.29,0.06-0.54,0.34-0.54,0.64c0,0.37,0.31,0.67,0.68,0.66c0.01,0,0.02,0,0.04,0
		C22.48,31.51,22.42,31.06,22.47,30.63z"/>
	<path d="M43.29,66.81c0.35,0.02,0.64,0.35,0.62,0.69c-0.02,0.37-0.35,0.65-0.72,0.62c-0.36-0.03-0.62-0.34-0.59-0.7
		C42.63,67.07,42.95,66.79,43.29,66.81z"/>
	<path d="M76.92,33.16c0.34,0,0.65,0.32,0.65,0.66c0,0.37-0.32,0.67-0.69,0.65c-0.36-0.01-0.64-0.31-0.62-0.67
		C76.26,33.45,76.57,33.15,76.92,33.16z"/>
	<path d="M72.37,57.13c0,0.34-0.32,0.66-0.66,0.65c-0.37,0-0.67-0.32-0.66-0.69c0.01-0.36,0.31-0.64,0.67-0.63
		C72.08,56.48,72.38,56.78,72.37,57.13z"/>
	<path d="M63.96,16.38c-0.37,0-0.67-0.32-0.66-0.69c0.01-0.36,0.31-0.64,0.67-0.63c0.36,0.01,0.65,0.31,0.65,0.67
		C64.62,16.07,64.3,16.38,63.96,16.38z"/>
	<path d="M25.15,55.18c-0.36,0-0.66-0.29-0.67-0.64c-0.01-0.35,0.32-0.69,0.67-0.68c0.35,0.01,0.64,0.31,0.65,0.67
		C25.8,54.9,25.52,55.18,25.15,55.18z"/>
	<path d="M41.35,13.15c0.01,0.34-0.3,0.66-0.65,0.67c-0.35,0.01-0.66-0.28-0.67-0.64c-0.02-0.37,0.26-0.66,0.62-0.68
		C41.03,12.48,41.35,12.78,41.35,13.15z"/>
	<path d="M67.21,62.28c0,0.37-0.28,0.65-0.64,0.66c-0.37,0-0.68-0.31-0.67-0.67c0.01-0.34,0.33-0.65,0.67-0.64
		C66.91,61.63,67.21,61.93,67.21,62.28z"/>
	<path d="M36.15,64.86c0.01,0.36-0.28,0.66-0.64,0.67c-0.35,0.01-0.66-0.28-0.67-0.63c-0.01-0.35,0.28-0.66,0.63-0.67
		C35.83,64.22,36.14,64.51,36.15,64.86z"/>
	<path d="M59.45,13.19c-0.03,0.36-0.34,0.64-0.69,0.61c-0.36-0.03-0.63-0.34-0.61-0.69c0.02-0.35,0.34-0.63,0.69-0.61
		C59.19,12.52,59.48,12.84,59.45,13.19z"/>
	<path d="M56.21,68.13c-0.35,0.01-0.66-0.29-0.67-0.64c-0.01-0.36,0.29-0.66,0.64-0.67c0.36,0,0.65,0.28,0.67,0.64
		C56.87,67.81,56.57,68.12,56.21,68.13z"/>
	<path d="M63.97,65.51c-0.37,0.01-0.66-0.27-0.66-0.63c0-0.33,0.29-0.63,0.63-0.64c0.35-0.02,0.64,0.27,0.65,0.64
		C64.59,65.23,64.33,65.5,63.97,65.51z"/>
	<path d="M77.53,31.24c0.01,0.37-0.27,0.67-0.62,0.66c-0.34,0-0.65-0.31-0.65-0.66c0-0.34,0.28-0.61,0.64-0.61
		C77.26,30.63,77.52,30.89,77.53,31.24z"/>
	<path d="M23,28.19c-0.12-0.11-0.27-0.17-0.43-0.17c-0.34,0-0.61,0.28-0.62,0.63c-0.01,0.32,0.2,0.57,0.5,0.62
		C22.54,28.88,22.73,28.5,23,28.19z"/>
	<path d="M38.08,13.78c-0.35,0-0.62-0.27-0.61-0.63c0-0.37,0.29-0.66,0.64-0.64c0.34,0.01,0.64,0.33,0.63,0.68
		C38.72,13.53,38.44,13.78,38.08,13.78z"/>
	<path d="M40.69,68.12c-0.34,0-0.65-0.32-0.64-0.66c0-0.34,0.28-0.61,0.64-0.61c0.37,0,0.64,0.27,0.63,0.65
		C41.31,67.85,41.03,68.12,40.69,68.12z"/>
	<path d="M69.21,17.7c-0.02,0-0.05-0.01-0.07-0.01c-0.27-0.01-0.49,0.14-0.59,0.36C68.76,17.93,68.98,17.81,69.21,17.7z"/>
	<path d="M32.9,15.08c0.33-0.01,0.64,0.3,0.64,0.63c0,0.35-0.28,0.63-0.63,0.63c-0.35,0-0.63-0.27-0.63-0.62
		C32.27,15.36,32.55,15.08,32.9,15.08z"/>
	<path d="M27.73,59.05c0.35,0,0.63,0.28,0.64,0.62c0,0.35-0.26,0.63-0.62,0.64c-0.35,0.01-0.63-0.26-0.64-0.61
		C27.09,59.37,27.4,59.05,27.73,59.05z"/>
	<path d="M58.82,68.11c-0.34,0.01-0.64-0.27-0.64-0.61c-0.01-0.35,0.26-0.63,0.61-0.65c0.35-0.01,0.64,0.25,0.65,0.61
		C59.45,67.78,59.15,68.1,58.82,68.11z"/>
	<path d="M20.57,39.2c0.02-0.05,0.03-0.11,0.03-0.16c0.01-0.35-0.26-0.63-0.61-0.64c-0.05,0-0.09,0-0.14,0.01
		C20.14,38.62,20.38,38.88,20.57,39.2z"/>
	<path d="M61.99,13.17c-0.01,0.33-0.32,0.62-0.65,0.6c-0.33-0.02-0.59-0.29-0.59-0.62c0-0.33,0.3-0.63,0.63-0.62
		C61.71,12.53,61.99,12.83,61.99,13.17z"/>
	<path d="M51.63,10.56c0,0.33-0.31,0.63-0.63,0.62c-0.34-0.01-0.62-0.31-0.61-0.65c0.01-0.32,0.3-0.6,0.62-0.6
		C51.35,9.93,51.63,10.21,51.63,10.56z"/>
	<path d="M30.96,62.29c-0.01,0.34-0.3,0.63-0.64,0.62c-0.33,0-0.62-0.31-0.61-0.65c0.01-0.35,0.3-0.61,0.65-0.6
		C30.69,61.68,30.97,61.97,30.96,62.29z"/>
	<path d="M48.45,9.94c0.35,0.01,0.62,0.29,0.61,0.64c-0.01,0.32-0.3,0.61-0.61,0.61c-0.34,0-0.63-0.29-0.63-0.63
		C47.82,10.23,48.12,9.93,48.45,9.94z"/>
	<path d="M54.22,10.55c0.01,0.34-0.28,0.63-0.62,0.63c-0.31,0-0.61-0.29-0.61-0.61c-0.01-0.33,0.25-0.61,0.59-0.63
		C53.91,9.92,54.21,10.2,54.22,10.55z"/>
	<path d="M25.15,57.74c-0.35,0-0.63-0.28-0.63-0.62c0-0.32,0.29-0.61,0.61-0.62c0.33,0,0.61,0.26,0.63,0.59
		C25.77,57.43,25.49,57.74,25.15,57.74z"/>
	<path d="M67.17,15.69c0.01,0.34-0.28,0.64-0.62,0.64c-0.33,0-0.6-0.27-0.61-0.6c-0.01-0.33,0.29-0.64,0.62-0.64
		C66.89,15.09,67.16,15.37,67.17,15.69z"/>
	<path d="M77.52,28.65c0.01,0.35-0.27,0.63-0.62,0.63c-0.32,0-0.6-0.28-0.61-0.6c-0.01-0.34,0.27-0.63,0.62-0.63
		C77.22,28.04,77.52,28.33,77.52,28.65z"/>
	<path d="M46.46,10.55c0.01,0.34-0.28,0.63-0.62,0.63c-0.31,0-0.61-0.3-0.61-0.61c0-0.33,0.26-0.61,0.59-0.63
		C46.16,9.92,46.46,10.2,46.46,10.55z"/>
	<path d="M38.11,66.86c0.33,0.01,0.62,0.31,0.6,0.65c-0.02,0.33-0.3,0.59-0.63,0.59c-0.31-0.01-0.6-0.3-0.6-0.62
		C37.48,67.13,37.76,66.85,38.11,66.86z"/>
	<path d="M19.99,35.8c0.31,0,0.61,0.3,0.61,0.61c0,0.35-0.28,0.63-0.63,0.63c-0.34,0-0.62-0.31-0.61-0.65
		C19.38,36.06,19.66,35.79,19.99,35.8z"/>
	<path d="M69.1,61.67c0.33,0,0.61,0.27,0.62,0.59c0.01,0.35-0.26,0.63-0.62,0.63c-0.32,0-0.6-0.28-0.6-0.61
		C68.5,61.95,68.77,61.67,69.1,61.67z"/>
	<path d="M72.32,59.69c0,0.33-0.27,0.61-0.6,0.61c-0.33,0-0.61-0.27-0.62-0.59c-0.01-0.35,0.27-0.63,0.62-0.62
		C72.05,59.08,72.32,59.36,72.32,59.69z"/>
	<path d="M32.9,64.27c0.35,0.01,0.62,0.29,0.6,0.64c-0.01,0.32-0.31,0.59-0.63,0.58c-0.33-0.01-0.6-0.3-0.58-0.62
		C32.3,64.54,32.58,64.27,32.9,64.27z"/>
	<path d="M43.86,10.55c0,0.33-0.28,0.6-0.6,0.61c-0.35,0-0.62-0.28-0.61-0.63c0.01-0.32,0.29-0.59,0.62-0.59
		C43.59,9.95,43.87,10.23,43.86,10.55z"/>
	<path d="M19.98,33.21c0.33,0,0.61,0.27,0.61,0.6c0.01,0.33-0.27,0.61-0.59,0.62c-0.35,0.01-0.63-0.26-0.63-0.61
		C19.38,33.49,19.66,33.21,19.98,33.21z"/>
	<path d="M61.33,66.87c0.33-0.01,0.62,0.26,0.63,0.58c0.01,0.35-0.25,0.63-0.6,0.64c-0.32,0-0.6-0.27-0.61-0.6
		C60.74,67.16,61.01,66.88,61.33,66.87z"/>
	<path d="M67.14,64.9c-0.01,0.32-0.27,0.59-0.58,0.59c-0.33,0-0.63-0.31-0.62-0.64c0.02-0.31,0.29-0.56,0.61-0.56
		C66.91,64.29,67.15,64.54,67.14,64.9z"/>
	<path d="M56.81,10.56c0,0.31-0.26,0.58-0.58,0.59c-0.35,0.01-0.61-0.22-0.62-0.58c-0.01-0.34,0.26-0.62,0.58-0.62
		C56.51,9.95,56.8,10.24,56.81,10.56z"/>
	<path d="M73.7,57.13c-0.01-0.31,0.25-0.58,0.57-0.6c0.36-0.02,0.61,0.22,0.63,0.57c0.01,0.34-0.25,0.62-0.57,0.63
		C74.01,57.74,73.71,57.45,73.7,57.13z"/>
	<path d="M36.1,13.15c0,0.32-0.29,0.61-0.61,0.61c-0.33,0-0.59-0.28-0.59-0.62c0.01-0.35,0.26-0.59,0.61-0.58
		C35.84,12.57,36.1,12.84,36.1,13.15z"/>
	<path d="M22.59,26.66c-0.34,0.01-0.62-0.26-0.62-0.59c0-0.32,0.29-0.61,0.61-0.61c0.31,0,0.58,0.26,0.59,0.58
		C23.18,26.4,22.95,26.65,22.59,26.66z"/>
	<path d="M79.48,35.83c0.32,0,0.59,0.26,0.6,0.57c0.01,0.33-0.3,0.64-0.63,0.62c-0.31-0.01-0.56-0.28-0.56-0.6
		C78.88,36.07,79.12,35.82,79.48,35.83z"/>
	<path d="M45.24,70.04c0-0.32,0.29-0.61,0.61-0.61c0.33,0,0.59,0.28,0.59,0.61c-0.01,0.34-0.24,0.57-0.58,0.58
		C45.53,70.64,45.24,70.37,45.24,70.04z"/>
	<path d="M48.43,69.43c0.32-0.01,0.61,0.28,0.62,0.6c0.01,0.33-0.27,0.6-0.61,0.6c-0.34,0-0.58-0.23-0.59-0.57
		C47.84,69.72,48.1,69.44,48.43,69.43z"/>
	<path d="M51,70.63c-0.35,0-0.59-0.25-0.59-0.61c0.01-0.32,0.27-0.59,0.58-0.59c0.32,0,0.61,0.28,0.62,0.6
		C51.62,70.36,51.34,70.63,51,70.63z"/>
	<path d="M54.19,70.03c0.01,0.32-0.24,0.59-0.56,0.6C53.29,70.64,53,70.37,53,70.05c0-0.32,0.29-0.61,0.61-0.61
		C53.92,69.44,54.18,69.7,54.19,70.03z"/>
	<path d="M22.43,55.09c0.05,0.01,0.11,0.02,0.17,0.02c0.23-0.01,0.43-0.15,0.52-0.35C22.9,54.89,22.67,55.01,22.43,55.09z"/>
	<path d="M63.95,12.57c0.32,0,0.59,0.25,0.6,0.56c0.01,0.31-0.28,0.61-0.59,0.62c-0.32,0.01-0.6-0.27-0.59-0.61
		C63.37,12.82,63.63,12.57,63.95,12.57z"/>
	<path d="M43.26,69.45c0.3,0,0.58,0.29,0.58,0.59c0,0.33-0.28,0.6-0.61,0.59c-0.32-0.01-0.57-0.28-0.56-0.6
		C42.68,69.7,42.94,69.45,43.26,69.45z"/>
	<path d="M41.28,10.56c0,0.32-0.26,0.57-0.58,0.58c-0.33,0.01-0.6-0.27-0.59-0.6c0.01-0.32,0.28-0.57,0.59-0.57
		C41,9.97,41.28,10.26,41.28,10.56z"/>
	<path d="M25.15,21.5c-0.3,0.01-0.59-0.27-0.6-0.57c-0.01-0.32,0.24-0.58,0.56-0.6c0.33-0.02,0.61,0.25,0.61,0.58
		C25.72,21.23,25.47,21.49,25.15,21.5z"/>
	<path d="M19.99,31.84c-0.32,0.01-0.58-0.25-0.59-0.57c-0.01-0.34,0.26-0.61,0.6-0.6c0.3,0.01,0.58,0.29,0.58,0.59
		C20.57,31.58,20.31,31.84,19.99,31.84z"/>
	<path d="M30.92,15.72c0,0.32-0.26,0.58-0.58,0.59c-0.32,0.01-0.61-0.3-0.6-0.61c0.01-0.32,0.28-0.57,0.6-0.56
		C30.66,15.13,30.92,15.4,30.92,15.72z"/>
	<path d="M80.06,33.81c0,0.32-0.25,0.58-0.57,0.59c-0.32,0.01-0.59-0.24-0.6-0.56c-0.01-0.34,0.25-0.61,0.58-0.62
		C79.77,33.23,80.05,33.51,80.06,33.81z"/>
	<path d="M59.38,10.54c0,0.31-0.26,0.58-0.57,0.59c-0.31,0.01-0.58-0.25-0.59-0.57c-0.01-0.31,0.26-0.58,0.57-0.59
		C59.1,9.97,59.37,10.23,59.38,10.54z"/>
	<path d="M56.78,70.02c0.01,0.31-0.25,0.59-0.56,0.59c-0.31,0.01-0.58-0.25-0.59-0.56c-0.01-0.31,0.25-0.59,0.56-0.59
		C56.5,69.45,56.77,69.71,56.78,70.02z"/>
	<path d="M35.51,66.9c0.31,0.01,0.57,0.28,0.57,0.59c-0.01,0.31-0.28,0.57-0.59,0.56c-0.31-0.01-0.57-0.28-0.56-0.59
		C34.92,67.15,35.2,66.89,35.51,66.9z"/>
	<path d="M76.92,26.64c-0.31,0.01-0.58-0.25-0.59-0.56c-0.01-0.31,0.25-0.59,0.56-0.59c0.31-0.01,0.58,0.25,0.59,0.57
		C77.5,26.36,77.24,26.64,76.92,26.64z"/>
	<path d="M63.97,68.05c-0.31,0.01-0.59-0.27-0.59-0.58c0-0.29,0.26-0.55,0.56-0.56c0.31-0.01,0.57,0.23,0.58,0.54
		C64.54,67.76,64.27,68.04,63.97,68.05z"/>
	<path d="M77,53.97c-0.19,0.16-0.38,0.32-0.6,0.46c-0.02,0.01-0.04,0.03-0.06,0.04c0,0.03-0.01,0.05,0,0.08
		c0.02,0.3,0.28,0.55,0.58,0.55c0.31,0,0.57-0.28,0.56-0.6C77.47,54.23,77.26,54.01,77,53.97z"/>
	<path d="M25.72,59.7c-0.01,0.31-0.29,0.57-0.61,0.55c-0.31-0.01-0.54-0.28-0.53-0.58c0.01-0.3,0.27-0.56,0.57-0.56
		C25.45,59.11,25.72,59.39,25.72,59.7z"/>
	<path d="M28.31,62.29c-0.01,0.32-0.29,0.58-0.6,0.56c-0.3-0.02-0.55-0.28-0.55-0.58c0-0.31,0.29-0.57,0.6-0.56
		C28.07,61.73,28.32,61.98,28.31,62.29z"/>
	<path d="M69.69,15.71c0,0.31-0.27,0.58-0.59,0.57c-0.31,0-0.55-0.25-0.55-0.56c0-0.3,0.25-0.57,0.55-0.58
		C69.4,15.13,69.68,15.4,69.69,15.71z"/>
	<path d="M41.24,70.03c0,0.31-0.24,0.57-0.55,0.57c-0.3,0.01-0.57-0.26-0.57-0.55c0-0.3,0.25-0.56,0.56-0.57
		C41,69.48,41.24,69.71,41.24,70.03z"/>
	<path d="M79.47,30.71c0.32,0,0.55,0.24,0.55,0.56c0,0.3-0.26,0.56-0.56,0.56c-0.3,0-0.56-0.27-0.56-0.57
		C78.91,30.96,79.16,30.71,79.47,30.71z"/>
	<path d="M23.15,23.47c-0.01,0.3-0.27,0.55-0.57,0.55c-0.32,0-0.55-0.24-0.55-0.56c0-0.3,0.26-0.56,0.57-0.56
		C22.89,22.9,23.15,23.18,23.15,23.47z"/>
	<path d="M30.34,64.31c0.3,0,0.56,0.27,0.56,0.56c0,0.3-0.26,0.56-0.57,0.55c-0.32,0-0.55-0.24-0.55-0.56
		C29.79,64.57,30.04,64.31,30.34,64.31z"/>
	<path d="M38.66,10.56c0,0.3-0.27,0.56-0.57,0.56c-0.3,0-0.55-0.26-0.55-0.57c0-0.32,0.24-0.55,0.56-0.55
		C38.4,10,38.66,10.26,38.66,10.56z"/>
	<path d="M20.54,28.65c0,0.32-0.23,0.56-0.55,0.56c-0.31,0-0.56-0.24-0.57-0.55c-0.01-0.3,0.26-0.57,0.55-0.57
		C20.27,28.09,20.53,28.35,20.54,28.65z"/>
	<path d="M59.36,70.04c0.01,0.3-0.26,0.57-0.56,0.57c-0.3,0-0.56-0.25-0.56-0.56c0-0.32,0.23-0.56,0.55-0.56
		C59.1,69.48,59.36,69.73,59.36,70.04z"/>
	<path d="M33.46,13.15c0,0.3-0.26,0.55-0.57,0.55c-0.32,0-0.55-0.24-0.55-0.56c0-0.3,0.26-0.56,0.56-0.56
		C33.2,12.59,33.47,12.85,33.46,13.15z"/>
	<path d="M72.26,62.3c-0.01,0.3-0.28,0.56-0.57,0.54c-0.31-0.02-0.55-0.28-0.53-0.59c0.02-0.29,0.27-0.52,0.56-0.52
		C72.03,61.74,72.27,61.98,72.26,62.3z"/>
	<path d="M61.37,10.01c0.3,0,0.56,0.27,0.55,0.57c-0.01,0.31-0.28,0.55-0.58,0.54c-0.29-0.01-0.52-0.26-0.52-0.56
		C60.81,10.24,61.05,10,61.37,10.01z"/>
	<path d="M48.44,8.5c-0.29,0-0.54-0.25-0.55-0.53c0-0.29,0.26-0.56,0.55-0.56c0.29,0,0.55,0.27,0.54,0.57
		C48.98,8.26,48.72,8.51,48.44,8.5z"/>
	<path d="M66.54,12.6c0.29,0,0.56,0.26,0.57,0.55c0,0.28-0.25,0.53-0.53,0.54c-0.3,0.01-0.57-0.25-0.56-0.55
		C66.01,12.86,66.26,12.6,66.54,12.6z"/>
	<path d="M74.32,60.23c-0.28,0.01-0.54-0.24-0.55-0.52c-0.01-0.3,0.24-0.58,0.54-0.57c0.3,0,0.56,0.27,0.56,0.56
		C74.86,59.97,74.61,60.22,74.32,60.23z"/>
	<path d="M69.67,64.88c0,0.28-0.25,0.53-0.53,0.54c-0.3,0.01-0.57-0.25-0.56-0.55c0-0.29,0.25-0.54,0.53-0.55
		C69.39,64.32,69.66,64.59,69.67,64.88z"/>
	<path d="M23.13,57.12c0.01,0.28-0.24,0.53-0.53,0.55c-0.3,0.01-0.57-0.25-0.57-0.54c0-0.29,0.25-0.54,0.52-0.55
		C22.86,56.57,23.13,56.83,23.13,57.12z"/>
	<path d="M51.55,7.95c0.01,0.28-0.24,0.54-0.52,0.55c-0.3,0.01-0.57-0.25-0.57-0.54c0-0.3,0.27-0.56,0.56-0.55
		C51.3,7.41,51.54,7.66,51.55,7.95z"/>
	<path d="M80.01,28.66c0,0.28-0.25,0.54-0.53,0.54c-0.29,0.01-0.54-0.23-0.55-0.52c-0.01-0.29,0.25-0.57,0.54-0.56
		C79.76,28.13,80,28.37,80.01,28.66z"/>
	<path d="M77.01,22.94c0,0.36-0.07,0.72-0.2,1.05c0.02,0,0.04,0.01,0.06,0.01c0.28,0.02,0.55-0.21,0.57-0.49
		C77.47,23.24,77.27,23,77.01,22.94z"/>
	<path d="M17.41,35.88c0.28,0.01,0.53,0.27,0.52,0.55c-0.01,0.3-0.28,0.55-0.58,0.53c-0.28-0.02-0.52-0.29-0.5-0.57
		C16.87,36.1,17.12,35.87,17.41,35.88z"/>
	<path d="M32.89,66.94c0.29-0.01,0.54,0.23,0.55,0.52c0.01,0.29-0.25,0.57-0.55,0.56c-0.29,0-0.53-0.25-0.53-0.54
		C32.35,67.2,32.6,66.94,32.89,66.94z"/>
	<path d="M54.14,7.96c0,0.29-0.25,0.53-0.54,0.53c-0.28,0-0.54-0.25-0.54-0.53c-0.01-0.3,0.25-0.56,0.55-0.55
		C53.89,7.42,54.15,7.68,54.14,7.96z"/>
	<path d="M46.39,7.94c0.01,0.29-0.23,0.54-0.52,0.55c-0.28,0.02-0.55-0.22-0.56-0.51c-0.02-0.3,0.23-0.57,0.53-0.57
		C46.12,7.41,46.38,7.67,46.39,7.94z"/>
	<path d="M38.09,69.5c0.29,0,0.54,0.24,0.54,0.52c0.01,0.29-0.26,0.56-0.55,0.55c-0.29-0.01-0.53-0.25-0.53-0.54
		C37.55,69.75,37.81,69.5,38.09,69.5z"/>
	<path d="M19.97,26.59c-0.28-0.01-0.5-0.23-0.51-0.51c0-0.3,0.23-0.54,0.52-0.54c0.28,0,0.54,0.26,0.53,0.54
		C20.52,26.36,20.27,26.59,19.97,26.59z"/>
	<path d="M25.16,17.78c0.29,0.01,0.52,0.26,0.51,0.56c-0.01,0.28-0.24,0.5-0.52,0.5c-0.3,0-0.54-0.24-0.53-0.53
		C24.62,18.02,24.88,17.77,25.16,17.78z"/>
	<path d="M28.27,15.69c0.01,0.28-0.24,0.54-0.53,0.55c-0.29,0.01-0.53-0.23-0.53-0.53c0-0.28,0.22-0.51,0.5-0.52
		C28.01,15.18,28.27,15.41,28.27,15.69z"/>
	<path d="M66.57,68c-0.3,0.01-0.55-0.23-0.55-0.51c0-0.28,0.25-0.54,0.53-0.54c0.29,0,0.52,0.24,0.52,0.54
		C67.07,67.77,66.85,67.99,66.57,68z"/>
	<path d="M35.49,11.08c-0.28,0-0.51-0.22-0.52-0.5c-0.01-0.3,0.22-0.55,0.51-0.56c0.28-0.01,0.54,0.24,0.55,0.53
		C36.03,10.84,35.79,11.08,35.49,11.08z"/>
	<path d="M43.23,7.43c0.3-0.01,0.55,0.23,0.55,0.51c0,0.28-0.25,0.54-0.53,0.54c-0.29,0-0.52-0.24-0.52-0.54
		C42.73,7.67,42.95,7.44,43.23,7.43z"/>
	<path d="M17.91,33.83c0,0.28-0.23,0.51-0.51,0.52c-0.3,0.01-0.55-0.23-0.55-0.51c0-0.28,0.25-0.54,0.53-0.54
		C17.68,33.28,17.91,33.53,17.91,33.83z"/>
	<path d="M61.37,69.51c0.29,0,0.52,0.25,0.51,0.55c-0.01,0.28-0.23,0.5-0.51,0.51c-0.3,0-0.54-0.23-0.54-0.52
		C60.83,69.76,61.09,69.5,61.37,69.51z"/>
	<path d="M76.91,56.6c0.3,0,0.54,0.25,0.53,0.53c-0.01,0.28-0.27,0.53-0.55,0.52c-0.29-0.01-0.51-0.26-0.5-0.56
		C76.4,56.81,76.63,56.6,76.91,56.6z"/>
	<path d="M82.05,38.49c0.27-0.01,0.51,0.22,0.52,0.49c0.02,0.3-0.2,0.54-0.5,0.54c-0.28,0-0.52-0.21-0.53-0.49
		C81.52,38.77,81.77,38.5,82.05,38.49z"/>
	<path d="M19.48,54.59c0.03,0.27,0.24,0.45,0.52,0.45c0.07,0,0.13-0.02,0.19-0.04C19.91,54.88,19.68,54.75,19.48,54.59z"/>
	<path d="M56.21,8.48c-0.27,0.01-0.51-0.22-0.52-0.49c-0.02-0.3,0.2-0.54,0.5-0.54c0.28,0,0.52,0.21,0.54,0.48
		C56.74,8.21,56.5,8.47,56.21,8.48z"/>
	<path d="M51.53,72.62c0,0.28-0.25,0.54-0.53,0.54c-0.27,0-0.5-0.23-0.51-0.51c-0.01-0.29,0.2-0.51,0.48-0.53
		C51.27,72.11,51.53,72.34,51.53,72.62z"/>
	<path d="M48.97,72.65c-0.02,0.28-0.28,0.52-0.56,0.5c-0.27-0.02-0.48-0.26-0.48-0.54c0.01-0.3,0.25-0.52,0.55-0.49
		C48.76,72.14,48.98,72.39,48.97,72.65z"/>
	<path d="M63.94,11.07c-0.29-0.01-0.5-0.23-0.49-0.52c0-0.29,0.25-0.54,0.54-0.52c0.27,0.02,0.5,0.26,0.5,0.53
		C64.48,10.84,64.23,11.08,63.94,11.07z"/>
	<path d="M30.84,13.15c0,0.27-0.23,0.51-0.5,0.52c-0.27,0.01-0.52-0.24-0.52-0.51c0-0.27,0.24-0.51,0.51-0.52
		C30.61,12.64,30.84,12.87,30.84,13.15z"/>
	<path d="M82.07,36.93c-0.27,0.01-0.52-0.23-0.52-0.5c0-0.27,0.23-0.52,0.5-0.52c0.28,0,0.51,0.22,0.52,0.5
		C82.58,36.68,82.34,36.93,82.07,36.93z"/>
	<path d="M46.36,72.65c-0.01,0.27-0.25,0.51-0.52,0.5c-0.27,0-0.51-0.26-0.5-0.52c0.01-0.27,0.26-0.51,0.53-0.5
		C46.14,72.13,46.36,72.37,46.36,72.65z"/>
	<path d="M25.65,62.28c0,0.28-0.23,0.51-0.51,0.51c-0.27,0-0.51-0.24-0.51-0.51c0-0.27,0.24-0.51,0.51-0.51
		C25.41,61.77,25.65,62.01,25.65,62.28z"/>
	<path d="M27.74,64.37c0.27,0,0.51,0.24,0.51,0.51c0,0.27-0.24,0.51-0.51,0.51c-0.27,0-0.51-0.24-0.51-0.51
		C27.23,64.6,27.46,64.37,27.74,64.37z"/>
	<path d="M22.57,21.42c-0.27,0-0.51-0.25-0.51-0.52c0.01-0.27,0.25-0.51,0.52-0.51c0.28,0,0.51,0.23,0.5,0.52
		C23.09,21.19,22.84,21.42,22.57,21.42z"/>
	<path d="M71.72,15.21c0.27,0,0.51,0.24,0.51,0.52c0,0.27-0.25,0.51-0.52,0.51c-0.27-0.01-0.51-0.25-0.51-0.52
		C71.21,15.43,71.44,15.2,71.72,15.21z"/>
	<path d="M53.6,73.15c-0.27,0-0.51-0.25-0.51-0.52c0.01-0.27,0.25-0.51,0.52-0.51c0.28,0,0.51,0.23,0.51,0.51
		C54.11,72.91,53.87,73.15,53.6,73.15z"/>
	<path d="M22.58,60.19c-0.28,0-0.51-0.23-0.5-0.51c0-0.27,0.25-0.51,0.52-0.5c0.26,0.01,0.48,0.23,0.49,0.49
		C23.09,59.95,22.85,60.19,22.58,60.19z"/>
	<path d="M82.07,33.32c0.27,0,0.51,0.25,0.5,0.52c-0.01,0.28-0.26,0.5-0.53,0.49c-0.26-0.01-0.48-0.25-0.48-0.5
		C81.56,33.54,81.79,33.31,82.07,33.32z"/>
	<path d="M41.19,7.97c-0.01,0.28-0.24,0.5-0.52,0.49c-0.27-0.01-0.5-0.27-0.48-0.53c0.02-0.26,0.24-0.47,0.51-0.47
		C40.96,7.45,41.2,7.7,41.19,7.97z"/>
	<path d="M36,70.05c-0.01,0.27-0.26,0.5-0.53,0.49c-0.28-0.02-0.5-0.26-0.48-0.54c0.02-0.26,0.25-0.48,0.51-0.47
		C35.78,69.54,36.01,69.77,36,70.05z"/>
	<path d="M17.38,30.76c0.27,0,0.51,0.24,0.51,0.51c0,0.28-0.24,0.51-0.52,0.5c-0.26-0.01-0.49-0.23-0.49-0.49
		C16.87,30.99,17.1,30.76,17.38,30.76z"/>
	<path d="M69.62,13.17c-0.01,0.27-0.26,0.5-0.53,0.49c-0.28-0.02-0.5-0.26-0.48-0.54c0.02-0.26,0.26-0.48,0.51-0.47
		C69.4,12.65,69.63,12.89,69.62,13.17z"/>
	<path d="M43.25,73.14c-0.27,0-0.51-0.24-0.51-0.51c0.01-0.28,0.24-0.5,0.52-0.5c0.26,0.01,0.48,0.24,0.49,0.49
		C43.76,72.9,43.53,73.14,43.25,73.14z"/>
	<path d="M79.97,26.06c0,0.27-0.24,0.51-0.51,0.51c-0.28-0.01-0.5-0.24-0.5-0.52c0.01-0.26,0.24-0.48,0.49-0.49
		C79.74,25.55,79.97,25.78,79.97,26.06z"/>
	<path d="M79.51,54.04c-0.01,0-0.01,0-0.02,0c-0.28-0.01-0.52,0.22-0.52,0.5c0,0.25,0.24,0.49,0.49,0.49c0.25,0,0.47-0.21,0.49-0.46
		C79.78,54.41,79.63,54.23,79.51,54.04z"/>
	<path d="M59.29,7.95c0,0.26-0.22,0.49-0.48,0.5c-0.28,0.01-0.51-0.22-0.51-0.5c0.01-0.26,0.23-0.48,0.49-0.48
		C59.05,7.46,59.29,7.7,59.29,7.95z"/>
	<path d="M71.72,64.38c0.26,0.01,0.48,0.23,0.48,0.5c0,0.28-0.24,0.51-0.52,0.49c-0.26-0.01-0.48-0.25-0.47-0.51
		C71.23,64.61,71.47,64.38,71.72,64.38z"/>
	<path d="M30.83,67.49c-0.01,0.25-0.25,0.49-0.5,0.48c-0.26,0-0.49-0.23-0.49-0.49c0-0.28,0.23-0.51,0.51-0.5
		C30.62,67,30.84,67.23,30.83,67.49z"/>
	<path d="M74.3,62.78c-0.26-0.01-0.48-0.23-0.49-0.49c0-0.28,0.23-0.51,0.52-0.49c0.26,0.01,0.48,0.25,0.47,0.51
		C74.8,62.55,74.55,62.78,74.3,62.78z"/>
	<path d="M63.95,70.53c-0.25,0-0.49-0.24-0.49-0.49c0-0.26,0.22-0.49,0.48-0.5c0.28-0.01,0.51,0.22,0.51,0.5
		C64.44,70.31,64.21,70.53,63.95,70.53z"/>
	<path d="M56.18,72.14c0.26-0.01,0.49,0.21,0.51,0.47c0.01,0.27-0.19,0.5-0.45,0.52c-0.28,0.02-0.52-0.21-0.53-0.48
		C55.7,72.4,55.93,72.15,56.18,72.14z"/>
	<path d="M20.46,23.48c-0.01,0.27-0.23,0.48-0.5,0.47c-0.26-0.01-0.46-0.22-0.46-0.47c0-0.26,0.23-0.49,0.49-0.49
		C20.25,22.98,20.47,23.21,20.46,23.48z"/>
	<path d="M32.91,10.08c0.26,0.01,0.46,0.21,0.47,0.46c0,0.27-0.25,0.52-0.52,0.5c-0.25-0.02-0.45-0.23-0.44-0.49
		C32.43,10.28,32.64,10.07,32.91,10.08z"/>
	<path d="M82.07,30.78c0.27,0,0.49,0.22,0.48,0.48c-0.01,0.26-0.25,0.48-0.51,0.48c-0.25-0.01-0.45-0.22-0.46-0.47
		C81.59,31,81.8,30.79,82.07,30.78z"/>
	<path d="M41.17,72.64c-0.01,0.27-0.22,0.48-0.49,0.47c-0.26-0.01-0.46-0.21-0.47-0.46c0-0.26,0.23-0.49,0.48-0.5
		C40.95,72.14,41.17,72.37,41.17,72.64z"/>
	<path d="M20.45,57.11c0.01,0.25-0.19,0.47-0.44,0.48c-0.27,0.01-0.5-0.2-0.5-0.46c0-0.26,0.23-0.49,0.49-0.49
		C20.24,56.65,20.45,56.86,20.45,57.11z"/>
	<path d="M66.57,10.08c0.26,0.01,0.47,0.22,0.46,0.47c0,0.26-0.24,0.49-0.49,0.48c-0.26,0-0.47-0.24-0.46-0.51
		C66.1,10.27,66.32,10.07,66.57,10.08z"/>
	<path d="M38.08,7.48c0.26-0.01,0.49,0.22,0.5,0.48c0,0.25-0.2,0.46-0.46,0.47c-0.27,0.01-0.49-0.21-0.49-0.47
		C37.62,7.7,37.83,7.48,38.08,7.48z"/>
	<path d="M69.59,67.46c0.01,0.26-0.22,0.49-0.48,0.5c-0.25,0.01-0.46-0.2-0.47-0.46c-0.01-0.27,0.2-0.49,0.47-0.49
		C69.37,67.01,69.59,67.21,69.59,67.46z"/>
	<path d="M17.87,28.67c0,0.25-0.21,0.46-0.46,0.46c-0.27,0.01-0.49-0.21-0.48-0.48c0.01-0.26,0.21-0.47,0.46-0.47
		C17.63,28.18,17.86,28.41,17.87,28.67z"/>
	<path d="M76.9,59.21c0.24-0.01,0.46,0.19,0.48,0.45c0.02,0.27-0.19,0.5-0.46,0.5c-0.26,0-0.47-0.2-0.49-0.44
		C76.42,59.46,76.64,59.22,76.9,59.21z"/>
	<path d="M59.28,72.63c0.01,0.25-0.2,0.46-0.46,0.47c-0.27,0.01-0.49-0.2-0.49-0.47c0-0.26,0.2-0.47,0.45-0.48
		C59.03,72.15,59.27,72.37,59.28,72.63z"/>
	<path d="M61.83,7.95c0,0.24-0.22,0.47-0.46,0.47c-0.24,0-0.47-0.22-0.47-0.46c0-0.24,0.22-0.47,0.46-0.47
		C61.6,7.48,61.83,7.7,61.83,7.95z"/>
	<path d="M25.16,15.24c0.24,0.01,0.46,0.24,0.45,0.48c-0.01,0.25-0.24,0.46-0.48,0.45c-0.24-0.01-0.46-0.24-0.45-0.48
		C24.69,15.46,24.92,15.24,25.16,15.24z"/>
	<path d="M33.36,70.03c0.01,0.24-0.21,0.47-0.46,0.47c-0.24,0-0.47-0.22-0.47-0.46c0-0.24,0.21-0.47,0.46-0.47
		C33.13,69.57,33.36,69.79,33.36,70.03z"/>
	<path d="M79.44,23c0.24-0.01,0.48,0.2,0.49,0.44c0.01,0.24-0.2,0.47-0.44,0.49c-0.24,0.01-0.47-0.2-0.49-0.44
		C78.99,23.25,79.2,23.01,79.44,23z"/>
	<path d="M82.07,28.21c0.25,0,0.44,0.19,0.44,0.44c0,0.26-0.21,0.48-0.46,0.47c-0.23-0.01-0.44-0.21-0.45-0.44
		C81.6,28.43,81.81,28.21,82.07,28.21z"/>
	<path d="M23.03,18.31c0,0.25-0.18,0.44-0.43,0.45c-0.26,0.01-0.48-0.2-0.48-0.45c0-0.23,0.2-0.44,0.44-0.46
		C22.81,17.84,23.03,18.05,23.03,18.31z"/>
	<path d="M48,5.38c0.01-0.25,0.2-0.43,0.45-0.43c0.26,0,0.47,0.22,0.46,0.47c-0.01,0.24-0.22,0.44-0.45,0.44
		C48.2,5.86,47.99,5.63,48,5.38z"/>
	<path d="M50.56,5.39c0-0.25,0.18-0.44,0.43-0.45c0.26-0.01,0.48,0.21,0.48,0.45c0,0.23-0.21,0.44-0.44,0.45
		C50.78,5.87,50.56,5.65,50.56,5.39z"/>
	<path d="M14.55,39.37c0.17-0.24,0.36-0.47,0.59-0.67c-0.08-0.08-0.19-0.14-0.31-0.14c-0.23,0-0.44,0.2-0.46,0.44
		C14.36,39.14,14.44,39.28,14.55,39.37z"/>
	<path d="M27.29,13.16c-0.01-0.25,0.17-0.45,0.42-0.46c0.26-0.01,0.48,0.19,0.49,0.44c0,0.23-0.2,0.45-0.43,0.46
		C27.52,13.63,27.3,13.42,27.29,13.16z"/>
	<path d="M38.54,72.61c0.01,0.26-0.2,0.48-0.45,0.48c-0.23,0-0.44-0.2-0.46-0.44c-0.02-0.25,0.2-0.47,0.45-0.47
		C38.34,72.18,38.53,72.36,38.54,72.61z"/>
	<path d="M71.28,13.16c-0.01-0.25,0.18-0.44,0.43-0.45c0.24-0.01,0.45,0.19,0.45,0.43c0.01,0.24-0.2,0.45-0.43,0.45
		C71.49,13.6,71.28,13.4,71.28,13.16z"/>
	<path d="M15.26,36.42c0,0.24-0.2,0.44-0.44,0.45c-0.24,0-0.45-0.2-0.45-0.44c0-0.24,0.2-0.44,0.44-0.44
		C15.07,35.98,15.26,36.17,15.26,36.42z"/>
	<path d="M23.02,62.27c0,0.25-0.19,0.44-0.43,0.44c-0.24,0-0.44-0.2-0.45-0.44c0-0.24,0.2-0.45,0.44-0.45
		C22.81,61.83,23.02,62.04,23.02,62.27z"/>
	<path d="M25.13,64.44c0.25,0,0.44,0.18,0.45,0.43c0,0.24-0.19,0.45-0.43,0.45c-0.24,0.01-0.45-0.2-0.45-0.43
		C24.69,64.65,24.89,64.45,25.13,64.44z"/>
	<path d="M17.82,26.08c-0.01,0.25-0.21,0.43-0.46,0.42c-0.24-0.01-0.43-0.22-0.43-0.46c0.01-0.24,0.22-0.44,0.46-0.43
		C17.64,25.63,17.83,25.84,17.82,26.08z"/>
	<path d="M79.03,57.14c-0.01-0.25,0.17-0.45,0.42-0.46c0.24-0.01,0.45,0.18,0.46,0.42c0.01,0.23-0.19,0.45-0.42,0.46
		C79.25,57.58,79.04,57.38,79.03,57.14z"/>
	<path d="M54.04,5.39c0.01,0.24-0.19,0.45-0.43,0.46c-0.24,0.01-0.45-0.19-0.45-0.43c-0.01-0.24,0.19-0.45,0.43-0.45
		C53.84,4.95,54.03,5.14,54.04,5.39z"/>
	<path d="M74.75,15.73c-0.01,0.24-0.22,0.44-0.45,0.43c-0.24-0.01-0.44-0.22-0.43-0.46c0.01-0.24,0.22-0.43,0.46-0.43
		C74.57,15.28,74.75,15.48,74.75,15.73z"/>
	<path d="M66.99,70.03c0,0.25-0.19,0.44-0.44,0.44c-0.24,0-0.44-0.2-0.45-0.44c0-0.24,0.2-0.45,0.44-0.45
		C66.78,69.59,66.99,69.79,66.99,70.03z"/>
	<path d="M46.28,5.39c0.01,0.24-0.19,0.45-0.43,0.46c-0.24,0.01-0.45-0.19-0.45-0.43c-0.01-0.24,0.19-0.45,0.43-0.45
		C46.08,4.95,46.28,5.14,46.28,5.39z"/>
	<path d="M35.06,7.97c-0.01-0.25,0.18-0.44,0.43-0.45c0.24-0.01,0.45,0.19,0.45,0.43c0.01,0.24-0.2,0.45-0.43,0.45
		C35.27,8.41,35.06,8.21,35.06,7.97z"/>
	<path d="M61.8,72.62c0.01,0.24-0.19,0.45-0.43,0.46c-0.24,0.01-0.45-0.19-0.46-0.43c-0.01-0.24,0.19-0.45,0.43-0.45
		C61.59,72.19,61.79,72.38,61.8,72.62z"/>
	<path d="M77.23,18.6c0.07-0.07,0.11-0.17,0.11-0.27c0-0.25-0.22-0.46-0.47-0.45c-0.04,0-0.07,0.01-0.11,0.02
		C76.94,18.12,77.1,18.35,77.23,18.6z"/>
	<path d="M30.77,10.55c0,0.24-0.2,0.44-0.44,0.44c-0.22,0-0.42-0.18-0.43-0.4c-0.01-0.24,0.21-0.47,0.46-0.46
		C30.58,10.13,30.77,10.32,30.77,10.55z"/>
	<path d="M63.97,7.53c0.22,0,0.42,0.19,0.42,0.41c0.01,0.25-0.22,0.47-0.47,0.45c-0.22-0.01-0.4-0.21-0.4-0.43
		C63.53,7.72,63.73,7.52,63.97,7.53z"/>
	<path d="M43.27,4.97c0.22,0.01,0.41,0.2,0.41,0.42c0,0.25-0.23,0.46-0.47,0.44c-0.22-0.02-0.4-0.22-0.39-0.44
		C42.83,5.15,43.03,4.96,43.27,4.97z"/>
	<path d="M15.26,33.8c0.01,0.24-0.19,0.44-0.43,0.45c-0.22,0.01-0.42-0.17-0.44-0.4c-0.02-0.24,0.2-0.47,0.45-0.47
		C15.06,33.39,15.25,33.58,15.26,33.8z"/>
	<path d="M19.55,20.9c0.01-0.24,0.22-0.43,0.45-0.42c0.22,0.01,0.41,0.2,0.41,0.42c0,0.25-0.23,0.46-0.47,0.44
		C19.72,21.32,19.54,21.12,19.55,20.9z"/>
	<path d="M27.75,67.91c-0.24,0-0.44-0.19-0.45-0.43c0-0.22,0.18-0.42,0.4-0.43c0.24-0.01,0.47,0.21,0.47,0.45
		C28.17,67.72,27.98,67.9,27.75,67.91z"/>
	<path d="M17.82,54.51c0.01,0.24-0.19,0.44-0.43,0.45c-0.22,0.01-0.42-0.17-0.44-0.4c-0.02-0.25,0.2-0.47,0.44-0.47
		C17.62,54.09,17.81,54.28,17.82,54.51z"/>
	<path d="M68.69,10.55c0-0.23,0.19-0.42,0.41-0.42c0.24,0,0.44,0.2,0.43,0.44c-0.01,0.22-0.22,0.41-0.44,0.4
		C68.87,10.97,68.69,10.78,68.69,10.55z"/>
	<path d="M56.62,5.38c0.01,0.23-0.17,0.42-0.4,0.44c-0.24,0.01-0.45-0.18-0.45-0.42c0-0.22,0.2-0.42,0.42-0.42
		C56.42,4.97,56.61,5.15,56.62,5.38z"/>
	<path d="M73.89,64.86c0.01-0.23,0.2-0.41,0.43-0.41c0.22,0,0.42,0.2,0.42,0.42c0,0.24-0.2,0.44-0.45,0.42
		C74.06,65.29,73.88,65.09,73.89,64.86z"/>
	<path d="M20.4,59.68c0,0.23-0.18,0.42-0.41,0.43c-0.24,0.01-0.45-0.19-0.44-0.43c0.01-0.22,0.21-0.41,0.43-0.41
		C20.21,59.26,20.4,59.45,20.4,59.68z"/>
	<path d="M48.43,74.81c0.23-0.01,0.42,0.17,0.44,0.4c0.01,0.24-0.18,0.45-0.42,0.45c-0.22,0-0.42-0.2-0.42-0.42
		C48.02,75.01,48.2,74.82,48.43,74.81z"/>
	<path d="M51.43,75.23c0,0.23-0.18,0.42-0.41,0.43c-0.22,0.01-0.43-0.18-0.44-0.4c-0.01-0.24,0.19-0.44,0.43-0.44
		C51.24,74.81,51.42,75,51.43,75.23z"/>
	<path d="M77.31,62.28c0,0.23-0.2,0.42-0.42,0.41c-0.21-0.01-0.39-0.21-0.39-0.41c0-0.22,0.2-0.41,0.43-0.4
		C77.15,61.89,77.31,62.06,77.31,62.28z"/>
	<path d="M85.06,36.41c0.01,0.22-0.16,0.4-0.38,0.41c-0.23,0.01-0.43-0.18-0.43-0.4c0-0.2,0.18-0.4,0.39-0.41
		C84.86,35.99,85.06,36.18,85.06,36.41z"/>
	<path d="M79.87,20.91c0,0.22-0.17,0.39-0.39,0.4c-0.23,0-0.43-0.19-0.43-0.41c0.01-0.2,0.19-0.4,0.4-0.41
		C79.67,20.48,79.87,20.68,79.87,20.91z"/>
	<path d="M40.69,5.8c-0.23,0-0.43-0.2-0.41-0.42c0.01-0.21,0.2-0.39,0.41-0.39c0.22,0,0.41,0.2,0.4,0.43
		C41.09,5.63,40.91,5.8,40.69,5.8z"/>
	<path d="M30.34,69.64c0.23,0.01,0.42,0.21,0.41,0.43c-0.01,0.21-0.21,0.39-0.41,0.39c-0.22,0-0.41-0.21-0.4-0.43
		C29.94,69.79,30.12,69.63,30.34,69.64z"/>
	<path d="M82.07,25.66c0.23,0.01,0.42,0.21,0.4,0.43c-0.02,0.21-0.21,0.39-0.42,0.38c-0.22,0-0.41-0.21-0.39-0.44
		C81.67,25.82,81.85,25.66,82.07,25.66z"/>
	<path d="M14.42,31.27c-0.01-0.22,0.15-0.4,0.37-0.41c0.23-0.01,0.44,0.17,0.44,0.39c0,0.22-0.2,0.42-0.42,0.42
		C14.62,31.67,14.43,31.48,14.42,31.27z"/>
	<path d="M71.72,67.08c0.22,0,0.39,0.17,0.4,0.39c0,0.23-0.19,0.43-0.41,0.43c-0.2-0.01-0.4-0.19-0.41-0.4
		C71.29,67.27,71.49,67.07,71.72,67.08z"/>
	<path d="M35.9,72.63c0.01,0.22-0.16,0.4-0.38,0.41c-0.23,0.01-0.44-0.17-0.44-0.39c0-0.22,0.2-0.42,0.42-0.42
		C35.71,72.23,35.89,72.41,35.9,72.63z"/>
	<path d="M45.45,75.24c-0.01-0.22,0.16-0.4,0.38-0.41c0.23-0.01,0.43,0.18,0.44,0.4c0,0.2-0.18,0.4-0.39,0.42
		C45.66,75.66,45.45,75.47,45.45,75.24z"/>
	<path d="M53.62,74.83c0.21,0.01,0.4,0.19,0.4,0.4c0,0.22-0.21,0.42-0.43,0.41c-0.22-0.01-0.4-0.22-0.39-0.44
		C53.22,74.98,53.4,74.82,53.62,74.83z"/>
	<path d="M17.38,23.86c-0.22,0-0.39-0.18-0.39-0.39c0-0.23,0.2-0.41,0.43-0.4c0.2,0.01,0.36,0.18,0.37,0.38
		C17.79,23.67,17.6,23.87,17.38,23.86z"/>
	<path d="M32.89,7.56c0.21-0.01,0.4,0.17,0.4,0.38c0.01,0.21-0.17,0.4-0.38,0.41c-0.22,0.02-0.4-0.14-0.42-0.36
		C32.49,7.77,32.67,7.56,32.89,7.56z"/>
	<path d="M59.2,5.39c0,0.22-0.2,0.41-0.42,0.4c-0.22-0.01-0.38-0.19-0.37-0.41C58.41,5.18,58.59,5,58.8,5
		C59.01,4.99,59.2,5.18,59.2,5.39z"/>
	<path d="M63.95,73.03c-0.23,0-0.41-0.21-0.4-0.43c0.01-0.2,0.19-0.36,0.38-0.37c0.22-0.01,0.42,0.19,0.41,0.41
		C64.35,72.87,64.17,73.04,63.95,73.03z"/>
	<path d="M43.65,75.21c0.01,0.23-0.18,0.42-0.41,0.42c-0.21,0-0.39-0.19-0.39-0.4c0-0.21,0.18-0.39,0.39-0.4
		C43.46,74.83,43.64,74.99,43.65,75.21z"/>
	<path d="M84.68,33.43c0.22,0.01,0.39,0.18,0.38,0.4c-0.01,0.23-0.21,0.41-0.43,0.39c-0.2-0.01-0.36-0.19-0.37-0.38
		C84.26,33.61,84.45,33.42,84.68,33.43z"/>
	<path d="M56.6,75.22c0,0.23-0.2,0.42-0.42,0.41c-0.2-0.01-0.37-0.18-0.38-0.37c-0.01-0.22,0.18-0.42,0.4-0.42
		C56.42,74.84,56.6,75.01,56.6,75.22z"/>
	<path d="M69.5,70.02c0,0.21-0.17,0.4-0.38,0.4c-0.21,0-0.39-0.18-0.39-0.39c0.01-0.2,0.17-0.37,0.37-0.38
		C69.3,69.64,69.49,69.81,69.5,70.02z"/>
	<path d="M25.53,13.16c0,0.21-0.19,0.39-0.4,0.38c-0.2-0.01-0.36-0.18-0.38-0.37c-0.01-0.21,0.17-0.4,0.38-0.4
		C25.35,12.77,25.53,12.95,25.53,13.16z"/>
	<path d="M79.86,59.67c0.01,0.21-0.18,0.4-0.38,0.4c-0.2,0-0.37-0.16-0.39-0.35c-0.02-0.21,0.15-0.4,0.36-0.42
		C79.66,59.29,79.85,59.46,79.86,59.67z"/>
	<path d="M22.57,16.1c-0.21-0.01-0.39-0.2-0.37-0.41c0.01-0.21,0.21-0.38,0.42-0.36c0.21,0.02,0.37,0.22,0.35,0.43
		C22.95,15.95,22.76,16.11,22.57,16.1z"/>
	<path d="M60.98,5.38c0.01-0.2,0.19-0.36,0.39-0.35c0.21,0.01,0.36,0.18,0.35,0.39c-0.01,0.2-0.18,0.37-0.38,0.35
		C61.14,5.76,60.97,5.57,60.98,5.38z"/>
	<path d="M27.75,10.92c-0.21,0-0.37-0.16-0.37-0.36c0-0.2,0.16-0.37,0.36-0.38c0.19,0,0.38,0.18,0.38,0.37
		C28.12,10.75,27.95,10.92,27.75,10.92z"/>
	<path d="M17.75,57.15c-0.01,0.2-0.19,0.36-0.39,0.35c-0.19-0.01-0.37-0.2-0.36-0.39c0.01-0.2,0.19-0.36,0.39-0.35
		C17.61,56.77,17.76,56.94,17.75,57.15z"/>
	<path d="M41.07,75.22c0.01,0.2-0.16,0.37-0.36,0.38c-0.21,0.01-0.37-0.15-0.38-0.36c-0.01-0.2,0.15-0.38,0.36-0.38
		C40.87,74.85,41.06,75.02,41.07,75.22z"/>
	<path d="M14.83,29.04c-0.19,0-0.37-0.18-0.38-0.37c0-0.2,0.17-0.37,0.37-0.37c0.21,0,0.37,0.16,0.37,0.37
		C15.19,28.87,15.03,29.04,14.83,29.04z"/>
	<path d="M66.92,7.95c0.01,0.2-0.15,0.38-0.36,0.39c-0.19,0.01-0.38-0.17-0.39-0.36c-0.01-0.2,0.16-0.37,0.36-0.38
		C66.75,7.59,66.91,7.74,66.92,7.95z"/>
	<path d="M38.08,5.77c-0.19,0-0.37-0.19-0.37-0.38c0-0.2,0.18-0.37,0.38-0.36c0.21,0,0.36,0.17,0.36,0.38
		C38.45,5.61,38.29,5.78,38.08,5.77z"/>
	<path d="M85.04,31.25c0.01,0.2-0.16,0.37-0.36,0.38c-0.21,0.01-0.37-0.15-0.38-0.36c-0.01-0.2,0.15-0.38,0.36-0.38
		C84.84,30.88,85.03,31.05,85.04,31.25z"/>
	<path d="M19.98,17.93c0.19,0,0.38,0.18,0.38,0.37c0,0.2-0.16,0.37-0.37,0.37c-0.21,0-0.37-0.15-0.38-0.36
		C19.61,18.11,19.78,17.94,19.98,17.93z"/>
	<path d="M58.79,75.6c-0.2,0-0.37-0.17-0.37-0.37c0-0.19,0.19-0.37,0.38-0.37c0.2,0,0.37,0.17,0.36,0.38
		C59.16,75.44,59,75.6,58.79,75.6z"/>
	<path d="M25.5,67.5c-0.01,0.19-0.17,0.34-0.36,0.34c-0.21,0-0.37-0.18-0.36-0.38c0.01-0.2,0.2-0.36,0.4-0.34
		C25.36,67.13,25.51,67.31,25.5,67.5z"/>
	<path d="M82.42,23.46c0.01,0.19-0.14,0.36-0.33,0.37c-0.2,0.01-0.38-0.15-0.39-0.35c-0.01-0.2,0.16-0.37,0.37-0.37
		C82.26,23.11,82.42,23.27,82.42,23.46z"/>
	<path d="M74.33,13.51c-0.2,0.01-0.38-0.17-0.38-0.36c0-0.18,0.15-0.34,0.34-0.35c0.2-0.01,0.38,0.16,0.37,0.36
		C74.66,13.34,74.51,13.51,74.33,13.51z"/>
	<path d="M22.6,64.52c0.19,0.01,0.34,0.17,0.34,0.36c0,0.21-0.18,0.37-0.37,0.36c-0.2-0.01-0.36-0.2-0.34-0.4
		C22.24,64.66,22.41,64.51,22.6,64.52z"/>
	<path d="M76.89,16.08c-0.18-0.01-0.34-0.17-0.34-0.36c0-0.2,0.17-0.37,0.38-0.36c0.19,0.01,0.35,0.17,0.34,0.36
		C77.27,15.91,77.09,16.08,76.89,16.08z"/>
	<path d="M32.91,73c-0.2,0-0.37-0.17-0.37-0.37c0-0.18,0.16-0.34,0.35-0.35c0.2-0.01,0.37,0.16,0.37,0.37
		C33.25,72.83,33.09,72.99,32.91,73z"/>
	<path d="M19.98,61.94c0.19-0.01,0.35,0.15,0.35,0.34c0,0.19-0.16,0.35-0.34,0.36c-0.19,0.01-0.35-0.16-0.35-0.34
		C19.63,62.11,19.79,61.94,19.98,61.94z"/>
	<path d="M82.41,57.13c-0.01,0.19-0.17,0.34-0.36,0.34c-0.19,0-0.34-0.16-0.34-0.36c0.01-0.19,0.18-0.35,0.36-0.34
		C82.26,56.78,82.42,56.95,82.41,57.13z"/>
	<path d="M12.24,38.67c0.19,0,0.35,0.16,0.34,0.35c-0.01,0.19-0.17,0.35-0.35,0.35c-0.19,0-0.35-0.17-0.34-0.35
		C11.88,38.83,12.05,38.67,12.24,38.67z"/>
	<path d="M79.81,18.31c0,0.19-0.16,0.35-0.35,0.35c-0.19,0-0.35-0.16-0.35-0.35c0-0.18,0.16-0.35,0.35-0.35
		C79.66,17.96,79.82,18.11,79.81,18.31z"/>
	<path d="M84.68,29.01c-0.19,0-0.35-0.15-0.36-0.34c-0.01-0.19,0.15-0.36,0.33-0.36c0.18-0.01,0.35,0.15,0.36,0.34
		C85.02,28.84,84.87,29,84.68,29.01z"/>
	<path d="M48.79,2.79c0,0.19-0.15,0.35-0.34,0.36C48.27,3.16,48.1,3,48.09,2.81c0-0.18,0.15-0.35,0.34-0.36
		C48.63,2.44,48.79,2.59,48.79,2.79z"/>
	<path d="M28.09,70.03c0,0.19-0.15,0.35-0.34,0.36c-0.19,0.01-0.36-0.15-0.36-0.34c0-0.18,0.15-0.35,0.34-0.36
		C27.92,69.68,28.08,69.83,28.09,70.03z"/>
	<path d="M66.54,72.29c0.19-0.01,0.36,0.15,0.36,0.33c0.01,0.18-0.15,0.35-0.34,0.36c-0.19,0.01-0.35-0.14-0.36-0.33
		C66.2,72.46,66.36,72.3,66.54,72.29z"/>
	<path d="M38.1,74.89c0.19,0.01,0.35,0.17,0.34,0.36c0,0.19-0.17,0.35-0.36,0.34c-0.19-0.01-0.34-0.17-0.34-0.36
		C37.75,75.03,37.91,74.88,38.1,74.89z"/>
	<path d="M72.06,10.56c0,0.19-0.17,0.35-0.35,0.35c-0.19,0-0.35-0.16-0.35-0.35c0-0.19,0.17-0.34,0.35-0.35
		C71.91,10.21,72.06,10.36,72.06,10.56z"/>
	<path d="M61.7,75.23c0,0.18-0.18,0.35-0.36,0.33c-0.17-0.01-0.31-0.17-0.3-0.35c0.01-0.18,0.16-0.32,0.34-0.31
		C61.55,74.91,61.7,75.06,61.7,75.23z"/>
	<path d="M12.22,36.08c0.17-0.01,0.33,0.14,0.34,0.31c0.01,0.18-0.12,0.33-0.3,0.35c-0.18,0.02-0.34-0.12-0.36-0.29
		C11.87,36.27,12.03,36.09,12.22,36.08z"/>
	<path d="M53.94,2.8c0,0.18-0.18,0.35-0.36,0.33c-0.17-0.01-0.31-0.17-0.3-0.35c0.01-0.18,0.16-0.32,0.34-0.31
		C53.79,2.48,53.94,2.63,53.94,2.8z"/>
	<path d="M30.67,7.97c-0.01,0.17-0.16,0.31-0.34,0.31c-0.18-0.01-0.32-0.15-0.32-0.33c0-0.18,0.15-0.33,0.32-0.33
		C30.52,7.62,30.68,7.79,30.67,7.97z"/>
	<path d="M74.65,67.47c0,0.19-0.16,0.35-0.35,0.35c-0.17-0.01-0.32-0.16-0.31-0.34c0-0.18,0.15-0.32,0.33-0.32
		C74.49,67.15,74.64,67.29,74.65,67.47z"/>
	<path d="M51.33,2.8c0,0.18-0.14,0.33-0.32,0.34c-0.19,0-0.35-0.16-0.35-0.35c0.01-0.17,0.16-0.32,0.34-0.31
		C51.18,2.48,51.33,2.62,51.33,2.8z"/>
	<path d="M35.5,5.72c-0.18,0.01-0.33-0.13-0.34-0.31c-0.01-0.18,0.16-0.35,0.34-0.35c0.17,0,0.32,0.15,0.32,0.33
		C35.82,5.57,35.68,5.71,35.5,5.72z"/>
	<path d="M17.72,20.9c0,0.17-0.15,0.32-0.32,0.33c-0.18,0-0.33-0.14-0.34-0.31c-0.01-0.18,0.13-0.34,0.3-0.35
		C17.55,20.56,17.72,20.72,17.72,20.9z"/>
	<path d="M45.86,2.47c0.18,0.01,0.33,0.16,0.32,0.33c0,0.18-0.18,0.34-0.36,0.33c-0.17-0.01-0.31-0.17-0.3-0.35
		C45.54,2.61,45.69,2.47,45.86,2.47z"/>
	<path d="M15.16,26.06c0,0.19-0.17,0.35-0.35,0.34c-0.17-0.01-0.31-0.16-0.31-0.34c0.01-0.18,0.15-0.32,0.33-0.32
		C15.01,25.74,15.16,25.89,15.16,26.06z"/>
	<path d="M77.23,64.86c0.01,0.18-0.13,0.33-0.31,0.34c-0.18,0.01-0.34-0.12-0.35-0.3c-0.02-0.18,0.14-0.36,0.33-0.37
		C77.07,64.54,77.22,64.68,77.23,64.86z"/>
	<path d="M64.27,5.4c-0.01,0.17-0.16,0.32-0.34,0.31c-0.17-0.01-0.32-0.17-0.3-0.34c0.01-0.16,0.16-0.29,0.32-0.3
		C64.13,5.07,64.28,5.23,64.27,5.4z"/>
	<path d="M12.24,34.14c-0.17,0.01-0.33-0.14-0.33-0.32c0-0.16,0.13-0.31,0.29-0.32c0.17-0.02,0.34,0.12,0.35,0.3
		C12.56,33.98,12.42,34.13,12.24,34.14z"/>
	<path d="M79.46,62.6c-0.17-0.01-0.32-0.17-0.31-0.34c0.01-0.16,0.15-0.3,0.31-0.3c0.17,0,0.33,0.15,0.33,0.32
		C79.79,62.46,79.63,62.61,79.46,62.6z"/>
	<path d="M17.71,59.7c-0.01,0.18-0.17,0.32-0.34,0.3c-0.17-0.02-0.31-0.18-0.29-0.35c0.02-0.16,0.16-0.29,0.32-0.29
		C17.57,59.37,17.72,59.53,17.71,59.7z"/>
	<path d="M43.24,3.12c-0.17-0.01-0.32-0.17-0.31-0.34c0.01-0.16,0.15-0.3,0.31-0.3c0.17,0,0.33,0.15,0.33,0.32
		C43.57,2.98,43.41,3.13,43.24,3.12z"/>
	<path d="M71.71,69.72c0.17,0,0.32,0.16,0.32,0.33c0,0.17-0.17,0.32-0.34,0.31c-0.16-0.01-0.3-0.16-0.3-0.31
		C71.39,69.87,71.54,69.72,71.71,69.72z"/>
	<path d="M69.43,7.97c-0.01,0.18-0.16,0.32-0.34,0.31c-0.17-0.01-0.31-0.18-0.3-0.35c0.01-0.16,0.16-0.29,0.32-0.29
		C69.29,7.64,69.44,7.79,69.43,7.97z"/>
	<path d="M56.18,3.1c-0.17-0.01-0.29-0.15-0.28-0.32c0.01-0.16,0.17-0.29,0.32-0.28c0.16,0.01,0.29,0.17,0.28,0.32
		C56.49,2.98,56.34,3.11,56.18,3.1z"/>
	<path d="M82.06,20.61c0.17-0.01,0.31,0.12,0.31,0.29c0,0.16-0.14,0.31-0.29,0.32c-0.16,0.01-0.31-0.14-0.31-0.3
		C81.76,20.76,81.9,20.61,82.06,20.61z"/>
	<path d="M22.59,12.85c0.17,0,0.3,0.14,0.29,0.31c-0.01,0.16-0.15,0.3-0.31,0.3c-0.16,0-0.3-0.15-0.3-0.31
		C22.28,12.99,22.43,12.85,22.59,12.85z"/>
	<path d="M87.53,36.41c0.01,0.16-0.14,0.31-0.3,0.31c-0.16,0-0.3-0.14-0.31-0.3c-0.01-0.17,0.12-0.31,0.29-0.31
		C87.38,36.12,87.52,36.26,87.53,36.41z"/>
	<path d="M30.35,72.33c0.17,0,0.3,0.14,0.29,0.31c-0.01,0.16-0.15,0.3-0.31,0.3c-0.16,0-0.3-0.16-0.29-0.31
		C30.04,72.47,30.19,72.33,30.35,72.33z"/>
	<path d="M84.68,25.76c0.16,0.01,0.3,0.16,0.28,0.32c-0.01,0.16-0.16,0.29-0.33,0.28c-0.17-0.01-0.29-0.15-0.28-0.32
		C84.38,25.88,84.53,25.75,84.68,25.76z"/>
	<path d="M35.8,75.24c-0.01,0.16-0.16,0.3-0.32,0.29c-0.17,0-0.3-0.14-0.29-0.31c0.01-0.16,0.15-0.3,0.31-0.29
		C35.67,74.93,35.81,75.08,35.8,75.24z"/>
	<path d="M45.87,78.09c-0.16,0.01-0.31-0.12-0.33-0.28c-0.01-0.16,0.12-0.31,0.28-0.32c0.16-0.01,0.31,0.12,0.32,0.29
		C46.16,77.94,46.04,78.09,45.87,78.09z"/>
	<path d="M48.75,77.78c0,0.16-0.14,0.3-0.3,0.31c-0.17,0.01-0.31-0.12-0.31-0.29c0-0.16,0.14-0.31,0.29-0.32
		C48.6,77.48,48.75,77.62,48.75,77.78z"/>
	<path d="M51.31,77.8c-0.01,0.16-0.16,0.3-0.32,0.29c-0.17,0-0.3-0.14-0.29-0.31c0.01-0.16,0.15-0.3,0.31-0.29
		C51.18,77.49,51.32,77.65,51.31,77.8z"/>
	<path d="M53.89,77.79c0,0.15-0.12,0.28-0.27,0.29c-0.15,0-0.29-0.12-0.3-0.26c-0.01-0.16,0.13-0.31,0.29-0.31
		C53.76,77.51,53.88,77.64,53.89,77.79z"/>
	<path d="M43.25,77.51c0.15,0,0.28,0.12,0.29,0.27c0.01,0.16-0.13,0.3-0.3,0.3c-0.15,0-0.27-0.13-0.27-0.29
		C42.97,77.64,43.1,77.51,43.25,77.51z"/>
	<path d="M64.24,75.22c0.01,0.15-0.11,0.28-0.27,0.29c-0.15,0.01-0.29-0.1-0.3-0.25c-0.02-0.17,0.12-0.32,0.28-0.32
		C64.1,74.94,64.23,75.07,64.24,75.22z"/>
	<path d="M59.08,2.81c-0.01,0.15-0.14,0.27-0.29,0.27c-0.15-0.01-0.28-0.13-0.28-0.28c0-0.16,0.15-0.3,0.31-0.29
		C58.97,2.52,59.09,2.66,59.08,2.81z"/>
	<path d="M87.21,34.1c-0.15,0-0.27-0.13-0.27-0.28c0-0.15,0.13-0.28,0.28-0.29c0.16,0,0.3,0.15,0.29,0.31
		C87.5,33.99,87.36,34.11,87.21,34.1z"/>
	<path d="M82.35,59.7c-0.01,0.15-0.14,0.28-0.29,0.27c-0.16,0-0.3-0.16-0.28-0.32c0.02-0.15,0.16-0.26,0.31-0.25
		C82.24,59.41,82.36,59.55,82.35,59.7z"/>
	<path d="M12.22,30.97c0.15,0,0.28,0.12,0.29,0.27c0.01,0.16-0.13,0.3-0.3,0.3c-0.15,0-0.27-0.13-0.27-0.29
		C11.95,31.1,12.08,30.98,12.22,30.97z"/>
	<path d="M33.18,5.4c0,0.15-0.13,0.28-0.28,0.29c-0.16,0-0.3-0.15-0.29-0.31c0.01-0.15,0.15-0.27,0.3-0.26
		C33.06,5.12,33.18,5.24,33.18,5.4z"/>
	<path d="M19.98,16c-0.15,0-0.27-0.13-0.28-0.28c0-0.15,0.12-0.28,0.27-0.29c0.17,0,0.31,0.14,0.3,0.3
		C20.26,15.88,20.13,16,19.98,16z"/>
	<path d="M40.98,2.79c0.01,0.15-0.11,0.28-0.27,0.29c-0.15,0.01-0.29-0.1-0.3-0.25c-0.02-0.17,0.12-0.32,0.28-0.32
		C40.84,2.51,40.97,2.64,40.98,2.79z"/>
	<path d="M14.84,23.76c-0.15,0-0.28-0.12-0.3-0.27c-0.01-0.16,0.13-0.31,0.29-0.3c0.15,0,0.28,0.13,0.27,0.28
		C15.11,23.62,14.98,23.75,14.84,23.76z"/>
	<path d="M69.11,72.35c0.15-0.01,0.28,0.11,0.29,0.27c0.01,0.15-0.11,0.29-0.26,0.3c-0.16,0.01-0.31-0.13-0.31-0.29
		C68.83,72.48,68.95,72.36,69.11,72.35z"/>
	<path d="M25.13,10.27c0.15-0.01,0.28,0.11,0.29,0.27c0.01,0.15-0.1,0.29-0.25,0.3c-0.17,0.02-0.32-0.12-0.32-0.28
		C24.86,10.41,24.98,10.28,25.13,10.27z"/>
	<path d="M22.85,67.45c0.01,0.14-0.12,0.28-0.26,0.29c-0.14,0.01-0.28-0.12-0.28-0.27c0-0.15,0.09-0.25,0.24-0.27
		C22.7,67.19,22.84,67.31,22.85,67.45z"/>
	<path d="M56.47,77.79c0,0.15-0.13,0.28-0.28,0.27c-0.14-0.01-0.28-0.15-0.26-0.29c0.02-0.15,0.11-0.24,0.26-0.25
		C56.35,77.52,56.47,77.64,56.47,77.79z"/>
	<path d="M15.1,57.14c0,0.15-0.14,0.27-0.29,0.26c-0.15-0.02-0.24-0.11-0.25-0.26c-0.01-0.15,0.12-0.28,0.27-0.28
		C14.97,56.86,15.1,56.99,15.1,57.14z"/>
	<path d="M27.75,7.69c0.15,0,0.27,0.14,0.26,0.29c-0.02,0.15-0.11,0.24-0.26,0.25c-0.15,0.01-0.28-0.12-0.28-0.27
		C27.47,7.82,27.61,7.68,27.75,7.69z"/>
	<path d="M17.39,18.58c-0.15,0.01-0.28-0.12-0.27-0.27c0.01-0.15,0.09-0.24,0.24-0.26c0.15-0.02,0.29,0.1,0.3,0.25
		C17.66,18.43,17.53,18.57,17.39,18.58z"/>
	<path d="M79.74,15.7c0.01,0.15-0.12,0.28-0.27,0.28c-0.15,0-0.25-0.09-0.27-0.24c-0.02-0.14,0.11-0.29,0.25-0.3
		C79.59,15.43,79.73,15.55,79.74,15.7z"/>
	<path d="M20.25,64.87c0,0.15-0.12,0.28-0.27,0.28c-0.15,0-0.25-0.09-0.27-0.24c-0.02-0.14,0.11-0.29,0.25-0.3
		C20.11,64.6,20.25,64.72,20.25,64.87z"/>
	<path d="M77.18,13.17c-0.01,0.15-0.15,0.26-0.3,0.25c-0.14-0.01-0.25-0.13-0.24-0.27c0-0.14,0.14-0.27,0.28-0.27
		C77.07,12.89,77.19,13.02,77.18,13.17z"/>
	<path d="M66.82,5.4c0,0.15-0.13,0.28-0.28,0.27c-0.15-0.01-0.24-0.1-0.26-0.25c-0.02-0.15,0.11-0.29,0.26-0.29
		C66.68,5.12,66.82,5.25,66.82,5.4z"/>
	<path d="M25.14,70.31c-0.15,0-0.28-0.13-0.27-0.28c0.01-0.15,0.1-0.24,0.25-0.26c0.15-0.02,0.29,0.11,0.29,0.26
		C25.42,70.17,25.28,70.3,25.14,70.31z"/>
	<path d="M74.3,10.28c0.15,0,0.28,0.12,0.28,0.27c0,0.14-0.14,0.27-0.28,0.27c-0.13,0-0.25-0.12-0.26-0.25
		C74.03,10.42,74.15,10.29,74.3,10.28z"/>
	<path d="M76.89,67.23c0.14-0.01,0.26,0.1,0.26,0.24c0,0.13-0.12,0.26-0.25,0.25c-0.14-0.01-0.22-0.09-0.24-0.22
		C76.64,67.37,76.76,67.24,76.89,67.23z"/>
	<path d="M38.11,2.56c0.13,0.01,0.25,0.14,0.24,0.27c-0.01,0.14-0.14,0.24-0.27,0.22c-0.13-0.02-0.21-0.11-0.22-0.25
		C37.84,2.66,37.97,2.55,38.11,2.56z"/>
	<path d="M87.47,31.25c0,0.13-0.12,0.25-0.25,0.26c-0.14,0-0.25-0.12-0.24-0.26c0.01-0.14,0.09-0.22,0.23-0.23
		C87.34,31,87.46,31.12,87.47,31.25z"/>
	<path d="M84.67,23.71c-0.13,0-0.25-0.12-0.25-0.25c0-0.14,0.12-0.25,0.26-0.24c0.14,0.01,0.22,0.1,0.23,0.23
		C84.92,23.59,84.8,23.71,84.67,23.71z"/>
	<path d="M12.47,28.68c-0.01,0.14-0.14,0.24-0.27,0.22c-0.14-0.02-0.21-0.11-0.22-0.25c-0.01-0.14,0.12-0.25,0.26-0.24
		C12.37,28.42,12.48,28.55,12.47,28.68z"/>
	<path d="M71.72,8.2c-0.13,0-0.25-0.12-0.25-0.25c0-0.14,0.12-0.25,0.26-0.24c0.14,0.01,0.22,0.1,0.23,0.23
		C71.97,8.08,71.85,8.2,71.72,8.2z"/>
	<path d="M33.15,75.23c0.01,0.14-0.11,0.25-0.25,0.25c-0.13,0-0.25-0.13-0.24-0.26c0.01-0.14,0.09-0.22,0.23-0.23
		C33.02,74.98,33.14,75.1,33.15,75.23z"/>
	<path d="M17.37,62.04c0.13-0.01,0.26,0.1,0.27,0.23c0.01,0.14-0.11,0.26-0.24,0.26c-0.13-0.01-0.22-0.08-0.25-0.22
		C17.12,62.18,17.23,62.05,17.37,62.04z"/>
	<path d="M40.68,77.55c0.14-0.01,0.26,0.1,0.26,0.24c0,0.13-0.12,0.26-0.25,0.25c-0.14-0.01-0.22-0.09-0.24-0.22
		C40.43,77.69,40.54,77.56,40.68,77.55z"/>
	<path d="M27.76,72.41c0.13,0.01,0.2,0.09,0.21,0.23c0.01,0.12-0.11,0.24-0.23,0.23c-0.14-0.01-0.22-0.09-0.23-0.23
		C27.51,72.5,27.61,72.4,27.76,72.41z"/>
	<path d="M74.31,69.81c0.13,0.02,0.21,0.08,0.22,0.23c0.01,0.13-0.09,0.24-0.22,0.23c-0.14,0-0.22-0.09-0.24-0.22
		C74.07,69.92,74.18,69.81,74.31,69.81z"/>
	<path d="M84.89,57.12c0,0.13-0.12,0.24-0.24,0.23c-0.14-0.02-0.22-0.1-0.22-0.24c0-0.13,0.1-0.23,0.23-0.22
		C84.81,56.91,84.88,57,84.89,57.12z"/>
	<path d="M79.7,64.87c0,0.13-0.11,0.25-0.23,0.24c-0.14-0.01-0.22-0.09-0.23-0.23c-0.01-0.13,0.09-0.23,0.22-0.23
		C79.61,64.66,79.68,64.74,79.7,64.87z"/>
	<path d="M66.78,75.22c0,0.14-0.1,0.25-0.22,0.24c-0.14-0.01-0.22-0.09-0.23-0.23c-0.01-0.12,0.11-0.24,0.23-0.23
		C66.69,75.01,66.77,75.09,66.78,75.22z"/>
	<path d="M82.29,18.28c0.01,0.15-0.09,0.25-0.22,0.25c-0.14,0-0.22-0.09-0.24-0.22c-0.01-0.12,0.1-0.24,0.22-0.23
		C82.19,18.09,82.27,18.16,82.29,18.28z"/>
	<path d="M61.33,3.02c-0.12-0.02-0.2-0.1-0.2-0.24c0-0.12,0.12-0.23,0.24-0.22c0.14,0.02,0.22,0.1,0.22,0.24
		C61.59,2.94,61.48,3.03,61.33,3.02z"/>
	<path d="M59.02,77.77c0.01,0.15-0.09,0.25-0.22,0.25c-0.14,0-0.22-0.09-0.24-0.22c-0.01-0.12,0.1-0.24,0.22-0.23
		C58.93,77.57,59.01,77.65,59.02,77.77z"/>
	<path d="M71.91,72.64c-0.01,0.13-0.09,0.2-0.21,0.19c-0.11-0.01-0.18-0.07-0.19-0.19c0-0.13,0.07-0.21,0.2-0.21
		C71.84,72.43,71.9,72.52,71.91,72.64z"/>
	<path d="M69.32,5.41c-0.02,0.13-0.1,0.2-0.23,0.19c-0.11-0.01-0.18-0.08-0.17-0.19c0-0.13,0.07-0.21,0.2-0.2
		C69.25,5.2,69.31,5.29,69.32,5.41z"/>
	<path d="M30.32,5.19c0.14,0.02,0.22,0.09,0.21,0.21c0,0.13-0.09,0.2-0.22,0.19c-0.11-0.01-0.18-0.08-0.18-0.19
		C30.13,5.28,30.21,5.22,30.32,5.19z"/>
	<path d="M22.78,10.54c-0.01,0.13-0.08,0.22-0.21,0.22c-0.13,0-0.2-0.08-0.2-0.21c0-0.11,0.07-0.18,0.18-0.19
		C22.69,10.35,22.76,10.42,22.78,10.54z"/>
	<path d="M51.02,0c0.13,0.03,0.19,0.1,0.18,0.23c-0.01,0.11-0.09,0.17-0.2,0.17c-0.13,0-0.21-0.08-0.2-0.21
		C50.82,0.07,50.9,0,51.02,0z"/>
	<path d="M20,12.95c0.13,0.02,0.2,0.1,0.19,0.23c-0.01,0.11-0.08,0.18-0.19,0.18c-0.13,0-0.21-0.07-0.2-0.2
		C19.79,13.02,19.87,12.96,20,12.95z"/>
	<path d="M48.65,0.19c0,0.13-0.06,0.21-0.2,0.21c-0.11,0-0.19-0.06-0.2-0.17C48.23,0.11,48.3,0.02,48.43,0
		C48.55-0.01,48.63,0.06,48.65,0.19z"/>
	<path d="M15.03,59.68c-0.01,0.13-0.08,0.2-0.21,0.2c-0.11,0-0.18-0.06-0.19-0.18c-0.01-0.13,0.06-0.21,0.18-0.22
		C14.94,59.48,15.01,59.56,15.03,59.68z"/>
	<path d="M87.42,28.67c-0.01,0.13-0.08,0.2-0.21,0.2c-0.11-0.01-0.18-0.07-0.19-0.18c-0.01-0.13,0.07-0.21,0.19-0.21
		C87.35,28.46,87.41,28.54,87.42,28.67z"/>
	<path d="M12.43,26.07c-0.02,0.13-0.09,0.2-0.22,0.19c-0.12-0.02-0.2-0.1-0.18-0.23c0.01-0.11,0.09-0.17,0.2-0.17
		C12.36,25.87,12.43,25.95,12.43,26.07z"/>
	<path d="M14.82,21.11c-0.13-0.01-0.2-0.09-0.2-0.21c0.01-0.11,0.07-0.18,0.18-0.19c0.13,0,0.21,0.07,0.21,0.2
		C15.03,21.03,14.95,21.1,14.82,21.11z"/>
	<path d="M35.7,2.79C35.69,2.92,35.62,3,35.49,3c-0.13,0-0.2-0.08-0.2-0.21c0-0.11,0.07-0.18,0.18-0.19
		C35.61,2.59,35.68,2.66,35.7,2.79z"/>
	<path d="M82.07,62.08c0.13,0.02,0.21,0.09,0.19,0.22c-0.01,0.12-0.1,0.2-0.23,0.18c-0.11-0.01-0.17-0.09-0.17-0.2
		C81.87,62.15,81.94,62.09,82.07,62.08z"/>
	<path d="M38.1,77.59c0.13,0.02,0.2,0.09,0.19,0.22c-0.02,0.12-0.1,0.2-0.23,0.18c-0.11-0.01-0.17-0.09-0.17-0.2
		C37.9,77.66,37.98,77.6,38.1,77.59z"/>
	<path d="M61.56,77.8c-0.03,0.12-0.1,0.2-0.23,0.19c-0.13-0.01-0.19-0.1-0.17-0.23c0.01-0.11,0.09-0.17,0.2-0.17
		C61.49,77.6,61.55,77.68,61.56,77.8z"/>
</g>
<g>
	<g>
		<path d="M33.44,23.16c0.45,0,0.81,0.13,1.08,0.39c0.27,0.26,0.4,0.6,0.4,1c0,0.26-0.05,0.52-0.15,0.78
			c-0.23,0.6-0.64,1.11-1.23,1.53c-0.59,0.43-1.18,0.64-1.77,0.64h-2.18l-0.85,2.18c-0.23,0.6-0.64,1.11-1.23,1.53
			c-0.59,0.43-1.18,0.64-1.77,0.64c-0.46,0-0.83-0.13-1.1-0.39c-0.27-0.26-0.4-0.6-0.4-1.02c0-0.26,0.05-0.51,0.15-0.76l3.35-8.71
			c0.23-0.59,0.64-1.11,1.23-1.53c0.59-0.43,1.18-0.64,1.77-0.64c0.46,0,0.83,0.13,1.1,0.39c0.27,0.26,0.4,0.6,0.4,1.02
			c0,0.26-0.05,0.52-0.15,0.76l-0.83,2.18H33.44z M36.11,27.52c0.45,0,0.81,0.13,1.08,0.39c0.27,0.26,0.4,0.6,0.4,1
			c0,0.26-0.05,0.52-0.15,0.78c-0.23,0.6-0.64,1.11-1.23,1.53c-0.59,0.43-1.18,0.64-1.77,0.64c-0.46,0-0.83-0.13-1.1-0.39
			c-0.27-0.26-0.4-0.6-0.4-1.02c0-0.26,0.05-0.51,0.15-0.76c0.23-0.59,0.65-1.11,1.24-1.53C34.92,27.73,35.52,27.52,36.11,27.52z
			 M37.79,23.16c-0.46,0-0.83-0.13-1.1-0.39c-0.27-0.26-0.4-0.6-0.4-1.02c0-0.26,0.05-0.51,0.15-0.76c0.23-0.59,0.64-1.11,1.23-1.53
			c0.59-0.43,1.18-0.64,1.77-0.64c0.46,0,0.83,0.13,1.1,0.39c0.27,0.26,0.4,0.6,0.4,1.02c0,0.26-0.05,0.52-0.15,0.76
			c-0.23,0.6-0.64,1.11-1.23,1.53C38.98,22.95,38.38,23.16,37.79,23.16z"/>
	</g>
	<g>
		<path d="M53.53,27.52c0.45,0,0.81,0.13,1.08,0.39c0.27,0.26,0.4,0.6,0.4,1c0,0.26-0.05,0.52-0.15,0.78
			c-0.23,0.6-0.64,1.11-1.23,1.53c-0.59,0.43-1.18,0.64-1.77,0.64h-8.71c-0.46,0-0.83-0.13-1.1-0.39c-0.27-0.26-0.4-0.6-0.4-1.02
			c0-0.26,0.05-0.51,0.15-0.76c0.23-0.59,0.65-1.11,1.24-1.53c0.59-0.43,1.19-0.64,1.78-0.64H47l1.68-4.35H46.5
			c-0.46,0-0.83-0.13-1.1-0.39c-0.27-0.26-0.4-0.6-0.4-1.02c0-0.26,0.05-0.51,0.15-0.76c0.23-0.59,0.64-1.11,1.23-1.53
			c0.59-0.43,1.18-0.64,1.77-0.64h8.71c0.46,0,0.83,0.13,1.1,0.39c0.27,0.26,0.4,0.6,0.4,1.02c0,0.26-0.05,0.52-0.15,0.76
			c-0.23,0.6-0.64,1.11-1.23,1.53c-0.59,0.43-1.18,0.64-1.77,0.64h-2.18l-1.68,4.35H53.53z"/>
	</g>
	<g>
		<path d="M74.27,18.81c0.46,0,0.83,0.13,1.1,0.39c0.27,0.26,0.4,0.6,0.4,1.02c0,0.26-0.05,0.52-0.15,0.76l-3.35,8.71
			c-0.23,0.6-0.64,1.11-1.23,1.53c-0.59,0.43-1.18,0.64-1.77,0.64c-0.46,0-0.83-0.13-1.1-0.39c-0.27-0.26-0.4-0.6-0.4-1.02
			c0-0.26,0.05-0.51,0.15-0.76l2.52-6.53h-2.18c-0.23,0.6-0.65,1.11-1.24,1.53c-0.6,0.43-1.19,0.64-1.78,0.64l-1.68,4.35
			c-0.23,0.6-0.64,1.11-1.23,1.53c-0.59,0.43-1.18,0.64-1.77,0.64c-0.46,0-0.83-0.13-1.1-0.39c-0.27-0.26-0.4-0.6-0.4-1.02
			c0-0.26,0.05-0.51,0.15-0.76l3.35-8.71c0.23-0.59,0.64-1.11,1.23-1.53c0.59-0.43,1.18-0.64,1.77-0.64c0.46,0,0.83,0.13,1.1,0.39
			c0.27,0.26,0.4,0.6,0.4,1.02c0,0.26-0.05,0.52-0.15,0.76h2.18c0.23-0.59,0.64-1.11,1.23-1.53c0.59-0.43,1.18-0.64,1.77-0.64H74.27
			z"/>
	</g>
	<g>
		<path d="M17.68,40.02c0.46,0,0.83,0.13,1.1,0.39c0.27,0.26,0.4,0.6,0.4,1.02c0,0.26-0.05,0.52-0.15,0.76l-3.35,8.71
			c-0.23,0.6-0.64,1.11-1.23,1.53c-0.59,0.43-1.18,0.64-1.77,0.64c-0.46,0-0.83-0.13-1.1-0.39c-0.27-0.26-0.4-0.6-0.4-1.02
			c0-0.26,0.05-0.51,0.15-0.76l0.85-2.18H7.82l-0.85,2.18c-0.23,0.6-0.64,1.11-1.23,1.53c-0.59,0.43-1.18,0.64-1.77,0.64
			c-0.46,0-0.83-0.13-1.1-0.39c-0.27-0.26-0.4-0.6-0.4-1.02c0-0.26,0.05-0.51,0.15-0.76l3.35-8.71c0.23-0.59,0.64-1.11,1.23-1.53
			c0.59-0.43,1.18-0.64,1.77-0.64c0.46,0,0.83,0.13,1.1,0.39c0.27,0.26,0.4,0.6,0.4,1.02c0,0.26-0.05,0.52-0.15,0.76l-0.83,2.18
			h4.35l0.83-2.18c0.23-0.59,0.64-1.11,1.23-1.53C16.49,40.24,17.08,40.02,17.68,40.02z"/>
	</g>
	<g>
		<path d="M35.09,40.02c0.46,0,0.83,0.13,1.1,0.39c0.27,0.26,0.4,0.6,0.4,1.02c0,0.26-0.05,0.52-0.15,0.76l-3.35,8.71
			c-0.23,0.6-0.64,1.11-1.23,1.53c-0.59,0.43-1.18,0.64-1.77,0.64c-0.46,0-0.83-0.13-1.1-0.39c-0.27-0.26-0.4-0.6-0.4-1.02
			c0-0.26,0.05-0.51,0.15-0.76h-4.35c-0.23,0.6-0.64,1.11-1.23,1.53c-0.59,0.43-1.18,0.64-1.77,0.64c-0.46,0-0.83-0.13-1.1-0.39
			c-0.27-0.26-0.4-0.6-0.4-1.02c0-0.26,0.05-0.51,0.15-0.76l3.35-8.71c0.23-0.59,0.64-1.11,1.23-1.53c0.59-0.43,1.18-0.64,1.77-0.64
			H35.09z M26.06,46.55h4.35l0.85-2.18h-4.35L26.06,46.55z"/>
	</g>
	<g>
		<path d="M49.17,48.73c0.45,0,0.81,0.13,1.08,0.39c0.27,0.26,0.4,0.6,0.4,1c0,0.26-0.05,0.52-0.15,0.78
			c-0.23,0.6-0.64,1.11-1.23,1.53c-0.59,0.43-1.18,0.64-1.77,0.64h-8.71c-0.46,0-0.83-0.13-1.1-0.39c-0.27-0.26-0.4-0.6-0.4-1.02
			c0-0.26,0.05-0.51,0.15-0.76l3.35-8.71c0.23-0.59,0.64-1.11,1.23-1.53c0.59-0.43,1.18-0.64,1.77-0.64h8.71
			c0.46,0,0.83,0.13,1.1,0.39c0.27,0.26,0.4,0.6,0.4,1.02c0,0.26-0.05,0.52-0.15,0.76c-0.23,0.6-0.64,1.11-1.23,1.53
			c-0.59,0.43-1.18,0.64-1.77,0.64h-6.53l-0.85,2.18h2.18c0.46,0,0.83,0.13,1.1,0.39c0.27,0.26,0.4,0.6,0.4,1.02
			c0,0.26-0.05,0.52-0.15,0.76H49.17z"/>
	</g>
	<g>
		<path d="M69.92,40.02c0.46,0,0.83,0.13,1.1,0.39c0.27,0.26,0.4,0.6,0.4,1.02c0,0.26-0.05,0.52-0.15,0.76l-3.35,8.71
			c-0.23,0.6-0.64,1.11-1.23,1.53c-0.59,0.43-1.18,0.64-1.77,0.64H56.2c-0.46,0-0.83-0.13-1.1-0.39c-0.27-0.26-0.4-0.6-0.4-1.02
			c0-0.26,0.05-0.51,0.15-0.76l3.35-8.71c0.23-0.59,0.64-1.11,1.23-1.53c0.59-0.43,1.18-0.64,1.77-0.64c0.46,0,0.83,0.13,1.1,0.39
			c0.27,0.26,0.4,0.6,0.4,1.02c0,0.26-0.05,0.52-0.15,0.76l-2.5,6.53h4.35l2.5-6.53c0.23-0.59,0.64-1.11,1.23-1.53
			C68.73,40.24,69.32,40.02,69.92,40.02z"/>
	</g>
	<g>
		<path d="M87.33,40.02c0.46,0,0.83,0.13,1.1,0.39c0.27,0.26,0.4,0.6,0.4,1.02c0,0.26-0.05,0.52-0.15,0.76l-3.35,8.71
			c-0.23,0.6-0.64,1.11-1.23,1.53c-0.59,0.43-1.18,0.64-1.77,0.64c-0.46,0-0.83-0.13-1.1-0.39c-0.27-0.26-0.4-0.6-0.4-1.02
			c0-0.26,0.05-0.51,0.15-0.76l0.85-2.18c-0.46,0-0.83-0.13-1.1-0.39c-0.27-0.26-0.4-0.6-0.4-1.02c0-0.26,0.05-0.51,0.15-0.76H78.3
			l-1.68,4.35c-0.23,0.6-0.64,1.11-1.23,1.53c-0.59,0.43-1.18,0.64-1.77,0.64c-0.46,0-0.83-0.13-1.1-0.39
			c-0.27-0.26-0.4-0.6-0.4-1.02c0-0.26,0.05-0.51,0.15-0.76l3.35-8.71c0.23-0.59,0.64-1.11,1.23-1.53c0.59-0.43,1.18-0.64,1.77-0.64
			c0.46,0,0.83,0.13,1.1,0.39c0.27,0.26,0.4,0.6,0.4,1.02c0,0.26-0.05,0.52-0.15,0.76c0.46,0,0.83,0.13,1.1,0.39
			c0.27,0.26,0.4,0.6,0.4,1.02c0,0.26-0.05,0.52-0.15,0.76h2.18l0.83-2.18c0.23-0.59,0.64-1.11,1.23-1.53
			C86.14,40.24,86.73,40.02,87.33,40.02z"/>
	</g>
	<g>
		<g>
			<path d="M69.26,34.33c-1.4,0-2.31-0.59-2.82-1.09c-0.51-0.5-0.86-1.1-1.03-1.78c-0.41,0.67-0.96,1.25-1.64,1.75
				c-1.01,0.74-2.1,1.11-3.22,1.11c-1.4,0-2.31-0.59-2.82-1.09c-0.51-0.5-0.86-1.1-1.03-1.77c-0.41,0.67-0.95,1.25-1.64,1.75
				c-1.01,0.74-2.1,1.11-3.22,1.11h-8.71c-1.4,0-2.31-0.59-2.82-1.09c-0.51-0.5-0.86-1.1-1.03-1.77c-0.41,0.67-0.95,1.25-1.64,1.75
				c-1.01,0.74-2.1,1.11-3.22,1.11c-1.4,0-2.31-0.59-2.82-1.09c-0.51-0.49-0.85-1.1-1.03-1.77c-0.41,0.67-0.95,1.25-1.64,1.75
				c-1.01,0.74-2.1,1.11-3.22,1.11c-1.4,0-2.31-0.59-2.82-1.09c-0.75-0.73-1.15-1.69-1.15-2.79c0-0.57,0.11-1.14,0.33-1.67
				l3.34-8.68c0.41-1.04,1.11-1.93,2.08-2.64c1.02-0.74,2.1-1.11,3.22-1.11c1.4,0,2.31,0.59,2.82,1.09c0.51,0.5,0.86,1.1,1.03,1.77
				c0.41-0.66,0.95-1.25,1.64-1.75c1.02-0.74,2.1-1.11,3.23-1.11c1.4,0,2.31,0.59,2.82,1.09c0.51,0.49,0.85,1.1,1.03,1.77
				c0.41-0.66,0.95-1.25,1.64-1.75c1.02-0.74,2.1-1.11,3.23-1.11h8.71c1.4,0,2.31,0.59,2.82,1.09c0.51,0.5,0.86,1.1,1.03,1.77
				c0.41-0.67,0.95-1.25,1.64-1.75c1.02-0.74,2.1-1.11,3.23-1.11c1.4,0,2.31,0.59,2.82,1.09c0.08,0.07,0.15,0.15,0.22,0.23
				c0.09-0.07,0.18-0.14,0.27-0.21c1.02-0.74,2.1-1.11,3.22-1.11h2.18c1.4,0,2.31,0.59,2.82,1.09c0.75,0.73,1.15,1.7,1.15,2.79
				c0,0.57-0.11,1.13-0.33,1.67l-3.34,8.68c-0.41,1.05-1.11,1.93-2.08,2.64C71.47,33.96,70.39,34.33,69.26,34.33z M66.01,28.4
				l-0.07,1.92c0,0.05,0,0.09,0,0.14c0,0.92,0.33,1.72,0.95,2.33c0.43,0.41,1.18,0.91,2.37,0.91c0.99,0,1.94-0.33,2.85-0.99
				c0.87-0.63,1.5-1.43,1.86-2.35l3.34-8.69c0.19-0.46,0.28-0.95,0.28-1.43c0-0.92-0.33-1.72-0.95-2.33
				c-0.43-0.41-1.18-0.91-2.37-0.91h-2.18c-0.99,0-1.94,0.33-2.85,0.99c-0.17,0.12-0.33,0.25-0.48,0.39L68.5,18.6l-0.21-0.29
				c-0.11-0.15-0.23-0.29-0.36-0.42c-0.43-0.41-1.18-0.91-2.37-0.91c-0.99,0-1.94,0.33-2.85,0.99c-0.87,0.63-1.5,1.43-1.86,2.35
				l-0.31,0.8l0,0l-3.04,7.89c-0.02,0.05-0.03,0.09-0.05,0.14l-0.2,0.58l-0.03,0.61c0,0.03,0,0.07,0,0.1c0,0.92,0.33,1.72,0.95,2.33
				c0.43,0.41,1.18,0.91,2.37,0.91c0.99,0,1.94-0.33,2.85-0.99c0.87-0.63,1.5-1.43,1.86-2.35L66.01,28.4z M39.85,29.74l-0.03,0.61
				c0,0.03,0,0.07,0,0.1c0,0.92,0.33,1.72,0.95,2.33c0.43,0.41,1.18,0.91,2.37,0.91h8.71c0.99,0,1.94-0.33,2.85-0.99
				c0.87-0.63,1.5-1.42,1.86-2.35c0.02-0.04,0.03-0.08,0.04-0.12l0.2-0.59l0.03-0.6c0-0.04,0.01-0.08,0.01-0.12
				c0-0.9-0.33-1.7-0.95-2.31c-0.29-0.28-0.79-0.65-1.51-0.82L54,25.7l0.28-0.72h0.93c0.99,0,1.94-0.33,2.85-0.99
				c0.45-0.33,0.84-0.7,1.16-1.11l0.91-1.19l0.06-1.39c0-0.03,0-0.05,0-0.08c0-0.92-0.33-1.72-0.95-2.33
				c-0.43-0.41-1.18-0.91-2.37-0.91h-8.71c-0.99,0-1.94,0.33-2.85,0.99c-0.87,0.63-1.49,1.41-1.85,2.33
				c-0.02,0.05-0.04,0.1-0.05,0.14l-0.2,0.58l-0.03,0.62c0,0.03,0,0.07,0,0.1c0,0.92,0.33,1.72,0.95,2.33
				c0.29,0.28,0.79,0.65,1.53,0.82l0.36,0.08l-0.28,0.72h-0.93c-0.98,0-1.94,0.33-2.85,0.98c-0.88,0.63-1.51,1.42-1.87,2.33
				c-0.02,0.05-0.04,0.1-0.05,0.15L39.85,29.74z M31.19,28.42l-0.07,1.9c0,0.05,0,0.09,0,0.14c0,0.92,0.33,1.72,0.95,2.33
				c0.43,0.41,1.18,0.91,2.37,0.91c0.99,0,1.94-0.33,2.85-0.99c0.87-0.63,1.5-1.42,1.86-2.35c0.02-0.04,0.03-0.08,0.04-0.12
				l0.2-0.59l0.03-0.6c0-0.04,0.01-0.08,0.01-0.12c0-0.9-0.33-1.7-0.95-2.31c-0.3-0.29-0.81-0.67-1.57-0.83l-0.32-0.07l0.07-0.32
				c0.02-0.07,0.03-0.14,0.04-0.21l0.05-0.33l0.32,0.06c0.23,0.04,0.48,0.07,0.73,0.07c0.99,0,1.94-0.33,2.85-0.99
				c0.87-0.63,1.49-1.41,1.85-2.33c0.02-0.05,0.04-0.1,0.05-0.14l0.2-0.58l0.03-0.61c0-0.03,0-0.07,0-0.1
				c0-0.92-0.33-1.72-0.95-2.33c-0.43-0.41-1.18-0.91-2.37-0.91c-0.99,0-1.94,0.33-2.85,0.99c-0.87,0.63-1.49,1.41-1.85,2.33
				c-0.02,0.06-0.05,0.12-0.07,0.18l-0.7,2l0.08-2.12c0-0.05,0-0.09,0-0.14c0-0.92-0.33-1.72-0.95-2.33
				c-0.43-0.41-1.18-0.91-2.37-0.91c-0.99,0-1.94,0.33-2.85,0.99c-0.87,0.63-1.5,1.43-1.86,2.35l-3.34,8.69
				c-0.19,0.46-0.28,0.95-0.28,1.44c0,0.92,0.33,1.72,0.95,2.33c0.43,0.41,1.18,0.91,2.37,0.91c0.99,0,1.94-0.33,2.85-0.99
				c0.87-0.63,1.49-1.42,1.85-2.35L31.19,28.42z M38.22,25.61c0.29,0.17,0.52,0.37,0.69,0.53c0.51,0.5,0.86,1.1,1.03,1.77
				c0.41-0.67,0.96-1.26,1.66-1.76c0.88-0.64,1.82-1,2.78-1.09c-0.3-0.18-0.53-0.37-0.7-0.53c-0.51-0.49-0.86-1.1-1.03-1.77
				c-0.41,0.66-0.95,1.25-1.64,1.75C40.13,25.16,39.19,25.53,38.22,25.61z M55.63,25.61c0.29,0.18,0.52,0.37,0.69,0.53
				c0.47,0.46,0.81,1.01,0.99,1.62l1.31-3.39c-0.06,0.05-0.12,0.1-0.19,0.14C57.54,25.16,56.6,25.53,55.63,25.61z"/>
		</g>
		<g>
			<path d="M90.2,57.72c-1.4,0-2.31-0.59-2.82-1.09c-0.75-0.73-1.15-1.69-1.15-2.78c-0.21,0.21-0.44,0.4-0.69,0.58
				c-1.01,0.74-2.1,1.11-3.22,1.11c-1.4,0-2.31-0.59-2.82-1.09c-0.51-0.5-0.86-1.1-1.03-1.78c-0.41,0.67-0.96,1.25-1.64,1.75
				c-1.01,0.74-2.1,1.11-3.22,1.11c-1.4,0-2.31-0.59-2.82-1.09c-0.51-0.5-0.86-1.1-1.03-1.78c-0.41,0.67-0.96,1.25-1.64,1.75
				c-1.01,0.74-2.1,1.11-3.22,1.11H56.2c-1.4,0-2.31-0.59-2.82-1.09c-0.51-0.5-0.86-1.1-1.03-1.77c-0.41,0.67-0.95,1.25-1.64,1.75
				c-1.01,0.74-2.1,1.11-3.22,1.11h-8.71c-1.4,0-2.31-0.59-2.82-1.09c-0.51-0.49-0.86-1.1-1.03-1.77c-0.41,0.67-0.96,1.25-1.64,1.75
				c-1.01,0.74-2.1,1.11-3.22,1.11c-1.4,0-2.31-0.59-2.82-1.09c-0.33-0.32-0.59-0.68-0.78-1.09h-0.74
				c-0.32,0.39-0.71,0.75-1.15,1.06c-1.01,0.74-2.1,1.11-3.22,1.11c-1.4,0-2.31-0.59-2.82-1.09c-0.51-0.49-0.86-1.1-1.03-1.77
				c-0.41,0.67-0.96,1.25-1.64,1.75c-1.01,0.74-2.1,1.11-3.22,1.11c-1.4,0-2.31-0.59-2.82-1.09c-0.51-0.49-0.85-1.1-1.03-1.77
				c-0.41,0.67-0.95,1.25-1.64,1.75c-1.01,0.74-2.1,1.11-3.22,1.11c-1.4,0-2.31-0.59-2.82-1.09C0.4,53.73,0,52.76,0,51.67
				C0,51.1,0.11,50.53,0.33,50l3.34-8.68c0.41-1.04,1.11-1.93,2.08-2.64c1.02-0.74,2.1-1.11,3.22-1.11c1.4,0,2.31,0.59,2.82,1.09
				c0.51,0.5,0.86,1.1,1.03,1.78c0.41-0.67,0.96-1.26,1.64-1.75c1.02-0.74,2.1-1.11,3.22-1.11c1.4,0,2.31,0.59,2.82,1.09
				c0.51,0.5,0.86,1.1,1.03,1.78c0.41-0.67,0.96-1.25,1.64-1.75c1.02-0.74,2.1-1.11,3.22-1.11h8.71c1.4,0,2.31,0.59,2.82,1.09
				c0.51,0.5,0.86,1.1,1.03,1.77c0.41-0.67,0.95-1.25,1.64-1.75c1.02-0.74,2.1-1.11,3.23-1.11h8.71c1.4,0,2.31,0.59,2.82,1.09
				c0.51,0.49,0.86,1.1,1.03,1.77c0.41-0.67,0.95-1.25,1.64-1.75c1.02-0.74,2.1-1.11,3.23-1.11c1.4,0,2.31,0.59,2.82,1.09
				c0.51,0.5,0.86,1.1,1.03,1.78c0.41-0.67,0.96-1.25,1.64-1.75c1.02-0.74,2.1-1.11,3.23-1.11c1.4,0,2.31,0.59,2.82,1.09
				c0.51,0.5,0.86,1.1,1.03,1.77c0.41-0.67,0.95-1.25,1.64-1.75c1.02-0.74,2.1-1.11,3.22-1.11c1.4,0,2.31,0.59,2.82,1.09
				c0.5,0.49,0.85,1.1,1.03,1.78c0.41-0.67,0.96-1.26,1.64-1.75c1.02-0.74,2.1-1.11,3.22-1.11c1.4,0,2.31,0.59,2.82,1.09
				c0.51,0.49,0.86,1.1,1.03,1.77c0.41-0.66,0.95-1.25,1.64-1.75c1.02-0.74,2.1-1.11,3.22-1.11c1.4,0,2.31,0.59,2.82,1.09v0
				c0.75,0.73,1.15,1.7,1.15,2.79c0,0.58-0.11,1.14-0.33,1.68c-0.41,1.03-1.1,1.91-2.07,2.61c-0.89,0.65-1.82,1.01-2.8,1.1
				c0.28,0.17,0.51,0.36,0.69,0.53c0.75,0.73,1.15,1.69,1.15,2.77c0,0.56-0.11,1.13-0.32,1.67l-0.82,2.16
				c-0.41,1.05-1.11,1.94-2.08,2.65C92.41,57.35,91.32,57.72,90.2,57.72z M87.4,51.31l-0.4,1.62c-0.08,0.31-0.12,0.62-0.12,0.91
				c0,0.92,0.33,1.72,0.95,2.33c0.43,0.41,1.18,0.91,2.37,0.91c0.98,0,1.94-0.33,2.85-0.99c0.87-0.63,1.5-1.43,1.86-2.36l0.82-2.16
				c0.18-0.47,0.28-0.96,0.28-1.44c0-0.9-0.33-1.7-0.95-2.31c-0.43-0.41-1.18-0.91-2.35-0.91c-0.98,0-1.94,0.33-2.85,0.98
				c-0.46,0.33-0.85,0.71-1.18,1.13l-1.35,1.75l3.04-7.9c0.02-0.05,0.03-0.09,0.05-0.13l0.2-0.58l0.03-0.62c0-0.03,0-0.07,0-0.1
				c0-0.92-0.33-1.72-0.95-2.33c-0.43-0.41-1.18-0.91-2.37-0.91c-0.99,0-1.94,0.33-2.85,0.99c-0.74,0.54-1.31,1.2-1.68,1.95
				l-0.19,0.39l-0.32-0.29c-0.09-0.08-0.18-0.16-0.28-0.23l-0.1-0.08l-0.02-0.13c-0.12-0.66-0.42-1.23-0.9-1.7
				c-0.43-0.41-1.18-0.91-2.37-0.91c-0.99,0-1.94,0.33-2.85,0.99c-0.87,0.63-1.5,1.43-1.86,2.35l-0.76,1.98l0.08-2.01
				c0-0.03,0-0.05,0-0.08c0-0.92-0.33-1.72-0.95-2.33c-0.43-0.41-1.18-0.91-2.37-0.91c-0.99,0-1.94,0.33-2.85,0.99
				c-0.87,0.63-1.5,1.43-1.86,2.36l-0.75,1.95l0.07-1.92c0-0.05,0-0.09,0-0.14c0-0.92-0.33-1.72-0.95-2.33
				c-0.43-0.41-1.18-0.91-2.37-0.91c-0.99,0-1.94,0.33-2.85,0.99c-0.87,0.63-1.5,1.43-1.86,2.35l-0.31,0.8l0,0l-3.04,7.89
				c-0.02,0.04-0.03,0.09-0.05,0.13l-0.2,0.58l-0.03,0.61c0,0.03,0,0.07,0,0.1c0,0.92,0.33,1.72,0.95,2.33
				c0.43,0.41,1.18,0.91,2.37,0.91h8.71c0.99,0,1.94-0.33,2.85-0.99c0.87-0.63,1.5-1.43,1.86-2.35l0.76-1.98l-0.08,2.01
				c0,0.03,0,0.05,0,0.08c0,0.92,0.33,1.72,0.95,2.33c0.43,0.41,1.18,0.91,2.37,0.91c0.99,0,1.94-0.33,2.85-0.99
				c0.87-0.63,1.5-1.43,1.86-2.35l0.75-1.96L79,51.53c0,0.05,0,0.09,0,0.14c0,0.92,0.33,1.72,0.95,2.33
				c0.43,0.41,1.18,0.91,2.37,0.91c0.99,0,1.94-0.33,2.85-0.99c0.49-0.36,0.92-0.78,1.25-1.25L87.4,51.31z M35.55,49.57l-0.08,2.01
				c0,0.03,0,0.05,0,0.08c0,0.92,0.33,1.72,0.95,2.33c0.43,0.41,1.18,0.91,2.37,0.91h8.71c0.99,0,1.94-0.33,2.85-0.99
				c0.87-0.63,1.5-1.42,1.86-2.35c0.02-0.04,0.03-0.08,0.04-0.12l0.2-0.59l0.03-0.6c0-0.04,0.01-0.08,0.01-0.12
				c0-0.9-0.33-1.7-0.95-2.31c-0.43-0.41-1.18-0.91-2.35-0.91h-0.36l-0.11-0.26l-0.19-0.45h2.33c0.99,0,1.94-0.33,2.85-0.99
				c0.45-0.33,0.84-0.7,1.16-1.11l0.91-1.19l0.06-1.39c0-0.03,0-0.05,0-0.08c0-0.92-0.33-1.72-0.95-2.33
				c-0.43-0.41-1.18-0.91-2.37-0.91H43.8c-0.99,0-1.94,0.33-2.85,0.99c-0.87,0.63-1.5,1.43-1.86,2.35l-0.77,1.99l0.08-2.01
				c0-0.03,0-0.05,0-0.08c0-0.92-0.33-1.72-0.95-2.33c-0.43-0.41-1.18-0.91-2.37-0.91h-8.71c-0.99,0-1.94,0.33-2.85,0.99
				c-0.87,0.63-1.5,1.43-1.86,2.35l-0.77,1.99L21,41.52c0-0.03,0-0.05,0-0.08c0-0.92-0.33-1.72-0.95-2.33
				c-0.43-0.41-1.18-0.91-2.37-0.91c-0.99,0-1.94,0.33-2.85,0.99c-0.87,0.63-1.5,1.43-1.86,2.36l-0.75,1.97l0.07-1.95
				c0-0.05,0-0.09,0-0.14c0-0.92-0.33-1.72-0.95-2.33c-0.43-0.41-1.18-0.91-2.37-0.91c-0.99,0-1.94,0.33-2.85,0.99
				c-0.87,0.63-1.5,1.43-1.86,2.35l-3.34,8.69c-0.19,0.46-0.28,0.95-0.28,1.44c0,0.92,0.33,1.72,0.95,2.33
				c0.43,0.41,1.18,0.91,2.37,0.91c0.99,0,1.94-0.33,2.85-0.99c0.87-0.63,1.49-1.42,1.85-2.35l0.75-1.93l-0.07,1.9
				c0,0.05,0,0.09,0,0.14c0,0.92,0.33,1.72,0.95,2.33c0.43,0.41,1.18,0.91,2.37,0.91c0.99,0,1.94-0.33,2.85-0.99
				c0.87-0.63,1.5-1.43,1.86-2.35l0.77-1.99l-0.08,2.01c0,0.03,0,0.05,0,0.08c0,0.92,0.33,1.72,0.95,2.33
				c0.43,0.41,1.18,0.91,2.37,0.91c0.99,0,1.94-0.33,2.85-0.99c0.43-0.32,0.81-0.67,1.12-1.06l0.1-0.12h1.48l0.08,0.2
				c0.16,0.4,0.4,0.76,0.72,1.07c0.43,0.41,1.18,0.91,2.37,0.91c0.99,0,1.94-0.33,2.85-0.99c0.87-0.63,1.5-1.43,1.86-2.35
				L35.55,49.57z M51.28,46.82c0.28,0.17,0.51,0.36,0.69,0.53c0.47,0.46,0.81,1.01,0.99,1.62l1.31-3.39
				c-0.06,0.05-0.12,0.1-0.19,0.14C53.19,46.37,52.25,46.74,51.28,46.82z M90.58,44.13l-1.31,3.41c0.07-0.05,0.14-0.11,0.21-0.16
				c0.88-0.64,1.82-1,2.78-1.09c-0.28-0.17-0.51-0.36-0.7-0.53C91.09,45.29,90.76,44.74,90.58,44.13z M91.09,42.24l-0.03,0.62
				c0,0.03,0,0.07,0,0.1c0,0.92,0.33,1.72,0.95,2.33c0.43,0.41,1.18,0.91,2.37,0.91c0.99,0,1.94-0.33,2.85-0.99
				c0.87-0.63,1.49-1.41,1.85-2.33c0.19-0.46,0.28-0.95,0.28-1.44c0-0.92-0.33-1.72-0.95-2.33c-0.43-0.41-1.18-0.91-2.37-0.91
				c-0.99,0-1.94,0.33-2.85,0.99c-0.87,0.63-1.49,1.41-1.85,2.33c-0.02,0.05-0.04,0.1-0.05,0.14L91.09,42.24z"/>
		</g>
	</g>
	<g>
		<path d="M92.7,48.73c0.45,0,0.81,0.13,1.08,0.39c0.27,0.26,0.4,0.6,0.4,1c0,0.26-0.05,0.52-0.15,0.78l-0.83,2.18
			c-0.23,0.59-0.64,1.11-1.23,1.53c-0.59,0.43-1.18,0.64-1.77,0.64c-0.46,0-0.83-0.13-1.1-0.39c-0.27-0.26-0.4-0.6-0.4-1.02
			c0-0.26,0.05-0.52,0.15-0.76l0.83-2.18c0.23-0.59,0.65-1.11,1.24-1.53C91.51,48.94,92.11,48.73,92.7,48.73z M94.38,44.38
			c-0.46,0-0.83-0.13-1.1-0.39c-0.27-0.26-0.4-0.6-0.4-1.02c0-0.26,0.05-0.51,0.15-0.76c0.23-0.59,0.64-1.11,1.23-1.53
			c0.59-0.43,1.18-0.64,1.77-0.64c0.46,0,0.83,0.13,1.1,0.39c0.27,0.26,0.4,0.6,0.4,1.02c0,0.26-0.05,0.52-0.15,0.76
			c-0.23,0.6-0.64,1.11-1.23,1.53C95.57,44.16,94.97,44.38,94.38,44.38z"/>
	</g>
</g>
</svg>
