<?xml version="1.0" encoding="utf-8"?>
<!-- Generator: Adobe Illustrator 27.9.0, SVG Export Plug-In . SVG Version: 6.00 Build 0)  -->
<svg version="1.1" id="레이어_1" xmlns="http://www.w3.org/2000/svg" xmlns:xlink="http://www.w3.org/1999/xlink" x="0px"
	 y="0px" width="25px" height="25px" viewBox="0 0 25 25" style="enable-background:new 0 0 25 25;" xml:space="preserve">
<style type="text/css">
	.st0{fill:#004179;}
</style>
<path class="st0" d="M20.5,20h-16C4.22,20,4,19.79,4,19.52v-9.37c0-0.26,0.22-0.48,0.5-0.48h16c0.28,0,0.5,0.21,0.5,0.48v9.37
	C21,19.79,20.78,20,20.5,20z M5,19.04H20v-8.41H5V19.04z"/>
<path class="st0" d="M20.5,10.63h-16c-0.28,0-0.5-0.21-0.5-0.48v-3.4c0-0.26,0.22-0.48,0.5-0.48h16c0.28,0,0.5,0.21,0.5,0.48v3.4
	C21,10.41,20.78,10.63,20.5,10.63z M5,9.67H20V7.22H5V9.67z"/>
<path class="st0" d="M7.16,8.49c-0.28,0-0.5-0.21-0.5-0.48V5.48C6.66,5.21,6.89,5,7.16,5c0.28,0,0.5,0.21,0.5,0.48v2.53
	C7.66,8.28,7.44,8.49,7.16,8.49z"/>
<path class="st0" d="M10.67,8.49c-0.28,0-0.5-0.21-0.5-0.48V5.48c0-0.26,0.22-0.48,0.5-0.48c0.28,0,0.5,0.21,0.5,0.48v2.53
	C11.17,8.28,10.94,8.49,10.67,8.49z"/>
<path class="st0" d="M14.17,8.49c-0.28,0-0.5-0.21-0.5-0.48V5.48c0-0.26,0.22-0.48,0.5-0.48s0.5,0.21,0.5,0.48v2.53
	C14.67,8.28,14.45,8.49,14.17,8.49z"/>
<path class="st0" d="M17.68,8.49c-0.28,0-0.5-0.21-0.5-0.48V5.48c0-0.26,0.22-0.48,0.5-0.48s0.5,0.21,0.5,0.48v2.53
	C18.18,8.28,17.95,8.49,17.68,8.49z"/>
<path class="st0" d="M9.02,13.89H8.1c-0.28,0-0.5-0.21-0.5-0.48s0.22-0.48,0.5-0.48h0.92c0.28,0,0.5,0.21,0.5,0.48
	S9.3,13.89,9.02,13.89z"/>
<path class="st0" d="M12.76,13.89h-0.92c-0.28,0-0.5-0.21-0.5-0.48s0.22-0.48,0.5-0.48h0.92c0.28,0,0.5,0.21,0.5,0.48
	S13.04,13.89,12.76,13.89z"/>
<path class="st0" d="M16.5,13.89h-0.92c-0.28,0-0.5-0.21-0.5-0.48s0.22-0.48,0.5-0.48h0.92c0.28,0,0.5,0.21,0.5,0.48
	S16.78,13.89,16.5,13.89z"/>
<path class="st0" d="M9.02,16.74H8.1c-0.28,0-0.5-0.21-0.5-0.48c0-0.26,0.22-0.48,0.5-0.48h0.92c0.28,0,0.5,0.21,0.5,0.48
	C9.52,16.53,9.3,16.74,9.02,16.74z"/>
<path class="st0" d="M12.76,16.74h-0.92c-0.28,0-0.5-0.21-0.5-0.48c0-0.26,0.22-0.48,0.5-0.48h0.92c0.28,0,0.5,0.21,0.5,0.48
	C13.26,16.53,13.04,16.74,12.76,16.74z"/>
<path class="st0" d="M16.5,16.74h-0.92c-0.28,0-0.5-0.21-0.5-0.48c0-0.26,0.22-0.48,0.5-0.48h0.92c0.28,0,0.5,0.21,0.5,0.48
	C17,16.53,16.78,16.74,16.5,16.74z"/>
</svg>
