<?xml version="1.0" encoding="utf-8"?>
<!-- Generator: Adobe Illustrator 27.9.0, SVG Export Plug-In . SVG Version: 6.00 Build 0)  -->
<svg version="1.1" id="레이어_1" xmlns="http://www.w3.org/2000/svg" xmlns:xlink="http://www.w3.org/1999/xlink" x="0px"
	 y="0px" width="50px" height="50px" viewBox="0 0 50 50" style="enable-background:new 0 0 50 50;" xml:space="preserve">
<style type="text/css">
	.st0{fill:url(#SVGID_1_);}
	.st1{fill:url(#SVGID_00000101799399537336712800000004611163687012842389_);}
	.st2{fill:#FFFFFF;}
	.st3{opacity:0.9;clip-path:url(#SVGID_00000152261562322116850710000009459268154544488584_);}
</style>
<linearGradient id="SVGID_1_" gradientUnits="userSpaceOnUse" x1="34.955" y1="26.9589" x2="34.955" y2="16.0764">
	<stop  offset="0" style="stop-color:#FFFFFF"/>
	<stop  offset="1" style="stop-color:#FFFFFF"/>
</linearGradient>
<path class="st0" d="M38.42,27.63h3.46c0.57,0,1.11-0.12,1.61-0.33c0.49-0.21,0.94-0.52,1.31-0.9c0.37-0.38,0.67-0.83,0.89-1.34
	C45.88,24.55,46,24,46,23.41c0-0.58-0.12-1.13-0.32-1.64s-0.51-0.96-0.89-1.34c-0.37-0.38-0.82-0.69-1.31-0.9s-1.04-0.33-1.61-0.33
	h-0.29H41.3h-0.29h-0.29c-0.02-0.79-0.2-1.54-0.51-2.22c-0.3-0.68-0.72-1.29-1.24-1.8s-1.13-0.93-1.81-1.22s-1.42-0.45-2.2-0.45
	c-0.78,0-1.52,0.16-2.2,0.45s-1.29,0.7-1.81,1.22c-0.52,0.51-0.94,1.13-1.24,1.8c-0.3,0.68-0.48,1.43-0.5,2.22h-0.29h-0.29h-0.29
	h-0.29c-0.57,0-1.11,0.12-1.61,0.33c-0.49,0.21-0.94,0.52-1.31,0.9s-0.67,0.83-0.89,1.34c-0.21,0.51-0.33,1.06-0.33,1.64
	s0.12,1.13,0.33,1.64s0.51,0.96,0.89,1.34c0.37,0.38,0.82,0.69,1.31,0.9s1.04,0.33,1.61,0.33h3.45h6.92V27.63z"/>
<linearGradient id="SVGID_00000093161632113919957540000002737749108396459932_" gradientUnits="userSpaceOnUse" x1="21.9116" y1="31.3118" x2="21.9116" y2="46.5471">
	<stop  offset="0" style="stop-color:#FFFFFF"/>
	<stop  offset="1" style="stop-color:#FFFFFF"/>
</linearGradient>
<path style="fill:url(#SVGID_00000093161632113919957540000002737749108396459932_);" d="M31,41.39c0.28,1.16-0.46,2.11-1.63,2.11
	H14.45c-1.17,0-1.9-0.95-1.63-2.11L14.8,33c0.28-1.16,1.46-2.11,2.63-2.11h8.95c1.17,0,2.36,0.95,2.63,2.11L31,41.39z"/>
<g>
	<g>
		<path id="SVGID_00000178185597349882500350000015562222067911603626_" class="st2" d="M39.82,30.44c0,2.4-1.91,4.35-4.26,4.35
			H8.26C5.91,34.79,4,32.84,4,30.44V10.85C4,8.45,5.91,6.5,8.26,6.5h27.29c2.35,0,4.26,1.95,4.26,4.35L39.82,30.44L39.82,30.44z"/>
	</g>
	<g>
		<g>
			<defs>
				<path id="SVGID_00000142167779457439426080000009769034343086770830_" d="M39.82,30.44c0,2.4-1.91,4.35-4.26,4.35H8.26
					C5.91,34.79,4,32.84,4,30.44V10.85C4,8.45,5.91,6.5,8.26,6.5h27.29c2.35,0,4.26,1.95,4.26,4.35L39.82,30.44L39.82,30.44z"/>
			</defs>
			<clipPath id="SVGID_00000163767025877989269190000007490437209426077868_">
				<use xlink:href="#SVGID_00000142167779457439426080000009769034343086770830_"  style="overflow:visible;"/>
			</clipPath>
			<g style="opacity:0.9;clip-path:url(#SVGID_00000163767025877989269190000007490437209426077868_);">
			</g>
		</g>
	</g>
</g>
<g>
	<path class="st2" d="M13.37,15.18c0,0.51-0.4,0.92-0.9,0.92H9.78c-0.49,0-0.9-0.41-0.9-0.92l0,0c0-0.51,0.4-0.92,0.9-0.92h2.69
		C12.96,14.26,13.37,14.68,13.37,15.18L13.37,15.18z"/>
	<path class="st2" d="M13.37,20.2c0,0.51-0.4,0.92-0.9,0.92H9.78c-0.49,0-0.9-0.41-0.9-0.92l0,0c0-0.51,0.4-0.92,0.9-0.92h2.69
		C12.96,19.29,13.37,19.7,13.37,20.2L13.37,20.2z"/>
	<path class="st2" d="M13.37,25.23c0,0.51-0.4,0.92-0.9,0.92H9.78c-0.49,0-0.9-0.41-0.9-0.92l0,0c0-0.51,0.4-0.92,0.9-0.92h2.69
		C12.96,24.31,13.37,24.72,13.37,25.23L13.37,25.23z"/>
</g>
</svg>
