<?xml version="1.0" encoding="utf-8"?>
<!-- Generator: Adobe Illustrator 27.9.0, SVG Export Plug-In . SVG Version: 6.00 Build 0)  -->
<svg version="1.1" id="레이어_1" xmlns="http://www.w3.org/2000/svg" xmlns:xlink="http://www.w3.org/1999/xlink" x="0px"
	 y="0px" width="30px" height="30px" viewBox="0 0 30 30" style="enable-background:new 0 0 30 30;" xml:space="preserve">
<style type="text/css">
	.st0{fill:#37A7F9;}
</style>
<path class="st0" d="M15,13.43c-3.32,0-6.64-0.7-9.73-2.1c-0.32-0.14-0.47-0.53-0.32-0.85c0.14-0.32,0.52-0.47,0.84-0.33
	c5.86,2.65,12.57,2.65,18.43,0c0.32-0.14,0.7,0,0.84,0.33c0.14,0.32,0,0.71-0.32,0.85C21.64,12.73,18.32,13.43,15,13.43z"/>
<path class="st0" d="M7.04,25H4.35C4,25,3.71,24.71,3.71,24.36V8.58c0-0.36,0.29-0.64,0.64-0.64h2.69c0.35,0,0.64,0.29,0.64,0.64
	v15.77C7.68,24.71,7.39,25,7.04,25z M4.98,23.71H6.4V9.23H4.98V23.71z"/>
<path class="st0" d="M5.69,10c-1.36,0-2.47-1.12-2.47-2.5C3.22,6.12,4.33,5,5.69,5c1.36,0,2.47,1.12,2.47,2.5
	C8.17,8.88,7.06,10,5.69,10z M5.69,6.29c-0.66,0-1.2,0.54-1.2,1.21s0.54,1.21,1.2,1.21s1.2-0.54,1.2-1.21S6.35,6.29,5.69,6.29z"/>
<path class="st0" d="M7.75,25H3.64C3.29,25,3,24.71,3,24.36s0.29-0.64,0.64-0.64h4.11c0.35,0,0.64,0.29,0.64,0.64S8.1,25,7.75,25z"
	/>
<path class="st0" d="M25.65,25h-2.69c-0.35,0-0.64-0.29-0.64-0.64V8.58c0-0.36,0.29-0.64,0.64-0.64h2.69c0.35,0,0.64,0.29,0.64,0.64
	v15.77C26.29,24.71,26,25,25.65,25z M23.6,23.71h1.42V9.23H23.6V23.71z"/>
<path class="st0" d="M24.31,10c-1.36,0-2.47-1.12-2.47-2.5c0-1.38,1.11-2.5,2.47-2.5s2.47,1.12,2.47,2.5
	C26.78,8.88,25.67,10,24.31,10z M24.31,6.29c-0.66,0-1.2,0.54-1.2,1.21s0.54,1.21,1.2,1.21s1.2-0.54,1.2-1.21S24.97,6.29,24.31,6.29
	z"/>
<path class="st0" d="M26.36,25h-4.11c-0.35,0-0.64-0.29-0.64-0.64s0.29-0.64,0.64-0.64h4.11c0.35,0,0.64,0.29,0.64,0.64
	S26.71,25,26.36,25z"/>
</svg>
