<?xml version="1.0" encoding="utf-8"?>
<!-- Generator: Adobe Illustrator 27.9.0, SVG Export Plug-In . SVG Version: 6.00 Build 0)  -->
<svg version="1.1" id="_x3C_Layer_x3E_" xmlns="http://www.w3.org/2000/svg" xmlns:xlink="http://www.w3.org/1999/xlink" x="0px"
	 y="0px" width="47px" height="38px" viewBox="0 0 47 38" style="enable-background:new 0 0 47 38;" xml:space="preserve">
<style type="text/css">
	.st0{fill:#FFFFFF;}
</style>
<path class="st0" d="M46.42,16.37L32.33,0.73C32.01,0.33,31.31,0,30.81,0l-1.57,0l10.21,18.55c0.45,0.8,0.32,1.6-0.35,2.24
	L24.89,34.31l3.73,3.45c0.35,0.32,0.96,0.32,1.31,0l16.44-14.4c0.36-0.35,0.63-0.97,0.63-1.47V18C47,17.39,46.8,16.85,46.42,16.37"
	/>
<path class="st0" d="M10.19,19.77L23.04,32.1c0.1,0.09,0.27,0.15,0.46,0.15h0c0.19,0,0.36-0.06,0.46-0.15l12.84-12.32
	c0.36-0.34,0.43-0.72,0.21-1.15L27.65,0h-1l6.91,17.9c0.24,0.6,0.26,1.09-0.32,1.65l-8.89,8.47c-0.43,0.41-1.26,0.41-1.69,0
	l-8.89-8.47c-0.58-0.56-0.56-1.05-0.32-1.65L20.34,0h-0.99L9.99,18.62C9.76,19.05,9.83,19.44,10.19,19.77"/>
<path class="st0" d="M0.58,16.37L14.67,0.72C14.99,0.33,15.69,0,16.19,0h1.56L7.54,18.55c-0.44,0.8-0.32,1.6,0.36,2.24l14.21,13.52
	l-3.73,3.45c-0.34,0.32-0.96,0.32-1.31-0.01L0.63,23.36C0.27,23.01,0,22.39,0,21.89V18C0,17.39,0.2,16.84,0.58,16.37"/>
<path class="st0" d="M31.25,17.75L25.19,0H24.5L29,17.11c0.07,0.3,0.13,0.74-0.27,1.13l-4.7,4.62c-0.13,0.13-0.33,0.2-0.53,0.2
	c-0.2,0-0.4-0.07-0.53-0.2l-4.7-4.62c-0.4-0.39-0.34-0.83-0.27-1.13L22.49,0h-0.68l-6.06,17.75c-0.09,0.28-0.02,0.64,0.16,0.82
	l7.17,6.96c0.11,0.1,0.27,0.15,0.42,0.15c0.15,0,0.31-0.05,0.41-0.15l7.18-6.96C31.27,18.39,31.34,18.03,31.25,17.75"/>
</svg>
