<?xml version="1.0" encoding="utf-8"?>
<!-- Generator: Adobe Illustrator 27.9.0, SVG Export Plug-In . SVG Version: 6.00 Build 0)  -->
<svg version="1.1" id="레이어_1" xmlns="http://www.w3.org/2000/svg" xmlns:xlink="http://www.w3.org/1999/xlink" x="0px"
	 y="0px" width="27px" height="31px" viewBox="0 0 27 31" style="enable-background:new 0 0 27 31;" xml:space="preserve">
<style type="text/css">
	.st0{fill:#0098FF;}
	.st1{fill:#C7ABF4;}
</style>
<g>
	<g>
		<path class="st0" d="M24.305,20.099H2.694C1.209,20.099,0,18.893,0,17.41V2.689C0,1.206,1.209,0,2.694,0h21.611
			C25.791,0,27,1.206,27,2.689V17.41C27,18.893,25.791,20.099,24.305,20.099z M2.694,1.758c-0.514,0-0.932,0.417-0.932,0.931V17.41
			c0,0.513,0.418,0.931,0.932,0.931h21.611c0.514,0,0.933-0.417,0.933-0.931V2.689c0-0.513-0.419-0.931-0.933-0.931H2.694z"/>
		<path class="st0" d="M13.5,27.796c-0.487,0-0.881-0.394-0.881-0.879v-7.471c0-0.485,0.394-0.879,0.881-0.879
			s0.881,0.394,0.881,0.879v7.471C14.38,27.402,13.986,27.796,13.5,27.796z"/>
		<path class="st0" d="M23.707,31c-0.094,0-0.19-0.015-0.284-0.047L13.5,27.572l-9.923,3.381c-0.459,0.156-0.961-0.088-1.118-0.548
			c-0.157-0.46,0.089-0.959,0.549-1.116l10.208-3.477c0.184-0.063,0.385-0.063,0.569,0l10.207,3.477
			c0.461,0.157,0.707,0.656,0.549,1.116C24.416,30.77,24.073,31,23.707,31z"/>
	</g>
	<g>
		<path class="st1" d="M21.543,8.99H17.39c-0.486,0-0.881-0.393-0.881-0.879c0-0.486,0.395-0.879,0.881-0.879h4.153
			c0.486,0,0.881,0.393,0.881,0.879C22.424,8.596,22.029,8.99,21.543,8.99z"/>
		<path class="st1" d="M21.543,13.134h-7.615c-0.487,0-0.881-0.393-0.881-0.879c0-0.486,0.394-0.879,0.881-0.879h7.615
			c0.486,0,0.881,0.393,0.881,0.879C22.424,12.741,22.029,13.134,21.543,13.134z"/>
	</g>
	<path class="st0" d="M4.832,24.025c-0.487,0-0.881-0.394-0.881-0.879v-3.516c0-0.485,0.394-0.879,0.881-0.879
		s0.881,0.394,0.881,0.879v3.516C5.713,23.631,5.319,24.025,4.832,24.025z"/>
</g>
</svg>
