<?xml version="1.0" encoding="utf-8"?>
<!-- Generator: Adobe Illustrator 27.9.0, SVG Export Plug-In . SVG Version: 6.00 Build 0)  -->
<svg version="1.1" id="타이틀" xmlns="http://www.w3.org/2000/svg" xmlns:xlink="http://www.w3.org/1999/xlink" x="0px" y="0px"
	 width="33px" height="32px" viewBox="0 0 33 32" style="enable-background:new 0 0 33 32;" xml:space="preserve">
<style type="text/css">
	.st0{fill:#0098FF;}
	.st1{fill:#68D878;}
</style>
<g>
	<g>
		<g>
			<path class="st0" d="M29.252,32H3.748c-0.25,0-0.503-0.026-0.752-0.077c-0.239-0.048-0.469-0.12-0.703-0.219
				c-0.225-0.096-0.441-0.214-0.643-0.353c-0.193-0.132-0.379-0.287-0.551-0.46c-0.172-0.176-0.324-0.363-0.457-0.561
				c-0.135-0.203-0.252-0.42-0.347-0.647c-0.097-0.231-0.171-0.473-0.219-0.718C0.026,28.718,0,28.46,0,28.205V5.8
				c0-0.255,0.026-0.513,0.077-0.765C0.125,4.793,0.199,4.551,0.296,4.32c0.093-0.223,0.209-0.441,0.345-0.644
				c0.134-0.2,0.287-0.387,0.455-0.558C1.267,2.945,1.454,2.789,1.65,2.654C1.845,2.52,2.06,2.401,2.288,2.303
				C2.52,2.205,2.758,2.13,2.997,2.081c0.236-0.05,0.49-0.076,0.75-0.076h2.536c0.511,0,0.924,0.419,0.924,0.936
				S6.795,3.877,6.284,3.877H3.748c-0.132,0-0.26,0.013-0.378,0.038C3.241,3.941,3.125,3.978,3.007,4.028
				C2.894,4.077,2.787,4.135,2.69,4.202c-0.103,0.071-0.198,0.15-0.285,0.239C2.319,4.528,2.24,4.625,2.171,4.728
				C2.103,4.83,2.046,4.935,1.998,5.05c-0.049,0.117-0.085,0.236-0.11,0.356C1.862,5.54,1.849,5.671,1.849,5.8v22.405
				c0,0.129,0.013,0.259,0.039,0.388c0.025,0.126,0.061,0.245,0.109,0.359c0.049,0.118,0.108,0.228,0.175,0.328
				c0.068,0.101,0.148,0.199,0.236,0.289c0.084,0.084,0.179,0.164,0.277,0.231c0.104,0.071,0.211,0.13,0.321,0.177
				c0.118,0.05,0.236,0.087,0.356,0.111c0.13,0.027,0.259,0.04,0.386,0.04h25.504c0.128,0,0.257-0.013,0.384-0.04
				c0.124-0.025,0.24-0.062,0.358-0.112c0.11-0.047,0.218-0.106,0.32-0.176c0.1-0.068,0.193-0.146,0.281-0.235
				c0.089-0.091,0.167-0.186,0.228-0.279c0.071-0.107,0.13-0.217,0.179-0.334c0.049-0.116,0.086-0.235,0.11-0.357
				c0.026-0.13,0.039-0.262,0.039-0.391V5.8c0-0.129-0.013-0.26-0.039-0.391c-0.024-0.122-0.061-0.241-0.108-0.352
				c-0.051-0.122-0.107-0.228-0.176-0.33c-0.067-0.102-0.144-0.196-0.233-0.287c-0.088-0.09-0.182-0.168-0.28-0.236
				c-0.101-0.069-0.209-0.129-0.324-0.178c-0.116-0.05-0.231-0.086-0.353-0.111c-0.126-0.027-0.253-0.04-0.386-0.04h-2.536
				c-0.511,0-0.924-0.419-0.924-0.936s0.414-0.936,0.924-0.936h2.536c0.261,0,0.516,0.026,0.759,0.078
				c0.233,0.048,0.472,0.122,0.701,0.22c0.226,0.097,0.441,0.215,0.639,0.352c0.195,0.133,0.382,0.289,0.552,0.463
				c0.175,0.177,0.33,0.368,0.46,0.565c0.131,0.195,0.248,0.413,0.342,0.64c0.094,0.222,0.169,0.464,0.218,0.712
				C32.974,5.29,33,5.546,33,5.8v22.405c0,0.253-0.026,0.51-0.076,0.762c-0.05,0.247-0.124,0.489-0.221,0.719
				c-0.094,0.224-0.21,0.441-0.344,0.642c-0.124,0.19-0.279,0.38-0.456,0.56c-0.174,0.176-0.361,0.332-0.557,0.466
				c-0.2,0.137-0.415,0.255-0.637,0.349c-0.229,0.097-0.466,0.172-0.706,0.221C29.756,31.974,29.503,32,29.252,32z"/>
			<path class="st0" d="M19.036,3.877h-5.072c-0.511,0-0.924-0.419-0.924-0.936s0.414-0.936,0.924-0.936h5.072
				c0.511,0,0.924,0.419,0.924,0.936S19.546,3.877,19.036,3.877z"/>
			<g>
				<path class="st0" d="M10.214,5.402c-0.511,0-0.924-0.419-0.924-0.936v-3.53C9.29,0.419,9.704,0,10.214,0
					s0.924,0.419,0.924,0.936v3.53C11.139,4.983,10.725,5.402,10.214,5.402z"/>
				<path class="st0" d="M22.786,5.402c-0.511,0-0.924-0.419-0.924-0.936v-3.53C21.861,0.419,22.275,0,22.786,0
					c0.511,0,0.924,0.419,0.924,0.936v3.53C23.71,4.983,23.296,5.402,22.786,5.402z"/>
			</g>
		</g>
		<path class="st0" d="M31.419,10.538H1.207c-0.511,0-0.924-0.419-0.924-0.936s0.414-0.936,0.924-0.936h30.212
			c0.511,0,0.924,0.419,0.924,0.936S31.929,10.538,31.419,10.538z"/>
	</g>
	<g>
		<g>
			<path class="st1" d="M10.153,17.752H7.588c-0.511,0-0.924-0.419-0.924-0.936c0-0.517,0.414-0.936,0.924-0.936h2.565
				c0.511,0,0.924,0.419,0.924,0.936C11.077,17.333,10.664,17.752,10.153,17.752z"/>
			<path class="st1" d="M17.782,17.752h-2.565c-0.511,0-0.924-0.419-0.924-0.936c0-0.517,0.414-0.936,0.924-0.936h2.565
				c0.511,0,0.924,0.419,0.924,0.936C18.707,17.333,18.293,17.752,17.782,17.752z"/>
			<path class="st1" d="M25.412,17.752h-2.565c-0.511,0-0.924-0.419-0.924-0.936c0-0.517,0.414-0.936,0.924-0.936h2.565
				c0.511,0,0.924,0.419,0.924,0.936C26.336,17.333,25.922,17.752,25.412,17.752z"/>
		</g>
		<g>
			<path class="st1" d="M10.153,24.42H7.588c-0.511,0-0.924-0.419-0.924-0.936s0.414-0.936,0.924-0.936h2.565
				c0.511,0,0.924,0.419,0.924,0.936S10.664,24.42,10.153,24.42z"/>
			<path class="st1" d="M17.782,24.42h-2.565c-0.511,0-0.924-0.419-0.924-0.936s0.414-0.936,0.924-0.936h2.565
				c0.511,0,0.924,0.419,0.924,0.936S18.293,24.42,17.782,24.42z"/>
			<path class="st1" d="M25.412,24.42h-2.565c-0.511,0-0.924-0.419-0.924-0.936s0.414-0.936,0.924-0.936h2.565
				c0.511,0,0.924,0.419,0.924,0.936S25.922,24.42,25.412,24.42z"/>
		</g>
	</g>
</g>
</svg>
