<?xml version="1.0" encoding="utf-8"?>
<!-- Generator: Adobe Illustrator 27.9.0, SVG Export Plug-In . SVG Version: 6.00 Build 0)  -->
<svg version="1.1" id="레이어_1" xmlns="http://www.w3.org/2000/svg" xmlns:xlink="http://www.w3.org/1999/xlink" x="0px"
	 y="0px" width="25px" height="25px" viewBox="0 0 25 25" style="enable-background:new 0 0 25 25;" xml:space="preserve">
<style type="text/css">
	.st0{fill:#154575;}
</style>
<g>
	<g>
		<path class="st0" d="M19.37,15.04H9.34c-0.31,0-0.56-0.24-0.56-0.54s0.25-0.54,0.56-0.54h9.86l-1.9-2.94
			c-0.37-0.6-0.37-1.53-0.01-2.13l2.04-3.43c0.05-0.08,0.04-0.13,0.03-0.14L5.97,5.35c-0.31,0-0.56-0.24-0.56-0.54
			c0-0.3,0.25-0.54,0.56-0.54h13.4c0.41,0,0.78,0.2,0.98,0.53c0.22,0.36,0.2,0.82-0.03,1.21l-2.05,3.43c-0.16,0.26-0.16,0.78,0,1.03
			l2.04,3.16c0.28,0.46,0.2,0.78,0.09,0.97C20.14,15.04,19.56,15.04,19.37,15.04z"/>
	</g>
	<g>
		<path class="st0" d="M5.97,25c-0.31,0-0.56-0.24-0.56-0.54V1.58c0-0.3,0.25-0.54,0.56-0.54c0.31,0,0.56,0.24,0.56,0.54v22.88
			C6.53,24.76,6.28,25,5.97,25z"/>
	</g>
	<path class="st0" d="M7.52,1.45c0,0.8-0.67,1.45-1.51,1.45c-0.83,0-1.51-0.65-1.51-1.45C4.5,0.65,5.17,0,6.01,0
		C6.84,0,7.52,0.65,7.52,1.45z"/>
</g>
</svg>
