<?xml version="1.0" encoding="utf-8"?>
<!-- Generator: Adobe Illustrator 27.9.0, SVG Export Plug-In . SVG Version: 6.00 Build 0)  -->
<svg version="1.1" id="레이어_1" xmlns="http://www.w3.org/2000/svg" xmlns:xlink="http://www.w3.org/1999/xlink" x="0px"
	 y="0px" width="14px" height="12px" viewBox="0 0 14 12" style="enable-background:new 0 0 14 12;" xml:space="preserve">
<style type="text/css">
	.st0{fill:#B1B8C7;}
</style>
<path class="st0" d="M13.5,12h-13C0.22,12,0,11.78,0,11.5V4.16c0-0.28,0.22-0.5,0.5-0.5h13c0.28,0,0.5,0.22,0.5,0.5v7.34
	C14,11.78,13.78,12,13.5,12z M1,11h12V4.66H1V11z"/>
<path class="st0" d="M13.5,4.66h-13C0.22,4.66,0,4.44,0,4.16V1.49c0-0.28,0.22-0.5,0.5-0.5h13c0.28,0,0.5,0.22,0.5,0.5v2.67
	C14,4.44,13.78,4.66,13.5,4.66z M1,3.66h12V1.99H1V3.66z"/>
<path class="st0" d="M2.66,2.98c-0.28,0-0.5-0.22-0.5-0.5V0.5c0-0.28,0.22-0.5,0.5-0.5s0.5,0.22,0.5,0.5v1.98
	C3.16,2.76,2.94,2.98,2.66,2.98z"/>
<path class="st0" d="M5.51,2.98c-0.28,0-0.5-0.22-0.5-0.5V0.5c0-0.28,0.22-0.5,0.5-0.5s0.5,0.22,0.5,0.5v1.98
	C6.01,2.76,5.79,2.98,5.51,2.98z"/>
<path class="st0" d="M8.36,2.98c-0.28,0-0.5-0.22-0.5-0.5V0.5c0-0.28,0.22-0.5,0.5-0.5s0.5,0.22,0.5,0.5v1.98
	C8.86,2.76,8.64,2.98,8.36,2.98z"/>
<path class="st0" d="M11.21,2.98c-0.28,0-0.5-0.22-0.5-0.5V0.5c0-0.28,0.22-0.5,0.5-0.5s0.5,0.22,0.5,0.5v1.98
	C11.71,2.76,11.48,2.98,11.21,2.98z"/>
<path class="st0" d="M4.17,7.21H3.43c-0.28,0-0.5-0.22-0.5-0.5s0.22-0.5,0.5-0.5h0.74c0.28,0,0.5,0.22,0.5,0.5S4.45,7.21,4.17,7.21z
	"/>
<path class="st0" d="M7.21,7.21H6.47c-0.28,0-0.5-0.22-0.5-0.5s0.22-0.5,0.5-0.5h0.74c0.28,0,0.5,0.22,0.5,0.5S7.49,7.21,7.21,7.21z
	"/>
<path class="st0" d="M10.25,7.21H9.51c-0.28,0-0.5-0.22-0.5-0.5s0.22-0.5,0.5-0.5h0.74c0.28,0,0.5,0.22,0.5,0.5
	S10.53,7.21,10.25,7.21z"/>
<path class="st0" d="M4.17,9.45H3.43c-0.28,0-0.5-0.22-0.5-0.5s0.22-0.5,0.5-0.5h0.74c0.28,0,0.5,0.22,0.5,0.5S4.45,9.45,4.17,9.45z
	"/>
<path class="st0" d="M7.21,9.45H6.47c-0.28,0-0.5-0.22-0.5-0.5s0.22-0.5,0.5-0.5h0.74c0.28,0,0.5,0.22,0.5,0.5S7.49,9.45,7.21,9.45z
	"/>
<path class="st0" d="M10.25,9.45H9.51c-0.28,0-0.5-0.22-0.5-0.5s0.22-0.5,0.5-0.5h0.74c0.28,0,0.5,0.22,0.5,0.5
	S10.53,9.45,10.25,9.45z"/>
</svg>
