<?xml version="1.0" encoding="utf-8"?>
<!-- Generator: Adobe Illustrator 27.9.0, SVG Export Plug-In . SVG Version: 6.00 Build 0)  -->
<svg version="1.1" id="타이틀" xmlns="http://www.w3.org/2000/svg" xmlns:xlink="http://www.w3.org/1999/xlink" x="0px" y="0px"
	 width="30px" height="35px" viewBox="0 0 30 35" style="enable-background:new 0 0 30 35;" xml:space="preserve">
<style type="text/css">
	.st0{fill:#0098FF;}
	.st1{fill:#FF9292;}
</style>
<g>
	<path class="st0" d="M21.441,35H5.905c-0.49,0-0.886-0.398-0.886-0.89c0-0.492,0.397-0.89,0.886-0.89h15.535
		c0.49,0,0.886,0.398,0.886,0.89C22.327,34.602,21.93,35,21.441,35z"/>
	<path class="st0" d="M22.806,30.028H4.54C2.036,30.028,0,27.983,0,25.47V11.166c0-2.513,2.036-4.558,4.54-4.558h8.811v1.78H4.54
		c-1.526,0-2.767,1.246-2.767,2.778V25.47c0,1.532,1.241,2.778,2.767,2.778h18.267c1.526,0,2.767-1.246,2.767-2.778V14.341h1.772
		V25.47C27.345,27.983,25.309,30.028,22.806,30.028z"/>
	<g>
		<path class="st1" d="M21.523,17.023c-4.674,0-8.477-3.818-8.477-8.511C13.046,3.819,16.849,0,21.523,0C26.197,0,30,3.819,30,8.512
			C30,13.205,26.197,17.023,21.523,17.023z M21.523,1.78c-3.697,0-6.704,3.02-6.704,6.733c0,3.712,3.007,6.731,6.704,6.731
			c3.697,0,6.705-3.019,6.705-6.731C28.228,4.8,25.22,1.78,21.523,1.78z"/>
		<path class="st1" d="M20.788,12.042c-0.234,0-0.46-0.093-0.627-0.261l-2.569-2.58c-0.346-0.348-0.346-0.911,0-1.258
			c0.346-0.348,0.908-0.348,1.253,0l1.854,1.862l3.423-4.477c0.298-0.39,0.855-0.463,1.242-0.164
			c0.388,0.299,0.462,0.858,0.164,1.247l-4.038,5.282c-0.155,0.203-0.391,0.33-0.645,0.346
			C20.827,12.041,20.808,12.042,20.788,12.042z"/>
	</g>
</g>
<path class="st1" d="M8.513,16.987H4.411c-0.49,0-0.886-0.398-0.886-0.89v-4.119c0-0.492,0.397-0.89,0.886-0.89h4.102
	c0.49,0,0.886,0.398,0.886,0.89v4.119C9.4,16.589,9.003,16.987,8.513,16.987z M5.297,15.208h2.33v-2.339h-2.33V15.208z"/>
<path class="st0" d="M8.513,24.838H4.411c-0.49,0-0.886-0.398-0.886-0.89V19.83c0-0.492,0.397-0.89,0.886-0.89h4.102
	c0.49,0,0.886,0.398,0.886,0.89v4.119C9.4,24.44,9.003,24.838,8.513,24.838z M5.297,23.059h2.33V20.72h-2.33V23.059z"/>
</svg>
