<?xml version="1.0" encoding="utf-8"?>
<!-- Generator: Adobe Illustrator 27.9.0, SVG Export Plug-In . SVG Version: 6.00 Build 0)  -->
<svg version="1.1" id="레이어_1" xmlns="http://www.w3.org/2000/svg" xmlns:xlink="http://www.w3.org/1999/xlink" x="0px"
	 y="0px" width="30px" height="30px" viewBox="0 0 30 30" style="enable-background:new 0 0 30 30;" xml:space="preserve">
<style type="text/css">
	.st0{fill:#36A5F7;}
</style>
<path class="st0" d="M25.82,25.5H4.18c-0.37,0-0.68-0.3-0.68-0.67V11.71c0-0.37,0.3-0.67,0.68-0.67h21.64c0.37,0,0.68,0.3,0.68,0.67
	v13.12C26.5,25.2,26.2,25.5,25.82,25.5z M4.86,24.16h20.28V12.38H4.86V24.16z"/>
<path class="st0" d="M25.82,12.38H4.18c-0.37,0-0.68-0.3-0.68-0.67V6.94c0-0.37,0.3-0.67,0.68-0.67h21.64c0.37,0,0.68,0.3,0.68,0.67
	v4.77C26.5,12.08,26.2,12.38,25.82,12.38z M4.86,11.04h20.28V7.61H4.86V11.04z"/>
<path class="st0" d="M7.78,9.39c-0.37,0-0.68-0.3-0.68-0.67V5.17C7.1,4.8,7.4,4.5,7.78,4.5c0.37,0,0.68,0.3,0.68,0.67v3.55
	C8.46,9.09,8.15,9.39,7.78,9.39z"/>
<path class="st0" d="M12.52,9.39c-0.37,0-0.68-0.3-0.68-0.67V5.17c0-0.37,0.3-0.67,0.68-0.67c0.37,0,0.68,0.3,0.68,0.67v3.55
	C13.2,9.09,12.9,9.39,12.52,9.39z"/>
<path class="st0" d="M17.26,9.39c-0.37,0-0.68-0.3-0.68-0.67V5.17c0-0.37,0.3-0.67,0.68-0.67c0.38,0,0.68,0.3,0.68,0.67v3.55
	C17.94,9.09,17.64,9.39,17.26,9.39z"/>
<path class="st0" d="M22,9.39c-0.37,0-0.68-0.3-0.68-0.67V5.17c0-0.37,0.3-0.67,0.68-0.67c0.37,0,0.68,0.3,0.68,0.67v3.55
	C22.68,9.09,22.38,9.39,22,9.39z"/>
<path class="st0" d="M10.29,16.94H9.05c-0.37,0-0.68-0.3-0.68-0.67c0-0.37,0.3-0.67,0.68-0.67h1.24c0.37,0,0.68,0.3,0.68,0.67
	C10.97,16.64,10.67,16.94,10.29,16.94z"/>
<path class="st0" d="M15.35,16.94h-1.24c-0.37,0-0.68-0.3-0.68-0.67c0-0.37,0.3-0.67,0.68-0.67h1.24c0.37,0,0.68,0.3,0.68,0.67
	C16.03,16.64,15.73,16.94,15.35,16.94z"/>
<path class="st0" d="M20.41,16.94h-1.24c-0.37,0-0.68-0.3-0.68-0.67c0-0.37,0.3-0.67,0.68-0.67h1.24c0.37,0,0.68,0.3,0.68,0.67
	C21.09,16.64,20.79,16.94,20.41,16.94z"/>
<path class="st0" d="M10.29,20.94H9.05c-0.37,0-0.68-0.3-0.68-0.67s0.3-0.67,0.68-0.67h1.24c0.37,0,0.68,0.3,0.68,0.67
	S10.67,20.94,10.29,20.94z"/>
<path class="st0" d="M15.35,20.94h-1.24c-0.37,0-0.68-0.3-0.68-0.67s0.3-0.67,0.68-0.67h1.24c0.37,0,0.68,0.3,0.68,0.67
	S15.73,20.94,15.35,20.94z"/>
<path class="st0" d="M20.41,20.94h-1.24c-0.37,0-0.68-0.3-0.68-0.67s0.3-0.67,0.68-0.67h1.24c0.37,0,0.68,0.3,0.68,0.67
	S20.79,20.94,20.41,20.94z"/>
</svg>
