<?xml version="1.0" encoding="utf-8"?>
<!-- Generator: Adobe Illustrator 27.9.0, SVG Export Plug-In . SVG Version: 6.00 Build 0)  -->
<svg version="1.1" id="레이어_1" xmlns="http://www.w3.org/2000/svg" xmlns:xlink="http://www.w3.org/1999/xlink" x="0px"
	 y="0px" width="30px" height="30px" viewBox="0 0 30 30" style="enable-background:new 0 0 30 30;" xml:space="preserve">
<style type="text/css">
	.st0{fill:#37A7F9;}
</style>
<path class="st0" d="M4.63,25c-0.06,0-0.13-0.01-0.19-0.03C4.18,24.89,4,24.64,4,24.36V12.1c0-1.44,1.16-2.61,2.58-2.61h5.45
	c0.35,0,0.63,0.29,0.63,0.64v3.51c0,0.74,0.59,1.34,1.32,1.34h3.99c0.35,0,0.63,0.29,0.63,0.64v2.52c0,1.44-1.16,2.61-2.58,2.61
	H7.87l-2.72,3.99C5.03,24.9,4.83,25,4.63,25z M6.58,10.76c-0.73,0-1.32,0.6-1.32,1.34v10.22l1.76-2.58
	c0.12-0.17,0.31-0.28,0.52-0.28h8.48c0.73,0,1.32-0.6,1.32-1.34v-1.88h-3.36c-1.42,0-2.58-1.17-2.58-2.61v-2.87H6.58z"/>
<path class="st0" d="M25.37,20.51c-0.2,0-0.4-0.1-0.52-0.28l-2.72-3.99h-4.16c-0.35,0-0.63-0.29-0.63-0.64V12.1
	c0-0.74-0.59-1.34-1.32-1.34h-3.99c-0.35,0-0.63-0.29-0.63-0.64V7.61C11.4,6.17,12.56,5,13.98,5h9.44C24.84,5,26,6.17,26,7.61v12.26
	c0,0.28-0.18,0.52-0.44,0.61C25.5,20.5,25.43,20.51,25.37,20.51z M18.6,14.97h3.86c0.21,0,0.4,0.1,0.52,0.28l1.76,2.58V7.61
	c0-0.74-0.59-1.34-1.32-1.34h-9.44c-0.73,0-1.32,0.6-1.32,1.34v1.88h3.36c1.42,0,2.58,1.17,2.58,2.61V14.97z"/>
<path class="st0" d="M17.97,16.24h-3.99c-1.42,0-2.58-1.17-2.58-2.61v-3.51c0-0.35,0.28-0.64,0.63-0.64h3.99
	c1.42,0,2.58,1.17,2.58,2.61v3.51C18.6,15.96,18.32,16.24,17.97,16.24z M12.66,10.76v2.87c0,0.74,0.59,1.34,1.32,1.34h3.36V12.1
	c0-0.74-0.59-1.34-1.32-1.34H12.66z"/>
</svg>
