<?xml version="1.0" encoding="utf-8"?>
<!-- Generator: Adobe Illustrator 27.9.0, SVG Export Plug-In . SVG Version: 6.00 Build 0)  -->
<svg version="1.1" id="레이어_1" xmlns="http://www.w3.org/2000/svg" xmlns:xlink="http://www.w3.org/1999/xlink" x="0px"
	 y="0px" width="30px" height="30px" viewBox="0 0 30 30" style="enable-background:new 0 0 30 30;" xml:space="preserve">
<style type="text/css">
	.st0{fill:#36A5F7;}
</style>
<path class="st0" d="M15,25.5c-4.22,0-8.5-1.18-8.5-3.43c0-1.9,3.07-2.95,5.95-3.28c0.39-0.05,0.74,0.21,0.78,0.58
	c0.05,0.37-0.23,0.7-0.61,0.75C9.4,20.49,7.9,21.5,7.9,22.07c0,0.85,2.76,2.09,7.1,2.09c4.33,0,7.1-1.24,7.1-2.09
	c0-0.56-1.5-1.57-4.71-1.96c-0.38-0.05-0.66-0.38-0.61-0.75c0.05-0.37,0.4-0.63,0.78-0.58c2.87,0.34,5.94,1.38,5.94,3.28
	C23.5,24.32,19.22,25.5,15,25.5z"/>
<path class="st0" d="M15,22.74c-0.22,0-0.42-0.1-0.56-0.26c-0.65-0.81-6.36-7.98-6.36-11.38c0-3.64,3.1-6.6,6.92-6.6
	c3.82,0,6.92,2.96,6.92,6.6c0,3.4-5.71,10.57-6.36,11.38C15.42,22.64,15.22,22.74,15,22.74z M15,5.84c-3.04,0-5.52,2.36-5.52,5.26
	c0,2.26,3.58,7.36,5.52,9.86c1.94-2.5,5.52-7.6,5.52-9.86C20.52,8.2,18.04,5.84,15,5.84z"/>
<path class="st0" d="M15,13.47c-1.37,0-2.49-1.06-2.49-2.37c0-1.31,1.12-2.37,2.49-2.37s2.49,1.06,2.49,2.37
	C17.49,12.4,16.37,13.47,15,13.47z M15,10.06c-0.6,0-1.08,0.46-1.08,1.03c0,0.57,0.49,1.03,1.08,1.03s1.08-0.46,1.08-1.03
	C16.08,10.53,15.6,10.06,15,10.06z"/>
</svg>
