<?xml version="1.0" encoding="utf-8"?>
<!-- Generator: Adobe Illustrator 27.9.0, SVG Export Plug-In . SVG Version: 6.00 Build 0)  -->
<svg version="1.1" id="레이어_1" xmlns="http://www.w3.org/2000/svg" xmlns:xlink="http://www.w3.org/1999/xlink" x="0px"
	 y="0px" width="25px" height="25px" viewBox="0 0 25 25" style="enable-background:new 0 0 25 25;" xml:space="preserve">
<style type="text/css">
	.st0{fill:#154575;}
</style>
<g>
	<g>
		<g>
			<path class="st0" d="M10.59,22.91c-0.18,0-0.35-0.05-0.5-0.14c-0.33-0.21-0.53-0.61-0.53-1.1l-0.05-5.15
				c-0.12-1.12,0.59-2.4,0.67-2.55l3.99-7.45c0.14-0.25,0.44-0.34,0.67-0.19c0.24,0.15,0.32,0.47,0.18,0.73l-4,7.46
				c-0.18,0.32-0.61,1.26-0.54,1.9c0,0.02,0,0.04,0,0.06l0.05,5.18c0,0.13,0.03,0.19,0.04,0.2c0,0,0.06,0,0.16-0.06l4.19-2.55
				c0.08-0.05,0.14-0.1,0.16-0.13l-3.07-1.91c-0.24-0.15-0.32-0.47-0.18-0.73c0.14-0.25,0.44-0.34,0.67-0.19l3.07,1.91
				c0.33,0.2,0.52,0.53,0.52,0.9c0,0.42-0.26,0.82-0.69,1.08l-4.19,2.55C11.02,22.84,10.8,22.91,10.59,22.91z"/>
		</g>
		<g>
			<path class="st0" d="M15.9,19.36c-0.24,0-0.46-0.06-0.67-0.18c-0.24-0.15-0.32-0.47-0.18-0.73c0.14-0.25,0.44-0.34,0.67-0.19
				c0.18,0.11,0.6,0.02,0.79-0.34l5.92-11.05c0.1-0.19,0.06-0.41,0.03-0.52c-0.06-0.2-0.17-0.34-0.26-0.4L17.63,3.1
				c-0.17-0.11-0.49,0.01-0.68,0.36l-0.5,0.93l3.88,2.41c0.24,0.15,0.32,0.47,0.18,0.73c-0.14,0.25-0.44,0.34-0.67,0.19l-4.31-2.68
				c-0.24-0.15-0.32-0.47-0.18-0.73l0.75-1.39c0.45-0.83,1.36-1.17,2.03-0.75l4.58,2.85c0.32,0.2,0.58,0.57,0.71,1
				C23.56,6.51,23.52,7,23.3,7.4l-5.92,11.05C17.07,19.02,16.47,19.36,15.9,19.36z"/>
		</g>
		<g>
			<path class="st0" d="M12.63,21.71c-0.08,0-0.17-0.02-0.25-0.07l-2.27-1.41c-0.24-0.15-0.32-0.47-0.18-0.73
				c0.14-0.25,0.44-0.34,0.67-0.19l2.27,1.41c0.24,0.15,0.32,0.47,0.18,0.73C12.96,21.61,12.8,21.71,12.63,21.71z"/>
		</g>
	</g>
	<g>
		<path class="st0" d="M10.64,23H1.99c-0.27,0-0.49-0.24-0.49-0.53s0.22-0.53,0.49-0.53h8.64c0.27,0,0.49,0.24,0.49,0.53
			S10.91,23,10.64,23z"/>
	</g>
</g>
</svg>
