<?xml version="1.0" encoding="utf-8"?>
<!-- Generator: Adobe Illustrator 16.0.0, SVG Export Plug-In . SVG Version: 6.00 Build 0)  -->
<!DOCTYPE svg PUBLIC "-//W3C//DTD SVG 1.1//EN" "http://www.w3.org/Graphics/SVG/1.1/DTD/svg11.dtd">
<svg version="1.1" id="Layer_1" xmlns="http://www.w3.org/2000/svg" xmlns:xlink="http://www.w3.org/1999/xlink" x="0px" y="0px"
	 width="199px" height="34px" viewBox="0 0 199 34" enable-background="new 0 0 199 34" xml:space="preserve">
<g>
	<defs>
		<rect id="SVGID_1_" width="199" height="34"/>
	</defs>
	<clipPath id="SVGID_2_">
		<use xlink:href="#SVGID_1_"  overflow="visible"/>
	</clipPath>
	<path opacity="0.5" clip-path="url(#SVGID_2_)" fill="#FFFFFF" d="M39.462,14.644L27.483,0.649
		c-0.271-0.353-0.864-0.646-1.29-0.646L24.862,0l8.684,16.597c0.379,0.717,0.271,1.428-0.3,2.004L21.159,30.699l3.172,3.088
		c0.294,0.289,0.814,0.283,1.11-0.004L39.42,20.901c0.308-0.311,0.537-0.865,0.537-1.314v-3.48
		C39.957,15.562,39.791,15.072,39.462,14.644"/>
	<path opacity="0.5" clip-path="url(#SVGID_2_)" fill="#FFFFFF" d="M8.664,17.691l10.923,11.025
		c0.082,0.084,0.231,0.135,0.393,0.135h0c0.159,0,0.309-0.051,0.394-0.135l10.917-11.024c0.305-0.302,0.365-0.647,0.175-1.034
		L23.505,0h-0.852l5.876,16.017c0.2,0.537,0.225,0.973-0.273,1.472l-7.559,7.575c-0.367,0.365-1.07,0.365-1.434,0l-7.56-7.575
		c-0.496-0.5-0.472-0.935-0.274-1.472L17.295,0h-0.845L8.492,16.659C8.3,17.045,8.361,17.391,8.664,17.691"/>
	<path opacity="0.5" clip-path="url(#SVGID_2_)" fill="#FFFFFF" d="M0.493,14.644L12.476,0.647C12.746,0.296,13.339,0,13.765,0
		h1.326l-8.68,16.594c-0.377,0.72-0.27,1.428,0.303,2.005l12.083,12.097l-3.173,3.09c-0.292,0.289-0.816,0.283-1.11-0.008
		L0.537,20.901C0.228,20.591,0,20.034,0,19.587v-3.482C0,15.562,0.167,15.071,0.493,14.644"/>
	<path opacity="0.5" clip-path="url(#SVGID_2_)" fill="#FFFFFF" d="M26.565,15.882L21.412,0h-0.58l3.82,15.307
		c0.063,0.268,0.109,0.665-0.232,1.012l-3.994,4.134c-0.114,0.117-0.284,0.176-0.447,0.176c-0.17,0-0.336-0.059-0.45-0.176
		l-3.996-4.134c-0.339-0.347-0.293-0.744-0.229-1.012L19.124,0h-0.578l-5.154,15.882c-0.078,0.25-0.021,0.574,0.133,0.738
		l6.097,6.228c0.094,0.091,0.228,0.137,0.357,0.137c0.131,0,0.26-0.046,0.351-0.137l6.101-6.228
		C26.586,16.456,26.643,16.132,26.565,15.882"/>
	<path opacity="0.5" clip-path="url(#SVGID_2_)" fill="#FFFFFF" d="M78.34,16.619c0-0.252-0.198-0.456-0.444-0.456H66.644v-2.648
		h9.657c0.245,0,0.443-0.206,0.443-0.457v-1.342c0-0.253-0.198-0.457-0.443-0.457H56.908V8.693h19.393
		c0.245,0,0.443-0.203,0.443-0.456V6.89c0-0.25-0.198-0.45-0.443-0.45H52.163c-0.248,0-0.446,0.2-0.446,0.45v1.348
		c0,0.253,0.199,0.456,0.446,0.456h0.978v4.365c0,0.251,0.198,0.457,0.443,0.457h9.303v2.648H52.053
		c-0.245,0-0.447,0.204-0.447,0.456v1.352c0,0.247,0.202,0.449,0.447,0.449h25.842c0.246,0,0.444-0.202,0.444-0.449V16.619z"/>
	<path opacity="0.5" clip-path="url(#SVGID_2_)" fill="#FFFFFF" d="M76.744,21.077c0-0.255-0.197-0.458-0.443-0.458H53.266
		c-0.245,0-0.448,0.203-0.448,0.458v1.343c0,0.254,0.198,0.456,0.448,0.456h19.719v5.602c0,0.244,0.204,0.451,0.448,0.451h2.868
		c0.246,0,0.443-0.203,0.443-0.451V21.077z"/>
	<path opacity="0.5" clip-path="url(#SVGID_2_)" fill="#FFFFFF" d="M195.498,27.13c0-0.25-0.202-0.455-0.448-0.455h-18.214v-5.626
		c0-0.256-0.202-0.457-0.448-0.457h-2.867c-0.248,0-0.444,0.201-0.444,0.457v7.429c0,0.248,0.196,0.453,0.444,0.453h21.529
		c0.246,0,0.448-0.205,0.448-0.453V27.13z"/>
	<path opacity="0.5" clip-path="url(#SVGID_2_)" fill="#FFFFFF" d="M199,11.645c0-0.252-0.199-0.454-0.448-0.454h-3.313V6.594
		c0-0.25-0.194-0.449-0.441-0.449h-2.867c-0.248,0-0.444,0.2-0.444,0.449v9.091h-3.604V6.89c0-0.25-0.201-0.451-0.453-0.451h-14.767
		c-0.244,0-0.441,0.201-0.441,0.451v1.348c0,0.253,0.197,0.455,0.441,0.455h11.462v6.992h-5.573v-3.653
		c0-0.256-0.196-0.461-0.442-0.461h-2.868c-0.247,0-0.448,0.205-0.448,0.461v3.653h-2.531c-0.248,0-0.446,0.203-0.446,0.451v1.346
		c0,0.252,0.198,0.457,0.446,0.457h19.225v1.717c0,0.251,0.196,0.453,0.444,0.453h2.867c0.247,0,0.441-0.202,0.441-0.453v-6.208
		h3.313c0.249,0,0.448-0.204,0.448-0.457V11.645z"/>
	<path opacity="0.5" clip-path="url(#SVGID_2_)" fill="#FFFFFF" d="M107.762,20.366c0-0.251-0.196-0.454-0.441-0.454h-2.868
		c-0.249,0-0.447,0.203-0.447,0.454v1.813H87.791v-1.813c0-0.251-0.2-0.454-0.443-0.454h-2.868c-0.242,0-0.441,0.203-0.441,0.454
		v8.112c0,0.248,0.199,0.453,0.441,0.453h22.841c0.245,0,0.441-0.205,0.441-0.453V20.366z M104.005,26.675H87.791v-2.236h16.214
		V26.675z"/>
	<path opacity="0.5" clip-path="url(#SVGID_2_)" fill="#FFFFFF" d="M107.762,6.594c0-0.25-0.196-0.45-0.441-0.45h-2.868
		c-0.249,0-0.447,0.2-0.447,0.45v9.14H87.792v-2.578h11.385c0.246,0,0.443-0.203,0.443-0.453V6.89c0-0.25-0.197-0.45-0.443-0.45
		H83.068c-0.247,0-0.444,0.2-0.444,0.45v1.348c0,0.252,0.197,0.455,0.444,0.455h12.794v2.203H83.068
		c-0.247,0-0.444,0.206-0.444,0.459v1.349c0,0.25,0.197,0.453,0.444,0.453h0.97v4.381c0,0.251,0.199,0.457,0.442,0.457h22.84
		c0.245,0,0.441-0.206,0.441-0.457V6.594z"/>
	<path opacity="0.5" clip-path="url(#SVGID_2_)" fill="#FFFFFF" d="M135.93,6.594c0-0.25-0.197-0.45-0.44-0.45h-2.872
		c-0.248,0-0.446,0.2-0.446,0.45v21.884c0,0.248,0.198,0.453,0.446,0.453h2.872c0.243,0,0.44-0.205,0.44-0.453V6.594z"/>
	<path opacity="0.5" clip-path="url(#SVGID_2_)" fill="#FFFFFF" d="M156.216,15.971c0-0.253-0.199-0.456-0.444-0.456h-10.016V6.889
		c0-0.25-0.201-0.45-0.446-0.45h-2.867c-0.242,0-0.44,0.2-0.44,0.45v10.428c0,0.254,0.198,0.455,0.44,0.455h13.329
		c0.245,0,0.444-0.201,0.444-0.455V15.971z"/>
	<path opacity="0.5" clip-path="url(#SVGID_2_)" fill="#FFFFFF" d="M166.044,6.594c0-0.25-0.198-0.45-0.444-0.45h-2.865
		c-0.244,0-0.447,0.2-0.447,0.45v1.541h-4.175c-0.246,0-0.448,0.206-0.448,0.458v1.338c0,0.258,0.202,0.461,0.448,0.461h4.175v1.868
		h-4.175c-0.246,0-0.448,0.204-0.448,0.457v1.344c0,0.254,0.202,0.459,0.448,0.459h4.175v3.496c0,0.254,0.194,0.452,0.447,0.452
		h2.865c0.249,0,0.444-0.198,0.444-0.452V6.594z"/>
	<path opacity="0.5" clip-path="url(#SVGID_2_)" fill="#FFFFFF" d="M166.045,20.716c0-0.254-0.198-0.455-0.444-0.455h-23.329
		c-0.247,0-0.445,0.201-0.445,0.455v1.325c0,0.253,0.198,0.458,0.445,0.458h0.954v5.979c0,0.248,0.202,0.453,0.446,0.453h21.929
		c0.246,0,0.444-0.205,0.444-0.453V20.716z M162.288,26.675h-15.307v-4.176h15.307V26.675z"/>
	<path opacity="0.5" clip-path="url(#SVGID_2_)" fill="#FFFFFF" d="M126.896,6.89c0-0.25-0.196-0.451-0.442-0.451h-14.011
		c-0.245,0-0.441,0.201-0.441,0.451v1.348c0,0.253,0.196,0.455,0.441,0.455h10.693v17.541c0,0.252,0.198,0.455,0.447,0.455h2.87
		c0.246,0,0.442-0.203,0.442-0.455V6.89z"/>
</g>
</svg>
