<?xml version="1.0" encoding="UTF-8"?>
<svg id="_레이어_1" data-name="레이어 1" xmlns="http://www.w3.org/2000/svg" width="34" height="34" viewBox="0 0 34 34">
  <defs>
    <style>
      .cls-1 {
        fill: #fff;
      }

      .cls-1, .cls-2 {
        stroke-width: 0px;
      }

      .cls-2 {
        fill: #32b44a;
      }
    </style>
  </defs>
  <path class="cls-2" d="m17,0h0c9.39,0,17,7.61,17,17h0c0,9.39-7.61,17-17,17h0C7.61,34,0,26.39,0,17h0C0,7.61,7.61,0,17,0Z"/>
  <path class="cls-1" d="m18.02,12.96c-1.43.08-2.78.66-3.79,1.65v-6.82h-4.39v17.97h4.43v-1.41c.4.6.95,1.08,1.6,1.41.65.33,1.37.48,2.1.45.86-.04,1.7-.24,2.48-.6s1.47-.86,2.05-1.49c.57-.62,1.02-1.35,1.3-2.15.28-.79.4-1.63.35-2.47,0,0-.23-6.54-6.18-6.54m-.97,9.45c-.56,0-1.1-.16-1.57-.47-.46-.3-.83-.74-1.04-1.24s-.27-1.06-.16-1.6c.11-.54.38-1.03.77-1.42.39-.39.9-.65,1.45-.76.55-.11,1.12-.05,1.63.16.52.21.96.56,1.27,1.02.31.45.48.99.48,1.54,0,.73-.3,1.44-.83,1.95-.53.52-1.25.81-2,.81Z"/>
</svg>