<?xml version="1.0" encoding="UTF-8"?>
<svg id="_레이어_1" data-name=" 레이어 1" xmlns="http://www.w3.org/2000/svg" width="34" height="34" viewBox="0 0 34 34">
  <defs>
    <style>
      .cls-1 {
        fill: #429bd5;
      }

      .cls-1, .cls-2 {
        stroke-width: 0px;
      }

      .cls-2 {
        fill: #fff;
      }
    </style>
  </defs>
  <path class="cls-1" d="m17,0h0c9.4,0,17,7.6,17,17h0c0,9.4-7.6,17-17,17h0C7.6,34,0,26.4,0,17h0C0,7.6,7.6,0,17,0Z"/>
  <path class="cls-2" d="m27.3,10.9c-.4.6-.9,1.1-1.5,1.6s-.5.9-.5,1.6c-.1,1.1-.3,2.2-.7,3.2-.7,2-2,3.9-3.6,5.3-3.9,3.4-10,3.5-14.3.8,3.2.1,4.6-.5,6.3-1.7-1.7-.2-3.2-.7-4-3,.8.2,1.4.1,1.9,0-1.5-.5-3.3-1.2-3.3-4.2.5.4,1.4.6,1.8.5-2.1-1.4-2.2-3.8-1.3-5.6,1.3,2,6.2,4.8,8.5,4.3-.2-2,.8-4,2.8-4.7,1.1-.4,2.2-.4,3.3.1.4.2.9.4,1.2.8q.1,0,.2,0h.1c.8-.2,2-.7,2.3-.9.1-.1-.7,1.9-1.8,2.3.5-.1,1.7-.5,2.2-.7.1,0,.2-.1.3,0,.1,0,.2.1.1.3h0Z"/>
</svg>