<?xml version="1.0" encoding="utf-8"?>
<!-- Generator: Adobe Illustrator 27.9.0, SVG Export Plug-In . SVG Version: 6.00 Build 0)  -->
<svg version="1.1" id="레이어_1" xmlns="http://www.w3.org/2000/svg" xmlns:xlink="http://www.w3.org/1999/xlink" x="0px"
	 y="0px" width="15px" height="15px" viewBox="0 0 15 15" style="enable-background:new 0 0 15 15;" xml:space="preserve">
<style type="text/css">
	.st0{fill:#FFFFFF;}
</style>
<path class="st0" d="M7.5,15C3.36,15,0,11.63,0,7.5c0-2,0.78-3.88,2.19-5.3C3.61,0.78,5.49,0,7.5,0s3.89,0.78,5.31,2.21
	C14.22,3.63,15,5.51,15,7.5C15,11.63,11.64,15,7.5,15z M7.5,1.2c-1.69,0-3.27,0.66-4.46,1.85C1.86,4.24,1.2,5.82,1.2,7.5
	c0,3.47,2.82,6.3,6.3,6.3c3.47,0,6.3-2.82,6.3-6.3c0-1.67-0.66-3.25-1.84-4.45C10.77,1.86,9.18,1.2,7.5,1.2z"/>
<path class="st0" d="M7.5,5.26c-2.01,0-3.89-0.78-5.31-2.21c-0.23-0.23-0.23-0.61,0-0.85C3.61,0.78,5.49,0,7.5,0
	s3.89,0.78,5.31,2.21c0.23,0.23,0.23,0.61,0,0.85C11.39,4.47,9.51,5.26,7.5,5.26z M3.5,2.63C4.63,3.55,6.02,4.06,7.5,4.06
	s2.87-0.5,3.99-1.43C10.37,1.7,8.97,1.2,7.5,1.2C6.02,1.2,4.63,1.7,3.5,2.63z"/>
<path class="st0" d="M7.5,15c-2.01,0-3.89-0.78-5.31-2.21c-0.23-0.23-0.23-0.61,0-0.85c1.42-1.42,3.3-2.21,5.31-2.21
	c2.01,0,3.89,0.78,5.31,2.21c0.23,0.23,0.23,0.61,0,0.85C11.39,14.22,9.51,15,7.5,15z M3.5,12.37C4.63,13.3,6.02,13.8,7.5,13.8
	s2.87-0.5,3.99-1.43c-1.12-0.93-2.52-1.43-3.99-1.43S4.63,11.45,3.5,12.37z"/>
<path class="st0" d="M14.4,8.1H0.6C0.27,8.1,0,7.83,0,7.5s0.27-0.6,0.6-0.6h13.8c0.33,0,0.6,0.27,0.6,0.6S14.73,8.1,14.4,8.1z"/>
<path class="st0" d="M7.5,15c-0.33,0-0.6-0.27-0.6-0.6V0.6C6.9,0.27,7.17,0,7.5,0s0.6,0.27,0.6,0.6v13.8C8.1,14.73,7.83,15,7.5,15z"
	/>
<path class="st0" d="M7.5,15c-2.41,0-4.3-3.29-4.3-7.5c0-1.94,0.41-3.77,1.15-5.15C5.16,0.83,6.28,0,7.5,0
	c1.22,0,2.34,0.83,3.15,2.35c0.74,1.39,1.15,3.22,1.15,5.15C11.8,11.7,9.91,15,7.5,15z M7.5,1.2c-0.75,0-1.51,0.62-2.09,1.71
	C4.76,4.13,4.4,5.76,4.4,7.5c0,3.41,1.42,6.3,3.1,6.3c1.68,0,3.1-2.88,3.1-6.3c0-1.74-0.36-3.37-1.01-4.59
	C9.01,1.82,8.25,1.2,7.5,1.2z"/>
</svg>
