<?xml version="1.0" encoding="utf-8"?>
<!-- Generator: Adobe Illustrator 27.9.0, SVG Export Plug-In . SVG Version: 6.00 Build 0)  -->
<svg version="1.1" id="레이어_1" xmlns="http://www.w3.org/2000/svg" xmlns:xlink="http://www.w3.org/1999/xlink" x="0px"
	 y="0px" width="19px" height="19px" viewBox="0 0 19 19" style="enable-background:new 0 0 19 19;" xml:space="preserve">
<style type="text/css">
	.st0{fill:#2180DC;}
</style>
<path class="st0" d="M9.5,19C4.26,19,0,14.74,0,9.5S4.26,0,9.5,0S19,4.26,19,9.5S14.74,19,9.5,19z M9.5,1.33
	c-4.51,0-8.17,3.67-8.17,8.17s3.67,8.17,8.17,8.17s8.17-3.67,8.17-8.17S14.01,1.33,9.5,1.33z"/>
<path class="st0" d="M18.34,10.16H0.66C0.3,10.16,0,9.87,0,9.5c0-0.37,0.3-0.66,0.66-0.66h17.67C18.7,8.84,19,9.13,19,9.5
	C19,9.87,18.7,10.16,18.34,10.16z"/>
<path class="st0" d="M9.5,19c-2.73,0-4.2-4.89-4.2-9.5S6.77,0,9.5,0c2.73,0,4.2,4.89,4.2,9.5S12.23,19,9.5,19z M9.5,1.33
	c-1.36,0-2.87,3.5-2.87,8.17s1.52,8.17,2.87,8.17c1.36,0,2.87-3.5,2.87-8.17S10.86,1.33,9.5,1.33z"/>
<path class="st0" d="M9.5,6.63c-2.54,0-4.92-0.99-6.72-2.78c-0.26-0.26-0.26-0.68,0-0.94c0.26-0.26,0.68-0.26,0.94,0
	C5.26,4.45,7.32,5.3,9.5,5.3s4.24-0.85,5.78-2.39c0.26-0.26,0.68-0.26,0.94,0c0.26,0.26,0.26,0.68,0,0.94
	C14.42,5.64,12.04,6.63,9.5,6.63z"/>
<path class="st0" d="M15.75,16.29c-0.17,0-0.34-0.06-0.47-0.19c-1.54-1.54-3.6-2.39-5.78-2.39s-4.24,0.85-5.78,2.39
	c-0.26,0.26-0.68,0.26-0.94,0c-0.26-0.26-0.26-0.68,0-0.94c1.79-1.79,4.18-2.78,6.72-2.78c2.54,0,4.92,0.99,6.72,2.78
	c0.26,0.26,0.26,0.68,0,0.94C16.09,16.22,15.92,16.29,15.75,16.29z"/>
</svg>
