<?xml version="1.0" encoding="utf-8"?>
<!-- Generator: Adobe Illustrator 27.9.0, SVG Export Plug-In . SVG Version: 6.00 Build 0)  -->
<svg version="1.1" id="Capa_1" xmlns="http://www.w3.org/2000/svg" xmlns:xlink="http://www.w3.org/1999/xlink" x="0px" y="0px"
	 width="15px" height="17px" viewBox="0 0 15 17" style="enable-background:new 0 0 15 17;" xml:space="preserve">
<style type="text/css">
	.st0{fill:#465367;}
</style>
<path class="st0" d="M12.86,6.93v-2.2C12.86,2.14,10.43,0,7.5,0C4.57,0,2.14,2.14,2.14,4.72v2.2C0.93,6.93,0,7.74,0,8.81v6.3
	C0,16.18,0.93,17,2.14,17h10.71c1.21,0,2.14-0.82,2.14-1.89v-6.3C15,7.81,14.07,6.93,12.86,6.93z M7.86,11.9v1.64
	c0,0.19-0.14,0.31-0.36,0.31c-0.21,0-0.36-0.13-0.36-0.31V11.9c-0.43-0.13-0.71-0.5-0.71-0.88c0-0.5,0.5-0.94,1.07-0.94
	c0.57,0,1.07,0.44,1.07,0.94C8.57,11.46,8.29,11.77,7.86,11.9z M10.71,6.93H4.29v-2.2c0-1.57,1.43-2.83,3.21-2.83
	s3.21,1.26,3.21,2.83V6.93z"/>
</svg>
