<?xml version="1.0" encoding="utf-8"?>
<!-- Generator: Adobe Illustrator 27.9.0, SVG Export Plug-In . SVG Version: 6.00 Build 0)  -->
<svg version="1.1" id="레이어_1" xmlns="http://www.w3.org/2000/svg" xmlns:xlink="http://www.w3.org/1999/xlink" x="0px"
	 y="0px" width="26px" height="26px" viewBox="0 0 26 26" style="enable-background:new 0 0 26 26;" xml:space="preserve">
<style type="text/css">
	.st0{filter:url(#Adobe_OpacityMaskFilter);}
	.st1{fill-rule:evenodd;clip-rule:evenodd;fill:#FFFFFF;}
	.st2{mask:url(#mask-2_00000007422467900708276560000001760444536064342451_);fill-rule:evenodd;clip-rule:evenodd;fill:#A36D6A;}
</style>
<g id="global_out">
	<g id="Group-3" transform="translate(7.000000, 7.000000)">
		<defs>
			<filter id="Adobe_OpacityMaskFilter" filterUnits="userSpaceOnUse" x="-7" y="-7" width="26" height="26">
				<feColorMatrix  type="matrix" values="1 0 0 0 0  0 1 0 0 0  0 0 1 0 0  0 0 0 1 0"/>
			</filter>
		</defs>
		
			<mask maskUnits="userSpaceOnUse" x="-7" y="-7" width="26" height="26" id="mask-2_00000007422467900708276560000001760444536064342451_">
			<g class="st0">
				<polygon id="path-1_00000142882944727630585170000015485598994758249379_" class="st1" points="-7,-7 19,-7 19,19 -7,19 				"/>
			</g>
		</mask>
		<path id="Fill-1" class="st2" d="M10.73,16.5c1.85-2.21,3.07-5.71,3.2-9.77h3.56C17.21,11.09,14.52,14.79,10.73,16.5L10.73,16.5z
			 M-5.49,6.74h3.56c0.13,4.06,1.35,7.56,3.2,9.77C-2.52,14.79-5.21,11.09-5.49,6.74L-5.49,6.74z M1.27-4.5
			c-1.85,2.21-3.07,5.71-3.2,9.77h-3.56C-5.21,0.91-2.52-2.79,1.27-4.5L1.27-4.5z M6.74,5.26V-5.44c3.04,0.65,5.51,5.22,5.72,10.71
			H6.74z M6.74,17.44V6.74h5.72C12.25,12.22,9.78,16.8,6.74,17.44L6.74,17.44z M5.26,6.74v10.71C2.22,16.8-0.25,12.22-0.46,6.74
			H5.26z M5.26-5.44V5.26h-5.72C-0.25-0.22,2.22-4.8,5.26-5.44L5.26-5.44z M17.49,5.26h-3.56c-0.13-4.06-1.35-7.56-3.2-9.77
			C14.52-2.79,17.21,0.91,17.49,5.26L17.49,5.26z M6-7C-1.17-7-7-1.17-7,6c0,7.17,5.83,13,13,13c7.17,0,13-5.83,13-13
			C19-1.17,13.17-7,6-7L6-7z"/>
	</g>
</g>
</svg>
